<!-- Generator: Adobe Illustrator 24.0.0, SVG Export Plug-In  -->
<svg version="1.1" xmlns="http://www.w3.org/2000/svg" xmlns:xlink="http://www.w3.org/1999/xlink" x="0px" y="0px" width="383.3px"
	 height="383.3px" viewBox="0 0 383.3 383.3" style="enable-background:new 0 0 383.3 383.3;" xml:space="preserve">
<style type="text/css">
	.st0{fill:#FFFFFF;}
</style>
<defs>
</defs>
<g>
	<path class="st0" d="M76.4,0c76.8,0,153.7,0,230.5,0c11.9,4,15.6,12.8,14.2,24.8c2,0,3.3,0,4.7,0c9.1,0,18.2-0.1,27.3,0
		c14.3,0.3,26.1,9.7,29.5,23.6c0.2,0.8,0.5,1.6,0.8,2.5c0,77.3,0,154.7,0,232c-5.3,20.8-20.2,26.4-37.2,26.1
		c-33.5-0.6-67.1-0.2-100.7-0.2c-1.5,0-2.9,0-4.5,0c0,13,0,25.6,0,38.4c10.5,0,20.7,0,30.9,0c7.3,0,12,4.6,12.2,11.8
		c0.1,4.1,0.1,8.2,0,12.3c-0.3,7.2-5,11.7-12.2,11.8c-7.5,0.1-15,0-22.5,0c-5.9,0-8.4-1.6-8.6-5.4c-0.1-4,2.6-5.8,8.6-5.8
		c7.7,0,15.4,0,23.2,0c0-4.7,0-9,0-13.3c-54.1,0-108,0-161.8,0c0,4.5,0,8.7,0,13.3c1.7,0,3.1,0,4.6,0c35.7,0,71.4,0,107,0
		c4.5,0,6.9,2,7,5.5c0.1,3.4-2.4,5.7-6.4,5.7c-37.3,0-74.6,0-111.9,0c-6.6,0-11.4-4.6-11.7-11.2c-0.2-4.6-0.2-9.2,0-13.8
		c0.2-5.2,3.7-9.4,8.5-10.6c1.5-0.4,3.2-0.4,4.8-0.4c9.8,0,19.6,0,29.7,0c0-12.9,0-25.4,0-38.4c-1.7,0-3.2,0-4.7,0
		c-18.3,0-36.7,0-55,0c-1.1,0-2.3,0.1-3.4,0c-3.5-0.3-5.9-2.5-5.9-5.6c0-3.2,2.4-5.6,6.2-5.6c10-0.1,20,0,29.9,0
		c80.2,0,160.4,0,240.7,0c6.7,0,12.6-1.5,17.1-6.7c4.8-5.5,5.2-12.1,4.5-19c-120.2,0-240.3,0-360.3,0c-2.4,16.8,7.9,26.8,22.9,25.8
		c7.2-0.4,14.5-0.1,21.7,0c3.7,0.1,5.9,2.1,6.1,5.3c0.1,3.3-2.1,5.6-5.9,5.9c-0.7,0.1-1.5,0-2.2,0c-7.1,0-14.2,0-21.3,0
		C12.7,308.8,0,296.1,0,276.1C0,238,0,200,0,161.9c0-35.2,0-70.4,0-105.5c0-18.5,13.1-31.5,31.6-31.6c8.7,0,17.5,0,26.2,0
		c1.3,0,2.6,0,4.2,0c0-1.9-0.2-3.3,0-4.6c0.6-3.5,0.8-7.2,2.1-10.5C66.4,4.4,71.3,2,76.4,0z M310,185.9c0-1.5,0-2.6,0-3.8
		c0-54,0-108,0-162.1c0-6.7-2.2-8.8-9.1-8.8c-72.9,0-145.7,0-218.6,0c-7,0-9.1,2.1-9.1,9.2c0,53.8,0,107.5,0,161.3c0,1.3,0,2.6,0,4
		c4.7,0,8.9,0,13.5,0c0-1.4,0-2.6,0-3.8c0-9-0.1-18,0-26.9c0.2-16.3,7.2-28.7,21-37.4c0.8-0.5,1.5-1.1,2.3-1.6
		c-15.5-14.4-12.5-33.7-3.2-43.8c10.9-11.8,28.4-13.6,41-3.9c6.2,4.7,10.1,11,11.5,18.6c2.1,11.6-2,21.2-10.4,29.2
		c7.2,4.8,14.1,9.3,21.4,14.1c1.6-6.3,6.3-11.4,3.3-17.9c-0.4-0.8-0.1-2-0.1-3c0-23.7,0-47.4,0-71.1c0-8.7,4.7-13.4,13.4-13.4
		c31.9,0,63.9,0,95.8,0c8.9,0,13.5,4.7,13.5,13.7c0,23.6,0,47.2,0,70.7c0,9.1-4.5,13.6-13.5,13.6c-22.5,0-44.9,0.1-67.4-0.1
		c-2.9,0-4.3,0.6-5.4,3.6c-4.5,12.5-9.2,25-14,37.4c-2.9,7.6-9.6,12.2-17.2,12c-2.1,0-4.1-0.5-6.2-0.8c0,3.7,0,7.3,0,11
		C218.5,185.9,264,185.9,310,185.9z M309.7,260.2c0-21,0-41.9,0-62.7c-58.2,0-116.1,0-174.1,0c0,21,0,41.8,0,62.7
		C193.7,260.2,251.6,260.2,309.7,260.2z M201.8,90.6c1.2-4.5,2.2-8.7,3.3-13c1.9-7.7,3.8-15.5,5.9-23.2c1-3.8,3.7-5.4,6.9-4.6
		c3.2,0.9,4.6,3.5,3.9,7.4c-0.1,0.7-0.3,1.5-0.5,2.2c-2.9,11.6-5.8,23.2-8.7,34.8c-0.2,0.9-0.6,2-0.4,2.9c1.5,4.7,3.2,9.4,4.9,14.3
		c22,0,44.9,0,67.8,0c0-25.2,0-50.2,0-75.1c-33.5,0-66.6,0-99.8,0c0,19.7,0,39,0,58.9C190.1,91.1,195.3,89.4,201.8,90.6z
		 M61.9,260.3c0-66.6,0-132.8,0-199.5c-5.7,0-11.1,0-16.6,0c-7.1,0-9.3,2.2-9.3,9.5c0,62,0,123.9,0,185.9c0,1.3,0,2.6,0,4.1
		C44.8,260.3,53.1,260.3,61.9,260.3z M347.3,260.3c0-1.6,0-3,0-4.3c0-61.8,0-123.7,0-185.5c0-1.1,0.1-2.3-0.1-3.4
		c-0.5-3.3-2.3-5.9-5.7-6c-6.7-0.3-13.4-0.1-20.1-0.1c0,66.6,0,132.9,0,199.3C330,260.3,338.3,260.3,347.3,260.3z M182.3,131.6
		c-0.4,0.6-0.7,0.8-0.9,1.1c-4.3,8.9-11.3,10.8-19.5,5.3c-2.6-1.7-5.2-3.4-7.7-5.2c-1.6-1.2-2.7-1.2-4.2,0.2
		c-2.7,2.4-5.6,4.6-8.4,6.8c-7.6,6-16,6-23.7,0c-3.3-2.6-6.6-5.3-9.8-7.8c-4.7,4-8.8,9.7-9,16.1c-0.6,12.5-0.2,25.1-0.2,37.8
		c20.4,0,41.2,0,62.4,0c0-1.5,0-2.9,0-4.2c0-8.2,0-16.5,0-24.7c0-1.4,0-2.8,0.4-4.1c0.8-2.8,2.7-4.1,5.6-4c2.8,0.2,4.6,1.7,5.1,4.6
		c0.2,1.3,0.3,2.8,0.1,4.1c-0.7,4.3,2.2,5.7,5.4,6.7c3,0.9,6.3-0.6,7.6-3.9c3.2-8.1,6.2-16.2,9.3-24.6
		C190.5,134.4,186.5,133,182.3,131.6z M61.9,36.4C61.3,36.2,61,36,60.8,36c-9.5,0-19-0.1-28.4-0.1c-13.3,0-21.1,7.9-21.1,21.2
		c0,66.4,0,132.7,0,199.1c0,1.3,0,2.6,0,4c4.7,0,8.9,0,13.5,0c0-1.8,0-3.4,0-4.9c0-61.7,0-123.5,0-185.2c0-13.4,7.2-20.5,20.6-20.5
		c5.4,0,10.9,0,16.5,0C61.9,44.9,61.9,40.7,61.9,36.4z M321.4,49.5c5.5,0,10.8,0,16.2,0c13.9,0,20.9,7.1,20.9,21
		c0,61.6,0,123.2,0,184.9c0,1.6,0,3.2,0,4.8c4.7,0,9,0,13.4,0c0.1-1,0.1-1.7,0.1-2.4c0-67.4,0-134.7,0-202.1
		c0-11.3-8.3-19.5-19.6-19.7c-9.5-0.1-19,0-28.4,0c-0.8,0-1.7,0.2-2.5,0.3C321.4,40.7,321.4,44.9,321.4,49.5z M123.8,260.3
		c0-21.2,0-41.9,0-62.8c-16.9,0-33.5,0-50.2,0c0,21.1,0,41.9,0,62.8C90.4,260.3,107,260.3,123.8,260.3z M229.2,309.2
		c-25.2,0-50.2,0-75.1,0c0,12.8,0,25.2,0,37.7c6.6,0,13,0,19.6,0c0-2.4,0-4.5,0-6.6c0-2.1-0.1-4.2,0-6.4c0.2-6.4,5-11.3,11.4-11.5
		c4-0.1,8-0.1,12,0c7.8,0.1,12.5,4.8,12.6,12.6c0,3.9,0,7.9,0,11.9c6.8,0,13.1,0,19.6,0C229.2,334.4,229.2,322,229.2,309.2z
		 M110.5,92.4c0,10.6,8.4,19.1,18.9,19.2c10.6,0.1,19.4-8.6,19.4-19.1c0-10.4-8.6-19.1-19-19.1C119.1,73.2,110.5,81.7,110.5,92.4z
		 M204.1,110.7c-5.2-1.3-6.3-4.7-5.8-9.6c-2.3,0.9-5,1.6-5.9,3.3c-2.6,5.3-4.5,10.9-6.7,16.5c4.7,1.5,8.7,2.9,13,4.2
		C200.5,120.3,202.2,115.8,204.1,110.7z M198.1,347.1c0-4.7,0-8.9,0-13.2c-4.5,0-8.7,0-13,0c0,4.5,0,8.8,0,13.2
		C189.5,347.1,193.7,347.1,198.1,347.1z M118.2,125.2c10.7,10.2,12.1,10.4,23-0.1C133.4,122.1,125.9,122,118.2,125.2z"/>
	<path class="st0" d="M244.4,234.4c-14.8,0-29.7,0-44.5,0c-2.3,0-3.7,0.4-4.9,2.8c-3.2,6.3-8.7,9.6-15.7,9.7c-7,0-12.6-3.3-15.8-9.5
		c-1.3-2.5-2.7-3.2-5.2-2.9c-1.4,0.1-2.7,0.1-4.1,0c-3.2-0.3-5.1-2-5.3-5.2c-0.2-3.3,1.8-6,4.6-5.7c6.3,0.7,9.3-2.7,13-7.1
		c7.9-9.2,22.7-6.9,28.4,3.9c1.2,2.3,2.5,2.9,4.8,2.9c29.2-0.1,58.4,0,87.6,0c1.1,0,2.3-0.1,3.4,0c3.5,0.3,5.7,2.6,5.7,5.8
		c-0.1,3.1-2.4,5.4-5.9,5.4c-11.1,0.1-22.2,0-33.3,0C252.9,234.4,248.7,234.4,244.4,234.4z M179.2,222.2c-3.7,0-6.6,2.9-6.7,6.6
		c-0.1,3.7,3.2,6.9,6.8,6.9c3.7,0,6.8-3.3,6.6-7C185.8,224.9,182.9,222.1,179.2,222.2z"/>
	<path class="st0" d="M98.7,234.4c-0.9,0-1.7,0-2.6,0c-3.7-0.1-6.2-2.4-6.2-5.6c0-3.2,2.5-5.4,6.2-5.6c1.6-0.1,3.2-0.1,4.8,0
		c4,0.2,6.4,2.4,6.3,5.8c-0.1,3.3-2.3,5.2-6.3,5.4C100.2,234.4,99.4,234.4,98.7,234.4z"/>
</g>
</svg>
