<!-- Generator: Adobe Illustrator 24.0.0, SVG Export Plug-In  -->
<svg version="1.1" xmlns="http://www.w3.org/2000/svg" xmlns:xlink="http://www.w3.org/1999/xlink" x="0px" y="0px" width="383.2px"
	 height="365.2px" viewBox="0 0 383.2 365.2" style="enable-background:new 0 0 383.2 365.2;" xml:space="preserve">
<style type="text/css">
	.st0{fill:#FFFFFF;}
</style>
<defs>
</defs>
<g>
	<g>
		<path class="st0" d="M383.2,290.4c-1.3,0.7-1,2.2-1.4,3.3c-3.8,11-14.2,18.4-25.7,18.3c-5.2,0-8.5-3.3-8.3-8c0.2-3.8,3-6.6,7-6.9
			c9.7-0.9,13.4-4.9,13.4-14.6c0-32.4,0-64.8,0-97.3c0-9.6-4.5-14.1-14.2-14.1c-55.6,0-111.2,0-166.9,0c-9.7,0-14.2,4.5-14.2,14.2
			c0,10.3,0.1,20.7-0.1,31c0,2.1,0.5,2.8,2.7,3.4c12.7,3.3,20.5,13.6,20.6,26.8c0.1,15.6,0.1,31.2-0.1,46.8c0,3.2,0.9,3.8,4,3.8
			c28.7-0.1,57.4-0.1,86-0.1c1.4,0,2.8,0,4.1,0.1c3.5,0.4,6.2,3,6.6,6.6c0.4,3.4-1.7,6.6-5.1,7.8c-1.7,0.6-3.4,0.5-5.2,0.5
			c-28.9,0-57.9,0-86.8-0.1c-2.9,0-3.8,0.7-3.7,3.7c0.2,7.6,0.1,15.2,0.1,22.8c-0.2,15.1-11.7,26.8-26.8,26.8
			c-47.5,0.1-95,0.1-142.5,0c-15,0-26.7-11.9-26.7-27c-0.1-30.3,0-60.6,0-90.9c0-17.1,11.4-28.5,28.7-28.5c33.9,0,67.8,0,101.8,0
			c8.2,0,16.5-0.1,24.7,0.1c2.3,0,3-0.6,2.9-2.9c-0.2-5.2-0.2-10.5,0-15.7c0.1-2.7-1-3-3.2-2.9c-26.9,0.1-53.9,0.1-80.8,0
			c-13.8,0-23.8-6.7-27.8-18.4c-1-2.9-1.4-5.8-1.4-8.8c0-47.6,0-95.3,0-142.9C44.9,12.2,56.5,0.2,70.7,0c4.8-0.1,8.2,2.8,8.5,7.1
			c0.3,4.2-2.9,7.4-7.7,7.9c-6.9,0.7-11.5,5.2-11.5,11.8c-0.1,36.3,0,72.6,0,109.1c1.6-0.1,2.4-1.3,3.3-2.1
			c26.6-21.5,53.1-43,79.6-64.5c5.5-4.5,8-4.5,13.4,0c21.7,18.1,43.5,36.2,65.2,54.4c2.2,1.8,3.5,2,5.9,0.2
			c13-10.1,26.2-19.9,39.3-29.9c5-3.8,7.3-3.8,12.4-0.2c12.5,8.9,24.9,17.7,37.8,26.9c0.1-1.6,0.2-2.8,0.2-4c0-29.2,0-58.4,0-87.5
			c0-9.8-4.4-14.2-14.1-14.2c-54.4,0-108.7,0-163.1,0c-6.2,0-9.5-2.6-9.5-7.5c0-3.9,2.7-6.9,6.5-7.4c0.9-0.1,1.7-0.1,2.6-0.1
			C194.1,0,249,0,303.9,0c13.7,0,24.2,8.1,27.3,21c0.7,2.8,0.6,5.7,0.6,8.6c0,40.8,0,81.6-0.1,122.3c0,3.2,0.6,4.3,4,4.2
			c7.3-0.3,14.7-0.3,22.1,0.1c12.5,0.8,21.6,8.6,24.6,20.8c0.1,0.5,0.1,1,0.7,1.1C383.2,215.5,383.2,252.9,383.2,290.4z M98,350.2
			c22.8,0,45.6-0.3,68.4,0.1c9.4,0.2,15-5.6,14.9-14.7c-0.4-29-0.1-58.1-0.1-87.1c0-10.5-4.2-14.8-14.7-14.8c-45.9,0-91.8,0-137.6,0
			c-9.2,0-13.9,4.6-13.9,13.7c0,29.7,0,59.3,0,89c0,9.2,4.6,13.8,13.8,13.8C51.8,350.2,74.9,350.2,98,350.2z M236.3,156
			c-0.8-0.9-1-1.2-1.3-1.5c-27.9-23.3-55.9-46.6-83.8-69.9c-1.9-1.6-2.8-0.7-4.2,0.5c-25.7,20.9-51.2,42.1-77.4,62.3
			c-7.8,6-11,12.2-10,21.7c0.8,8.2,4.9,13.1,13,13.1c27.4,0.1,54.8,0,82.2,0.1c2,0,2.9-0.3,3.3-2.6c2.6-14.8,13-23.5,28.1-23.7
			c7.8-0.1,15.7,0,23.6,0C218.5,156,227,156,236.3,156z M236,135.8c7.9,6.5,15.5,12.9,23.2,19.3c0.8,0.7,1.7,0.9,2.8,0.9
			c17.6,0,35.1,0,52.7,0c1.6,0,2.2-0.5,2.1-2.1c-0.1-4.4-0.1-8.7,0-13.1c0-1.3-0.5-2-1.6-2.7c-13.6-9.7-27.2-19.4-40.7-29
			c-0.9-0.7-1.7-1.2-2.9-0.2C259.9,117.8,248.1,126.7,236,135.8z"/>
		<path class="st0" d="M241.6,263.2c0-4-0.1-8,0-12c0.1-2-0.4-2.9-2.7-2.8c-3.4,0.2-6.7,0.1-10.1,0c-8.5-0.3-15.4-7.1-15.6-15.6
			c-0.2-7.1-0.2-14.2,0-21.3c0.2-8.4,7-15.8,15.2-15.4c21.8,1,42.8-4.2,64.1-7.3c8.1-1.2,16.2-2.6,24.3-3.9c6-0.9,9.5,2.1,9.6,8.3
			c0.1,5.6,0.1,11.2,0,16.8c0,1.9,0.4,2.8,2.5,3.1c4,0.5,6.3,3.3,6.4,7c0.1,3.8-2.1,6.8-6,7.4c-2.8,0.4-3,1.7-2.9,3.9
			c0.1,6.5,0.1,13,0,19.4c-0.1,6.5-3.8,9.4-10.2,8.3c-9.6-1.6-19.2-3.1-28.7-4.7c-2.1-0.4-2.7,0.4-3.3,2.3c-2,6.7-4.2,13.3-6.4,19.9
			c-1.6,4.7-3.6,6.2-8.4,6.3c-6.5,0.1-13,0.1-19.4,0c-5.6-0.1-8.2-2.7-8.3-8.3C241.5,270.9,241.6,267,241.6,263.2z M311.6,222.6
			c0-6.2-0.1-12.5,0.1-18.7c0.1-2.6-0.9-2.8-3-2.5c-16.5,2.7-32.9,5.4-49.4,8c-1.7,0.3-2.7,0.4-2.7,2.5c0.1,6.9,0.1,13.7,0,20.6
			c0,1.8,0.6,2.3,2.3,2.5c16.7,2.6,33.4,5.3,50.1,8c2.4,0.4,2.7-0.5,2.6-2.5C311.5,234.6,311.6,228.6,311.6,222.6z M241.6,221.7
			c-0.3-3.1,1.6-7.9-0.7-10.1c-1.8-1.8-6.6-0.5-10.1-0.6c-0.1,0-0.3,0-0.4,0c-1.6-0.1-2.2,0.6-2.2,2.2c0.1,6,0.1,12,0,17.9
			c0,1.8,0.7,2.3,2.4,2.4c11,0.8,11,0.8,11-10.1C241.6,223.1,241.6,222.7,241.6,221.7z M260.8,267.9c3.6,1.6,4.7-0.9,5.5-4
			c0.9-3.3,2-6.7,3.1-9.9c0.6-1.6,0.1-2.2-1.5-2.4c-3-0.4-5.9-0.8-8.8-1.4c-2.3-0.5-2.7,0.4-2.6,2.5c0.1,3.9,0.3,7.7,0,11.6
			C256.2,267.3,257,268.9,260.8,267.9z"/>
		<path class="st0" d="M224,82.4c-14.2,0-25.7-11.5-25.6-25.6c0-14.2,11.5-25.7,25.7-25.6c14.2,0,25.7,11.5,25.7,25.7
			C249.7,70.9,238.1,82.4,224,82.4z M223.9,67.4c5.9,0.1,10.7-4.6,10.8-10.5c0.1-5.9-4.7-10.7-10.6-10.8c-5.9,0-10.7,4.7-10.8,10.5
			C213.3,62.6,218,67.4,223.9,67.4z"/>
		<path class="st0" d="M97.9,7.4c0-4.2,3.4-7.4,7.7-7.3c4,0.1,7.3,3.6,7.2,7.5c-0.1,4-3.5,7.3-7.4,7.4C101.2,15,97.9,11.6,97.9,7.4z
			"/>
		<path class="st0" d="M329.4,304.4c0,4.1-3.1,7.3-7.2,7.4c-4.2,0.1-7.7-3.3-7.7-7.4c0-4,3.3-7.3,7.3-7.4
			C326.2,296.9,329.4,300.1,329.4,304.4z"/>
		<path class="st0" d="M131.9,289.9c0.1,2.9-1.1,5.1-3.5,6.6c-15.2,9.3-30.3,18.6-45.6,27.7c-5.6,3.3-11.3-0.4-11.4-7.3
			c-0.1-13.2,0-26.4,0-39.7c0-3.6-0.1-7.2,0-10.8c0.2-6.8,5.7-10.1,11.7-7c14.7,7.8,29.4,15.7,44.1,23.6
			C129.9,284.5,131.9,286.5,131.9,289.9z M86.3,278.1c0,8.4,0,16.2,0,24c0,2.5,1,2,2.4,1.1c6.8-4.2,13.6-8.3,20.8-12.7
			C101.7,286.4,94.2,282.4,86.3,278.1z"/>
	</g>
</g>
</svg>
