<?xml version="1.0" encoding="utf-8"?>
<svg version="1.1" xmlns:xlink="http://www.w3.org/1999/xlink" width="45px" height="31px" xmlns="http://www.w3.org/2000/svg">
  <g transform="matrix(1 0 0 1 -997 -3206 )">
    <path d="M 18 8.83253968253968  L 18 21.2079365079365  L 30 15.0571428571429  L 18 8.83253968253968  Z M 6.77257525083612 0.442857142857141  C 10.9698996655518 0.147619047619047  16.2123745819398 0  22.5 0  C 25.309364548495 0  28.0225752508361 0.0369047619047618  30.6396321070234 0.110714285714285  C 33.2566889632107 0.184523809523809  35.1755852842809 0.26243386243386  36.3963210702341 0.344444444444443  L 38.2274247491639 0.442857142857141  C 38.2441471571906 0.442857142857141  38.3862876254181 0.455158730158729  38.6538461538462 0.479761904761903  C 38.9214046822743 0.504365079365081  39.1137123745819 0.528968253968256  39.2307692307692 0.55357142857143  C 39.3478260869565 0.578174603174605  39.5443143812709 0.615079365079366  39.8202341137124 0.664285714285715  C 40.0961538461538 0.713492063492064  40.3344481605351 0.779100529100525  40.5351170568562 0.861111111111111  C 40.7357859531773 0.943121693121691  40.9698996655518 1.04973544973544  41.2374581939799 1.18095238095238  C 41.505016722408 1.31216931216931  41.7642140468228 1.47208994708995  42.0150501672241 1.66071428571429  C 42.2658862876254 1.84933862433862  42.5083612040134 2.06666666666667  42.742474916388 2.31269841269841  C 42.8428093645485 2.41111111111111  42.9724080267559 2.56283068783068  43.13127090301 2.76785714285714  C 43.2901337792642 2.9728835978836  43.5326086956522 3.4526455026455  43.8586956521739 4.20714285714286  C 44.1847826086957 4.96164021164021  44.4063545150502 5.78994708994709  44.5234113712375 6.69206349206349  C 44.6571906354515 7.74179894179894  44.7617056856187 8.86124338624338  44.8369565217391 10.0503968253968  C 44.9122073578595 11.2395502645503  44.9581939799331 12.1703703703704  44.9749163879599 12.8428571428571  L 44.9749163879599 13.8269841269841  L 44.9749163879599 17.1730158730159  C 44.9916387959866 19.5513227513227  44.8411371237458 21.9296296296296  44.5234113712375 24.3079365079365  C 44.4063545150502 25.2100529100529  44.1973244147157 26.0260582010582  43.8963210702341 26.7559523809524  C 43.5953177257525 27.4858465608466  43.3277591973244 27.9902116402116  43.0936454849498 28.2690476190476  L 42.742474916388 28.6873015873016  C 42.5083612040134 28.9333333333333  42.2658862876254 29.1506613756614  42.0150501672241 29.3392857142857  C 41.7642140468228 29.5279100529101  41.505016722408 29.6837301587302  41.2374581939799 29.806746031746  C 40.9698996655518 29.9297619047619  40.7357859531773 30.0322751322751  40.5351170568562 30.1142857142857  C 40.3344481605351 30.1962962962963  40.0961538461538 30.2619047619048  39.8202341137124 30.3111111111111  C 39.5443143812709 30.3603174603175  39.3436454849498 30.3972222222222  39.2182274247492 30.4218253968254  C 39.0928093645485 30.4464285714286  38.9005016722408 30.4710317460317  38.6413043478261 30.4956349206349  C 38.3821070234114 30.5202380952381  38.2441471571906 30.5325396825397  38.2274247491639 30.5325396825397  C 34.0301003344482 30.8441798941799  28.7876254180602 31  22.5 31  C 19.0384615384615 30.9671957671958  16.0326086956522 30.9138888888889  13.4824414715719 30.8400793650794  C 10.9322742474916 30.7662698412698  9.25585284280936 30.7047619047619  8.45317725752508 30.6555555555556  L 7.22408026755853 30.5571428571429  L 6.32107023411371 30.4587301587302  C 5.7190635451505 30.3767195767196  5.2633779264214 30.294708994709  4.95401337792642 30.2126984126984  C 4.64464882943144 30.1306878306878  4.21822742474916 29.9584656084656  3.6747491638796 29.6960317460317  C 3.13127090301003 29.4335978835979  2.65886287625418 29.0973544973545  2.25752508361204 28.6873015873016  C 2.15719063545151 28.5888888888889  2.02759197324415 28.4371693121693  1.86872909698997 28.2321428571429  C 1.70986622073579 28.0271164021164  1.46739130434783 27.5473544973545  1.14130434782609 26.7928571428571  C 0.815217391304348 26.0383597883598  0.593645484949833 25.2100529100529  0.476588628762542 24.3079365079365  C 0.342809364548495 23.2582010582011  0.238294314381271 22.1387566137566  0.16304347826087 20.9496031746032  C 0.0877926421404682 19.7604497354497  0.0418060200668896 18.8296296296296  0.0250836120401338 18.1571428571429  L 0.0250836120401338 17.1730158730159  L 0.0250836120401338 13.8269841269841  C 0.00836120401337792 11.4486772486772  0.158862876254181 9.07037037037037  0.476588628762542 6.69206349206349  C 0.593645484949833 5.78994708994709  0.802675585284281 4.97394179894179  1.10367892976589 4.24404761904762  C 1.40468227424749 3.51415343915344  1.67224080267559 3.00978835978836  1.90635451505017 2.73095238095238  L 2.25752508361204 2.31269841269841  C 2.49163879598662 2.06666666666667  2.73411371237458 1.84933862433862  2.98494983277592 1.66071428571429  C 3.23578595317726 1.47208994708995  3.49498327759197 1.31216931216931  3.76254180602007 1.18095238095238  C 4.03010033444816 1.04973544973544  4.26421404682274 0.943121693121691  4.46488294314381 0.861111111111111  C 4.66555183946488 0.779100529100525  4.90384615384615 0.713492063492064  5.17976588628763 0.664285714285715  C 5.4556856187291 0.615079365079366  5.65217391304348 0.578174603174605  5.76923076923077 0.55357142857143  C 5.88628762541806 0.528968253968256  6.07859531772575 0.504365079365081  6.34615384615385 0.479761904761903  C 6.61371237458194 0.455158730158729  6.75585284280937 0.442857142857141  6.77257525083612 0.442857142857141  Z " fill-rule="nonzero" fill="#d9001b" stroke="none" transform="matrix(1 0 0 1 997 3206 )" />
  </g>
</svg>