<!-- Generator: Adobe Illustrator 24.0.0, SVG Export Plug-In  -->
<svg version="1.1" xmlns="http://www.w3.org/2000/svg" xmlns:xlink="http://www.w3.org/1999/xlink" x="0px" y="0px" width="383.3px"
	 height="379.6px" viewBox="0 0 383.3 379.6" style="enable-background:new 0 0 383.3 379.6;" xml:space="preserve">
<style type="text/css">
	.st0{fill:#FDFEFF;}
</style>
<defs>
</defs>
<path class="st0" d="M383.3,261c-1.2,6.9-1.8,13.9-3.6,20.5c-14.3,52.3-47.9,85.2-101,95.6c-43.6,8.5-81.5-4.8-113.2-35.8
	c-1.8-1.8-3.5-2.3-5.9-2.3c-28.2,0.1-56.4,0.1-84.6,0c-20-0.1-35.5-16.5-34.4-36.4c0.5-10,5-18.2,12.9-25
	c-8.1-7.1-12.8-15.9-12.9-26.8c-0.1-10.9,4.4-19.8,12.9-27.3c-8.1-7.2-12.9-16.1-12.9-27.1c0-10.9,4.6-19.7,12.9-27
	c-6.6-5.8-10.8-12.6-12.4-21c-3.7-20.4,11.8-39.8,32.5-40.4c6.7-0.2,13.4,0,20.7,0c-7.8-13.1-7.8-25.9,0-39c-3,0-5.5,0-7.9,0
	c-17.6,0-35.2,0.2-52.8-0.1C16.7,68.7,3.1,56.2,0.4,39C-2.1,23.5,7.6,7.4,23,2.2c4-1.4,8.5-2.1,12.8-2.1C96,0,156.3,0,216.5,0
	c27.9,0,44.2,27.3,31.1,51.9c-0.3,0.5-0.5,1-1.1,2.1c1.8,0,3.1,0,4.4,0c18.6,0,37.2-0.1,55.8,0.1c19.3,0.2,34.4,16.1,33.9,35.5
	c-0.4,17.9-15.1,32.8-33,33.4c-6.7,0.2-13.4,0-20.4,0c1.3,4,3.3,6.2,7.3,7.7c49.1,17.3,78.3,51.7,87.4,103.1
	c0.5,2.8,0.9,5.6,1.4,8.5C383.3,248.5,383.3,254.8,383.3,261z M256,364.5c61.9,0.1,112.4-50.5,112.4-112.5
	c0-61.9-50.2-112.3-112-112.5c-61.9-0.2-112.5,50.2-112.6,112.3C143.7,313.8,194.1,364.4,256,364.5z M126.2,54c30.3,0,60.6,0,90.9,0
	c9.4,0,17-5.5,19.4-14c3.7-12.7-5.7-24.9-19.3-24.9c-36.3-0.1-72.6,0-108.9,0c-24.4,0-48.9,0-73.3,0c-9.2,0-16.7,5.5-19.2,13.9
	C12.1,41.6,21.4,54,34.9,54C65.3,54.1,95.8,54,126.2,54z M214.3,108c30.4,0,60.9,0,91.3,0c11.8,0,20.6-9.1,20-20.5
	c-0.5-10.6-9.2-18.5-20.6-18.5c-48.1,0-96.3,0-144.4,0c-12.6,0-25.2-0.1-37.8,0c-8.9,0.1-16.3,5.8-18.7,14
	c-3.7,12.7,5.7,24.9,19.2,24.9C153.7,108.1,184,108,214.3,108z M264,125.1c0-0.5,0-1,0.1-1.4c-2.6-0.2-5.3-0.6-7.9-0.6
	c-44.8,0-89.6,0-134.3,0c-15.6,0-31.2-0.1-46.8,0c-8.9,0-16.4,5.7-18.7,14c-3.7,12.7,5.6,24.9,19.2,25c28.9,0.1,57.9,0,86.8,0.1
	c2.7,0,4.6-0.8,6.5-2.7c21.4-20,46.6-31.7,75.9-34.2C251.1,124.6,257.6,125.1,264,125.1z M152.9,177.4c-0.7-0.2-0.9-0.4-1.2-0.4
	c-25.9,0-51.8-0.1-77.7,0.1c-10.3,0.1-18.5,9-18.5,19.3c0,10.5,8.2,19.4,18.7,19.5c19.2,0.2,38.4,0.1,57.6,0c0.9,0,2.5-0.8,2.7-1.6
	C138.6,201.1,144.8,189,152.9,177.4z M131.9,285c-18,0-37.1,0-56.2,0c-11.5,0-20.3,8.5-20.2,19.6c0,11,8.8,19.4,20.4,19.4
	c23.9,0,47.9,0,71.8,0c0.9,0,1.8-0.2,1.9-0.2C143.8,311.1,138,298.3,131.9,285z M129.6,231.1c-0.2,0-0.9-0.1-1.7-0.1
	c-17.7,0-35.4,0-53.1,0c-1.1,0-2.2,0.1-3.3,0.3c-10,2-16.8,10.8-16,20.9c0.8,9.9,9.1,17.7,19.3,17.8c16.9,0.1,33.9,0,50.8,0
	c1.3,0,2.7,0,3.9,0C129.6,256.9,129.6,244.1,129.6,231.1z"/>
<path class="st0" d="M263.7,301.8c-0.5,7.4-3,10.7-7.7,10.6c-4.7,0-7-3.1-7.7-10.7c-6.2-1.8-11.9-4.7-16.3-9.7
	c-4.5-5-7.1-10.8-7.3-17.6c-0.2-4.9,2.5-8.3,6.8-8.6c4.4-0.4,7.6,2.7,8.1,7.9c0.7,7.4,6.3,12.8,14.1,13.6c8.6,0.9,16-3.3,18.2-10.4
	c2.4-7.7-3.1-15.8-12-17.4c-3.8-0.7-7.7-0.6-11.5-1.5c-13.3-2.9-23.1-14-23.8-26.5c-0.7-13.2,7.4-24.8,20.7-29.2
	c2.7-0.9,3.3-2.2,3.3-4.7c0-4.5,3.3-7.8,7.4-7.7c4.1,0,7.5,3.3,7.4,7.8c-0.1,3,1.3,3.9,3.7,4.8c11.8,4.4,18.9,12.7,20.2,25.4
	c0.5,4.8-1.9,8.4-5.8,9.1c-4.6,0.9-8.6-2-8.9-6.7c-0.4-6.8-3.9-11.2-10-13.6c-6.6-2.5-12.8-1.6-18.2,3c-4.2,3.6-6,8.3-4.1,13.8
	c2.2,6.4,7.1,9.3,13.5,10.3c4.1,0.6,8.3,0.7,12.2,1.8c12.8,3.7,21.5,15,21.6,27.5c0.1,12.4-8.2,23.4-20.8,27.7
	C265.8,301.1,264.8,301.5,263.7,301.8z"/>
<path class="st0" d="M353.4,249.7c-0.2,18.1-3.7,33.2-11.1,47.4c-2.2,4.1-6.2,5.6-10,3.8c-3.9-1.9-5.3-6.1-3.3-10.5
	c0.2-0.6,0.5-1.1,0.8-1.7c10.9-22.8,11.7-45.9,1.9-69.2c-7.6-17.9-20.1-31.4-37.2-40.5c-0.7-0.4-1.3-0.7-2-1.1
	c-4.6-2.6-6.2-6.5-4.2-10.5c2-4,6.5-5.6,10.8-2.8c8.2,5.2,16.7,10.2,23.7,16.7C343.2,200.3,352.8,224.2,353.4,249.7z"/>
<path class="st0" d="M217.6,341.1c-2-0.7-3.5-1.1-4.8-1.8c-35.6-17.1-57.8-57.3-53.5-96.6c1.3-12.2,4.5-23.7,10-34.6
	c2.6-5.3,6.5-7,10.8-4.9c4.2,2.1,5.1,6.3,2.6,11.6c-16.4,34.3-9.8,72.1,17.7,97.7c5.8,5.4,12.9,9.3,19.5,13.6
	c4.8,3.1,6.5,8.1,3,11.8C221.5,339.4,219.3,340.1,217.6,341.1z"/>
<path class="st0" d="M275.2,161.9c0.1,4.1-3.3,7.5-7.6,7.6c-4.3,0.1-7.7-3.2-7.8-7.4c-0.1-4.2,3.3-7.5,7.6-7.6
	C271.7,154.5,275.2,157.8,275.2,161.9z"/>
<path class="st0" d="M244.5,334.5c4.3-0.1,7.7,3.2,7.8,7.4c0.1,4.1-3.3,7.5-7.6,7.6c-4.3,0.1-7.7-3.2-7.8-7.4
	C236.9,338,240.2,334.6,244.5,334.5z"/>
</svg>
