<!-- Generator: Adobe Illustrator 24.0.0, SVG Export Plug-In  -->
<svg version="1.1" xmlns="http://www.w3.org/2000/svg" xmlns:xlink="http://www.w3.org/1999/xlink" x="0px" y="0px" width="379.5px"
	 height="384px" viewBox="0 0 379.5 384" style="enable-background:new 0 0 379.5 384;" xml:space="preserve">
<style type="text/css">
	.st0{fill:#FDFEFF;}
</style>
<defs>
</defs>
<path class="st0" d="M99.1,384c-2.3-0.8-4.8-1.4-7-2.5c-9.8-4.7-15.6-12.4-16.3-23.3c-0.4-6.5-0.3-13-0.2-19.5
	c0-3.8,2.3-6.2,5.5-6.2c3.2,0,5.5,2.4,5.6,6.2c0.1,5.4,0,10.7,0.1,16.1c0.1,11.2,6.9,17.8,18.1,17.9c41.5,0,83.1,0,124.6,0
	c1,0,2,0,3.9,0c-1.4-1.5-2.3-2.4-3.2-3.3c-14.1-14.1-28.2-28.3-42.4-42.4c-3.9-3.9-6.1-8.1-5-13.7c0.2-0.9-0.3-2.2-0.9-2.9
	c-3-3.3-6.2-6.4-9.3-9.6c-51.7,36.4-118.3,21.1-151.4-23.9C-10.7,233.6-6.2,172.4,32,134.6c38.8-38.5,99.7-42.3,142.9-9.3
	c45.1,34.4,57.7,100.7,22.4,150.6c3.3,3.2,6.6,6.6,10.1,9.8c0.6,0.5,1.8,0.6,2.7,0.4c4.7-0.9,8.7,0.4,12,3.7
	c17.2,17.1,34.3,34.2,51.3,51.5c7.7,7.9,9.1,18.8,4.4,28.8c-0.4,0.8-0.7,1.5-1.4,2.7c1.7,0,2.9,0,4.1,0c23.1,0,46.2,0,69.2,0
	c11.7,0,18.4-6.6,18.4-18.3c0-89,0-178,0-267c0-1.6-0.2-3.2-0.4-5.1c-2.3,0-4.4,0-6.5,0c-14.2,0-28.4,0-42.7,0
	c-13.3,0-21.2-8-21.2-21.2c0-15,0-30,0-45c0-4.8,0-4.8-5-4.8c-14.7,0-29.4,0-44.2,0c-47.5,0-95.1,0-142.6,0
	c-12.4,0-18.9,6.4-18.9,18.9c0,17.2,0,34.5,0,51.7c0,1.4,0,2.8-0.2,4.1c-0.5,3.2-2.4,4.9-5.6,4.8c-3-0.1-4.9-1.8-5.3-4.8
	c-0.2-1.4-0.2-2.7-0.2-4.1c0-16.1,0.5-32.3-0.1-48.4C74.8,17.1,81.4,4.5,99.1,0c66.4,0,132.8,0,199.1,0c8.7,1.9,14.8,7.6,20.8,13.7
	c16.4,16.7,33,33.4,49.8,49.8c7.5,7.3,10.7,15.7,10.7,26.1c-0.2,87.6-0.1,175.1-0.1,262.7c0,2,0,4-0.2,6
	c-0.8,11.4-8.3,20.8-19.2,24.3c-1.4,0.5-2.8,0.9-4.2,1.4C270.3,384,184.7,384,99.1,384z M206.4,212.1c0.2-53.8-43.5-97.9-97.3-98.1
	c-54-0.2-97.8,43.5-98,97.7c-0.2,53.7,43.3,97.8,96.5,98C162.5,310,206.3,266.7,206.4,212.1z M269.2,356.4c-0.9-1.6-2.1-5.4-4.5-7.9
	c-16.3-16.7-32.9-33.1-49.3-49.7c-2.1-2.2-3.5-2-5.5,0.1c-4.6,4.8-9.2,9.5-14,14c-2.6,2.4-2.3,4,0.1,6.4
	c14.6,14.5,29.1,29.1,43.7,43.7c2.1,2.1,4.1,4.4,6.4,6.3c4.5,3.8,9.6,4.6,15,2C266.5,368.8,269.1,364.4,269.2,356.4z M358.8,70.9
	c-16.7-16.8-33.5-33.5-50.1-50.2c0,0.6-0.1,1.7-0.1,2.8c0,12.4,0,24.7,0,37.1c0,7.6,2.8,10.4,10.3,10.4c12.3,0,24.7,0,37,0
	C357,71.1,358.1,71,358.8,70.9z M190.7,285.3c-3.2,3-6.1,5.8-8.7,8.2c2.7,2.8,5.5,5.8,8.3,8.8c2.9-2.9,5.8-5.9,8.4-8.6
	C196,290.8,193.2,287.8,190.7,285.3z"/>
<path class="st0" d="M178.4,36.6c18,0,35.9,0,53.9,0c9.2,0,13.8,4.5,13.9,13.8c0,6.2,0.1,12.5,0,18.7c-0.1,8.4-4.9,13.2-13.4,13.2
	c-36.3,0-72.6,0-108.8,0c-8.4,0-13.2-4.9-13.3-13.3c-0.1-6.5-0.1-13,0-19.5c0.1-8.2,4.9-12.9,13.2-12.9
	C142,36.5,160.2,36.6,178.4,36.6z M234.9,48c-37.9,0-75.2,0-113.1,0c0,6.4,0.2,12.6-0.1,18.8c-0.2,3.6,1.1,4.3,4.5,4.3
	c34.8-0.1,69.6-0.1,104.3-0.1c0.6,0,1.4,0.2,1.8-0.1c0.9-0.6,2.4-1.5,2.4-2.3C235,61.9,234.9,55.2,234.9,48z"/>
<path class="st0" d="M288.9,180c15.6,0,31.2,0,46.8,0c4.7,0,7.3,2,7.4,5.6c0,3.5-2.7,5.7-7.3,5.7c-31.2,0-62.4,0-93.5,0
	c-4.6,0-7.2-2.2-7.1-5.8c0.1-3.5,2.5-5.4,7-5.4C257.7,180,273.3,180,288.9,180z"/>
<path class="st0" d="M288.9,225.1c-15.7,0-31.4,0-47.1,0c-2.9,0-5.2-0.8-6.3-3.6c-1.3-3.3,0.7-6.7,4.1-7.5c1.1-0.2,2.2-0.2,3.4-0.2
	c30.7,0,61.4,0,92,0c1.2,0,2.5-0.1,3.7,0.3c2.9,0.8,4.5,2.8,4.3,5.8c-0.2,2.9-2,4.8-5,5.1c-1.1,0.1-2.2,0.1-3.4,0.1
	C319.3,225.1,304.1,225.1,288.9,225.1z"/>
<path class="st0" d="M288.9,146.1c15.6,0,31.2,0,46.8,0c4.7,0,7.3,2.1,7.3,5.6c0,3.5-2.8,5.6-7.4,5.6c-31.1,0-62.1,0-93.2,0
	c-3.4,0-6.3-0.7-7.2-4.5c-0.9-3.9,1.7-6.8,6.2-6.8c15.2,0,30.4,0,45.6,0C287.7,146.1,288.3,146.1,288.9,146.1z"/>
<path class="st0" d="M264.7,258.9c-7.6,0-15.2,0-22.8,0c-4.4,0-6.8-2.1-6.8-5.7c0.1-3.4,2.5-5.5,6.6-5.5c15.3-0.1,30.7-0.1,46,0
	c4.4,0,6.8,2.2,6.8,5.8c-0.1,3.5-2.4,5.4-7,5.4C279.9,259,272.3,258.9,264.7,258.9z"/>
<path class="st0" d="M51.8,261.2c8.4-14.3,23.3-13.6,36.3-16.9c0.9-4.3,0-7.5-3.2-11.1c-3.6-4-5.6-9.5-8.3-14.4
	c-0.8-1.4-1.5-3.1-2.7-4.2c-2.6-2.3-4-5-4-8.5c0-8.9-0.1-17.7,0.1-26.6c0.2-13,10.3-23.9,23.2-24.5c9.8-0.5,19.7-0.3,29.6-0.1
	c5.9,0.1,10,3.3,12.5,8.6c0.5,1.2,1.7,2.4,2.9,2.9c5.9,2.6,9.1,6.9,9.1,13.3c0.1,8.7,0,17.5,0.1,26.2c0,3.8-1.5,6.7-4.5,9
	c-1,0.8-1.8,2.3-2.2,3.6c-1.6,5.9-4.2,11.4-8.9,15.3c-3.6,3-3.8,6.3-3.3,10.2c13.6,3.2,28.7,2.6,37.1,17.3
	c7.6-8.6,12.7-18.3,15.7-28.9c14-49.7-24.7-98.4-76.2-95.9c-34.9,1.7-64.2,27.6-70.3,62.2c-0.8,4.8-3.5,7.1-7.1,6.2
	c-3.1-0.8-5-3.2-4-6.9c2.2-8.2,4-16.6,7.6-24.1c16-33.8,52.5-53,89.8-47.9c36.9,5.1,66.9,34.2,73.1,70.9
	c9.5,55.9-35.1,105.1-91.8,101.3C63.7,295.8,30.4,266,23.7,228c-0.7-3.9,1-6.9,4.3-7.5c3.4-0.6,5.9,1.3,6.7,5.4
	C37.3,239,42.8,250.7,51.8,261.2z M108.8,287.4c16.6-0.1,31.7-5.1,45.2-15c2.3-1.7,3.1-3.6,1.3-5.5c-2.5-2.6-5.1-5.7-8.3-6.9
	c-5.4-2-11.3-2.8-17.1-3.9c-0.9-0.2-2.2,0.4-2.9,1c-10.3,9.2-26.7,9.4-37.4,0.1c-0.7-0.6-2.1-1-3-0.8c-5.8,1.2-11.8,2.2-17.4,4.1
	c-2.8,1-5.1,3.7-7.2,6c-1.7,1.9-1.2,3.8,1.1,5.5C76.7,282.1,91.8,287.2,108.8,287.4z M136,194c-6.2-0.7-12.4-2.3-17.8,1
	c-8.4,5.1-17.5,6-27,5.7c-3.3-0.1-6.6,0-11,0c1.1,2.4,1.4,4.5,2.6,5.3c2.7,1.7,3.6,4.1,4.3,7.1c0.7,3,1.4,6.1,2.9,8.8
	c4.4,7.9,13.7,12,22.2,10.4c9.4-1.8,16.2-8.5,17.8-17.9c0.6-3.5,1.1-6.9,5-8.6c0.6-0.2,1-1.4,1-2.1C136,200.5,136,197.4,136,194z
	 M135.6,182.5c0.5-4.3,0.2-5.1-2.5-5.4c-4.8-0.6-7.2-3.2-8.3-7.8c-0.3-1.2-2.1-2.9-3.3-3c-9.2-0.2-18.4-0.3-27.7,0.1
	c-6.4,0.2-11.6,5.2-12.4,11.5c-0.5,3.6-0.1,7.4-0.1,11.5c4.8,0,9.4-0.1,14,0c6,0.2,11.5-0.9,16.8-4c5-3,10.7-3.9,16.6-3.4
	C130.9,182.2,133.1,182.3,135.6,182.5z M117.4,250c-0.2-2.4-0.5-4.6-0.7-6.7c-5.7,0-11.2,0-16.9,0c-0.1,1.2,0.1,2.6-0.4,3.8
	c-1.1,2.9,0.5,3.8,2.7,4.6C107.6,253.5,112.7,253.1,117.4,250z"/>
</svg>
