<!-- Generator: Adobe Illustrator 24.0.0, SVG Export Plug-In  -->
<svg version="1.1" xmlns="http://www.w3.org/2000/svg" xmlns:xlink="http://www.w3.org/1999/xlink" x="0px" y="0px" width="383.3px"
	 height="384px" viewBox="0 0 383.3 384" style="enable-background:new 0 0 383.3 384;" xml:space="preserve">
<style type="text/css">
	.st0{fill:#FDFEFF;}
</style>
<defs>
</defs>
<path class="st0" d="M123.5,384c-1.2-1.9-3.1-3.7-3.5-5.8c-0.6-3.1,2.3-5.5,6.1-5.5c6.2-0.1,12.4,0,19.6,0
	c1.4-15.7,2.8-31.2,4.3-47.2c-2.1,0-3.4,0-4.7,0c-13.1,0-26.2,0-39.3,0c-1,0-2,0.1-3-0.1c-3.1-0.4-5-2.2-5.1-5.4
	c-0.1-3.1,2-5.4,5.2-5.7c1.2-0.1,2.5,0,3.7,0c82.9,0,165.9,0,248.8,0c11.5,0,16.3-4.9,16.3-16.5c0-5.5,0-11,0-16.5
	c0-1.2,0-2.4,0-3.9c-120.3,0-240.3,0-360.8,0c0,3.4,0,6.8,0,10.3c0,4.2-0.1,8.5,0,12.7c0.1,8.1,5.6,13.7,13.7,13.7
	c16.3,0.1,32.7,0,49,0c1,0,2-0.1,3,0c3.2,0.3,5.4,2.7,5.4,5.7c0,3-2.3,5.4-5.5,5.5c-3.6,0.2-7.2,0.1-10.8,0.1c-13.2,0-26.4,0-39.7,0
	C10.4,325.5,0,315.2,0,299.3C0,226.2,0,153.1,0,80c0-16.1,10.2-26.4,26.5-26.4c52.6,0,105.3,0,157.9,0c1.5,0,2.9,0,5.5,0
	c-2.7-2.8-4.8-4.9-6.8-6.9c-4.9-5.1-5-10.1-0.1-15.1c3.8-3.8,7.5-7.6,11.4-11.4c4.8-4.7,10.4-5.1,14.6,0.2c4.8,6,9.2,7.1,16.1,3.2
	c6.7-3.8,7.3-3,7-11.1c-0.2-5.9,1.8-10.2,7.4-12.4c7.5,0,15,0,22.5,0c10.2,4,6.6,13.2,7.5,20.7c2.3,0.8,4.8,1.2,6.6,2.5
	c6.8,4.8,11.7,3.1,16.6-3.2c3.9-4.9,9.6-4.5,14.1-0.2c4,3.9,8,7.9,11.9,11.9c4.5,4.7,4.4,9.8-0.1,14.6c-2.1,2.2-4.2,4.3-7.1,7.2
	c2.4,0,3.7,0,5.1,0c13.5,0,26.9,0,40.4,0c8.8,0,16.2,2.9,21.3,10.3c2.1,3.1,3.2,6.9,4.8,10.4c0,77,0,154,0,231
	c-6.9,16.6-12.4,20.3-30.5,20.3c-38.1,0-76.3,0-114.4,0c-1.5,0-2.9,0-5.1,0c1.5,16,2.9,31.5,4.3,47c1.1,0,1.3,0.1,1.4,0.1
	c6.1,0.1,12.2,0.1,18.3,0.2c3.7,0.1,6.7,2.4,6.1,5.5c-0.4,2.1-2.3,3.8-3.5,5.8C214.3,384,168.9,384,123.5,384z M311.7,123.2
	c2.4,2.4,5.1,4.8,7.6,7.4c3.8,4.1,3.9,9.4,0,13.5c-4.1,4.4-8.4,8.6-12.7,12.7c-4.3,4-9.4,3.9-13.7-0.1c-2.1-2-4-4.2-6.2-6
	c-0.8-0.7-2.4-0.9-3.4-0.6c-4,1.4-7.9,3.1-11.7,4.9c-1,0.5-2.1,1.9-2.2,3c-0.3,2.7,0,5.5-0.1,8.2c-0.2,6.3-3.9,9.9-10.2,10.1
	c-4.7,0.1-9.5,0-14.2,0c-9.6,0-12.8-3.1-12.8-12.7c0-7.7-0.4-7-7.1-10.7c-7.2-4.1-11.5-2.4-16.3,3.4c-4.1,5-9.7,4.6-14.4,0
	c-3.9-3.8-7.8-7.7-11.6-11.7c-4.5-4.7-4.5-9.9,0.1-14.5c2.4-2.5,5.2-4.6,7.8-6.9c-1.7-2.7-2.7-4.6-3.5-6.5c-1.4-3.2-1.8-7.7-4.2-9.3
	c-2.6-1.7-7-0.5-10.6-0.7c-5.8-0.3-9.2-3.6-9.6-9.4c-0.1-2.1,0-4.2,0-6.6c-1.7,0-3,0-4.2,0c-39.4,0-78.8,0-118.3,0
	c-5.4,0-5.7,0.3-5.7,5.7c0,55.1,0,110.2,0,165.4c0,1.3,0.1,2.6,0.2,4c104.8,0,209.1,0,313.8,0c0-1.5,0-2.7,0-3.9
	c0-55.1,0-110.2,0-165.4c0-1,0.3-2.2-0.2-3c-0.6-1.1-1.6-2.4-2.6-2.6c-2.2-0.4-4.6-0.1-7.1-0.1c0,2.4,0.1,4.3,0,6.1
	c-0.4,6.2-3.8,9.6-10,9.8c-2.7,0.1-5.5-0.2-8.2,0.1c-1.1,0.1-2.6,1.2-3.1,2.2C315.4,113.5,313.8,118,311.7,123.2z M243.4,11.4
	c0,3.6,0,6.8,0,10c-0.1,5.4-2.3,8.3-7.2,10.1c-5.1,1.9-10.2,4-15.1,6.3c-4.8,2.2-8.4,1.8-12.2-2c-2.3-2.3-4.4-4.8-6.5-7
	c-3.8,3.7-7.2,7-10.5,10.3c0,0.1,0,0.2,0.1,0.3c2.3,2.3,4.5,4.6,6.8,7c3.5,3.7,3.9,7.5,1.8,12c-2.3,5-4.4,10-6.3,15.1
	c-1.9,4.9-4.8,7.3-10,7.4c-3.2,0.1-6.4,0-9.8,0c0,5,0,9.6,0,14.2c0.6,0.2,0.8,0.3,1,0.3c2.9,0,5.7,0,8.6,0.1
	c5.5,0.1,8.3,2.4,10.2,7.6c1.8,5,3.9,9.9,6.2,14.8c2.2,4.7,1.8,8.6-1.9,12.3c-2.4,2.3-5.1,4.3-7.1,6c4.1,4.3,7.4,7.6,10.9,11.3
	c2.2-2.4,4.5-4.9,6.9-7.2c3.6-3.4,7.1-3.8,11.6-1.7c5.1,2.3,10.3,4.4,15.5,6.4c4.7,1.8,7,4.7,7.1,9.8c0.1,3.3,0,6.7,0,10
	c5.2,0,9.8,0,14.7,0c0-3.5-0.1-6.8,0-10c0.1-5.1,2.4-8,7.2-9.8c5.1-1.9,10.2-4,15.1-6.3c4.9-2.2,8.4-1.9,12.3,1.9
	c2.4,2.3,4.6,4.8,6.4,6.7c3.8-3.7,7.1-7,10.9-10.6c-2.1-1.9-4.5-4-6.7-6.2c-4.1-4.1-4.4-7.7-1.9-12.9c2.2-4.6,4.1-9.3,5.8-14.1
	c2-5.6,4.8-7.8,10.8-7.9c3.1,0,6.1,0,9.3,0c0-5.1,0-9.7,0-14.6c-1.8,0-3.4,0-5,0c-1.7,0-3.5,0-5.2,0c-4.8-0.2-7.7-2.5-9.5-7.1
	c-2-5.2-4.1-10.4-6.5-15.5c-2.1-4.6-1.7-8.4,1.8-12c2.3-2.4,4.8-4.7,6.9-6.8c-3.6-3.7-6.9-7-10.7-10.9c-2,2.2-4,4.6-6.2,6.8
	c-4.2,4.2-7.8,4.5-13.2,1.9c-4.5-2.2-9.1-4.1-13.7-5.8c-5.7-2-7.9-4.6-8-10.6c0-3.2,0-6.4,0-9.6C253,11.4,248.5,11.4,243.4,11.4z
	 M184.5,65c-1.1-0.1-2.2-0.2-3.3-0.2c-51.5,0-103,0-154.6,0c-10.3,0-15.5,5.2-15.5,15.4c0,60.5,0,121,0,181.5c0,1.3,0.1,2.6,0.2,3.9
	c4.1,0,7.9,0,12,0c0-1.9,0-3.5,0-5.1c0-55,0-110,0-165c0-10.7,5.4-16.1,16.1-16.1c39.5,0,79.1,0,118.6,0c1.4,0,2.9,0,4.2,0
	c2.3-8.1,4.6-9.8,12.7-9.8c1.5,0,3-0.2,4.5,0C183.1,70.2,184.6,68.7,184.5,65z M222,325.8c-20.4,0-40.6,0-60.7,0
	c-1.4,15.7-2.7,31.2-4.1,46.7c22.9,0,46.1,0,68.9,0C224.7,356.8,223.3,341.4,222,325.8z M339.2,79.5c1.7,0,3.4,0,5,0
	c10.2,0,15.7,5.5,15.7,15.8c0,55.2,0,110.5,0,165.7c0,1.6,0,3.1,0,4.7c4.4,0,8.2,0,12.1,0c0-1.5,0-2.8,0-4c0-60.4,0-120.7,0-181.1
	c0-10.5-5.1-15.7-15.5-15.7c-12.1,0-24.2,0-36.3,0c-1.1,0-2.1,0.2-3.2,0.2c-0.1,3.8,1.6,5.1,5,4.7c1.3-0.2,2.7,0,4.1,0
	C334.6,69.7,336.7,71.2,339.2,79.5z"/>
<path class="st0" d="M192,290.2c3.9,0,7.7,0,11.6,0c4.1,0.1,6.5,2.2,6.5,5.6c0,3.2-2.5,5.5-6.2,5.6c-8.1,0.1-16.2,0.1-24.3,0
	c-3.8,0-6.2-2.3-6.3-5.5c-0.1-3.4,2.4-5.6,6.4-5.7C183.8,290.1,187.9,290.2,192,290.2z"/>
<path class="st0" d="M130.2,236.5c0,2.3,0,4.6,0,6.8c-0.1,5.7-3.4,9.1-9.1,9.3c-4.4,0.1-8.7,0.2-13.1,0c-5.4-0.2-9.1-3.5-8.6-8.8
	c0.5-6-1.6-9-7.2-10.1c-1.2-0.2-2.3-1-4.4-2.4c-1.5,2-2.8,4.1-4.6,5.9c-3.8,3.7-8.4,3.7-12.3,0c-3.2-3-6.3-6.1-9.3-9.3
	c-3.9-4.1-3.9-8.8,0-13c1.5-1.6,3.2-3.1,4.8-4.6c-1.3-3.3-2.4-6.3-3.8-9.2c-0.4-0.8-1.5-1.4-2.4-1.7c-0.9-0.3-2-0.1-3-0.1
	c-8.4,0-11.3-2.9-11.3-11.2c0-3.6-0.1-7.3,0-10.9c0.2-5.7,3.5-9.3,9.3-9c5.1,0.3,7.6-1.1,9.4-6.2c1.3-3.8,1.1-5.8-1.8-8.4
	c-5.7-5.3-5.6-9.7,0-15.3c2.6-2.7,5.2-5.4,8-7.9c4-3.8,8.9-4.1,12.5,0.1c3.6,4.2,6.7,4.8,11.6,2.3c3.1-1.6,4.4-2.9,4.3-6.4
	c-0.2-8.9,2.6-11.5,11.6-11.5c3.4,0,6.7-0.1,10.1,0c5.7,0.1,9.6,3.6,9.1,9.1c-0.5,5.6,1.5,8,6.6,9.8c3.4,1.2,5.2,0.9,7.6-1.6
	c5.9-6.2,10-6.1,16.1-0.1c2.5,2.5,5,4.9,7.4,7.4c4,4.2,4.3,9.2-0.1,12.8c-4.2,3.5-4.6,6.5-2.2,11.3c1.6,3.3,2.9,4.6,6.7,4.5
	c8.3-0.3,11.3,2.8,11.3,11.1c0,3.5,0,7,0,10.5c-0.1,5.9-3.4,9.8-9.2,9.3c-5.5-0.4-7.8,1.5-9.5,6.5c-1.2,3.5-1,5.4,1.7,7.9
	c6.1,5.7,6,9.8,0,15.8c-2.6,2.6-5.1,5.2-7.7,7.7c-4.1,3.8-8.9,4.1-12.5-0.1c-3.6-4.2-7-5.2-11.6-2.1
	C133.3,235.6,131.8,235.9,130.2,236.5z M110.5,126.3c0,2.1,0,3.9,0,5.6c-0.1,5.6-2.1,8.1-7.3,9.9c-3.5,1.2-6.9,2.7-10.3,4.3
	c-4.4,2.1-7.8,1.8-11.2-1.7c-1.5-1.5-2.5-3.4-3.7-5.1c-0.3,0.4-0.6,0.9-0.9,1.3c-1.9,1.8-3.7,3.6-6.2,6c1.4,1.1,2.9,2,4.1,3.3
	c4.2,4.2,4.5,7.2,1.9,12.4c-1.6,3.3-3,6.9-4.2,10.4c-1.6,4.5-4.1,6.5-8.8,6.6c-2.1,0.1-4.1,0-6.2,0c0,3.2,0,5.8,0,8.7
	c1.9,0,3.3,0,4.8,0c6.4,0,8.5,1.7,10.6,7.9c1.1,3.3,2.6,6.5,4.1,9.6c2.3,4.7,1.9,7.8-1.8,11.5c-1.4,1.4-3.2,2.4-5.4,4.1
	c2.2,1.7,3.4,2.4,4.3,3.5c0.9,1.1,1.3,2.4,1.9,3.7c2.6-2,3.5-3.3,4.5-4.3c4.7-4.8,7.3-5,13.3-2c3,1.5,6.2,2.7,9.3,3.8
	c5.1,1.7,7,4.2,7.2,9.6c0.1,1.9,0,3.9,0,5.8c3.3,0,5.8,0,8.5,0c0-2,0-3.8,0-5.5c0.1-5.6,2-8,7.3-9.9c3.6-1.3,7.1-2.9,10.6-4.5
	c4.2-1.9,7.3-1.6,10.6,1.5c1.6,1.5,2.9,3.3,4.1,4.6c2.5-2.3,4.4-4.1,7.1-6.7c-1.8-1.4-3.7-2.7-5.3-4.2c-2.9-2.9-3.1-6.3-1.6-10
	c1.8-4.1,3.5-8.2,5.1-12.4c1.5-3.8,4.1-5.8,8.2-5.9c2.2,0,4.4,0,6.9,0c0-1.9,0-3.2,0-4.6c0-1.3-0.1-2.6-0.2-4.1c-2.2,0-3.9,0-5.6,0
	c-5.6-0.1-8-2-9.8-7.4c-1.1-3.3-2.4-6.5-4-9.7c-2.5-5.1-2.2-8.3,1.8-12.1c1.3-1.3,3-2.2,4.1-3c-2.7-2.8-4.6-4.8-6.8-7
	c-1.3,1.4-2.7,3.1-4.2,4.5c-3,2.9-6.5,3.3-10.3,1.6c-4-1.8-8-3.4-12-5c-4-1.6-6-4.2-6.1-8.5c-0.1-2.2,0-4.4,0-6.6
	C116,126.3,113.5,126.3,110.5,126.3z"/>
<path class="st0" d="M207.3,88c0-8.1,2.1-15.5,6.3-22.4c2.5-4.1,5.5-5.2,8.6-3.4c3.1,1.8,3.4,5,1.1,9.1c-11,19-1.7,42.3,19,48.1
	c12.9,3.6,26.6-1.2,34.5-12c8-10.9,8.4-25.6,1-36.9c-7.3-11.2-20.8-16.7-33.9-13.9c-1.8,0.4-4.1,1-5.4,0.2c-1.6-1-3.2-3.2-3.5-5.1
	c-0.5-3,1.7-4.8,4.5-5.5c7.9-2.1,15.8-2,23.6,0.3c19.8,5.8,32.7,24.8,31.1,45.8c-1.5,19.8-17.4,36.5-37.3,39.2
	C230.4,135,207.1,114.6,207.3,88z"/>
<path class="st0" d="M273.3,88.2c0,12.5-10,22.7-22.5,22.7c-12.6,0.1-22.7-10.2-22.7-22.9c0.1-12.5,10.3-22.6,22.7-22.5
	C263.3,65.6,273.3,75.7,273.3,88.2z M262.1,88.3c0-6.3-5-11.5-11.2-11.5c-6.2-0.1-11.4,5.1-11.4,11.4c0,6.3,5,11.5,11.2,11.5
	C256.9,99.7,262.1,94.6,262.1,88.3z"/>
<path class="st0" d="M85,183.7c0-16.4,13.4-29.8,29.7-29.8c16.3,0,29.7,13.5,29.7,29.8c0,16.3-13.4,29.8-29.7,29.8
	C98.4,213.6,85,200.1,85,183.7z M96.3,183.2c-0.3,10.3,7.7,18.7,18,19.1c9.9,0.3,18.5-7.9,18.9-17.9c0.4-10.3-7.9-19.1-18.3-19.2
	C105,165,96.6,173.1,96.3,183.2z"/>
</svg>
