<!-- Generator: Adobe Illustrator 24.0.0, SVG Export Plug-In  -->
<svg version="1.1" xmlns="http://www.w3.org/2000/svg" xmlns:xlink="http://www.w3.org/1999/xlink" x="0px" y="0px" width="18.1px"
	 height="13.8px" viewBox="0 0 18.1 13.8" style="enable-background:new 0 0 18.1 13.8;" xml:space="preserve">
<style type="text/css">
	.st0{fill:#2881BB;}
</style>
<defs>
</defs>
<g>
	<path class="st0" d="M7.3,13.8c-1.2-0.2-2.1-0.9-2.9-1.7c-1.3-1.2-2.5-2.5-3.8-3.7C0,7.9-0.2,7.2,0.2,6.5c0.4-0.8,1.4-0.9,2.1-0.4
		c0.2,0.1,0.3,0.3,0.4,0.4c1.4,1.3,2.8,2.7,4.2,4C7.5,11.1,8,11,8.5,10.3c2.3-3.2,4.6-6.4,6.9-9.6c0.5-0.7,1.1-0.9,1.7-0.7
		c0.9,0.3,1.3,1.3,0.9,2.1c-0.1,0.1-0.2,0.3-0.3,0.4c-2.3,3.2-4.5,6.3-6.8,9.5c-0.7,0.9-1.5,1.5-2.6,1.7c0,0-0.1,0-0.1,0
		C7.9,13.8,7.6,13.8,7.3,13.8z"/>
</g>
</svg>
