<?xml version="1.0" encoding="utf-8"?>
<svg version="1.1" xmlns:xlink="http://www.w3.org/1999/xlink" width="12px" height="21px" xmlns="http://www.w3.org/2000/svg">
  <g transform="matrix(1 0 0 1 -120 -9218 )">
    <path d="M 8.83333333333333 0  C 10.1944444444444 0  11.25 0.0504807692307691  12 0.151442307692307  L 12 3.48317307692308  L 9.81944444444444 3.48317307692308  C 9.02314814814815 3.48317307692308  8.48611111111111 3.63461538461539  8.20833333333333 3.9375  C 7.93055555555556 4.24038461538461  7.79166666666667 4.69471153846154  7.79166666666667 5.30048076923077  L 7.79166666666667 7.68569711538461  L 11.8611111111111 7.68569711538461  L 11.3194444444444 11.4212740384615  L 7.79166666666667 11.4212740384615  L 7.79166666666667 21  L 3.54166666666667 21  L 3.54166666666667 11.4212740384615  L 0 11.4212740384615  L 0 7.68569711538461  L 3.54166666666667 7.68569711538461  L 3.54166666666667 4.93449519230769  C 3.54166666666667 3.36959134615385  4.02314814814815 2.15594951923077  4.98611111111111 1.29356971153846  C 5.94907407407407 0.431189903846156  7.23148148148148 0  8.83333333333333 0  Z " fill-rule="nonzero" fill="#f2f2f2" stroke="none" transform="matrix(1 0 0 1 120 9218 )" />
  </g>
</svg>