<?xml version="1.0" encoding="utf-8"?>
<svg version="1.1" xmlns:xlink="http://www.w3.org/1999/xlink" width="18px" height="17px" xmlns="http://www.w3.org/2000/svg">
  <g transform="matrix(1 0 0 1 -160 -9221 )">
    <path d="M 0.22265625 5.52384196185286  L 4 5.52384196185286  L 4 17  L 0.22265625 17  L 0.22265625 5.52384196185286  Z M 3.73828125 0.561648501362398  C 4.12890625 0.936080835603996  4.328125 1.4089464123524  4.3359375 1.98024523160763  C 4.34375 2.54382379654859  4.146484375 3.01475930971844  3.744140625 3.39305177111717  C 3.341796875 3.77134423251589  2.8125 3.96049046321526  2.15625 3.96049046321526  L 2.1328125 3.96049046321526  C 1.4921875 3.96049046321526  0.9765625 3.77134423251589  0.5859375 3.39305177111717  C 0.1953125 3.01475930971844  0 2.54382379654859  0 1.98024523160763  C 0 1.4089464123524  0.201171875 0.936080835603996  0.603515625 0.561648501362398  C 1.005859375 0.187216167120798  1.53125 0  2.1796875 0  C 2.828125 0  3.34765625 0.187216167120798  3.73828125 0.561648501362398  Z M 16.78125 6.57186648501362  C 17.59375 7.44811534968211  18 8.73160762942779  18 10.4223433242507  L 18 17  L 14.14453125 17  L 14.14453125 10.8623978201635  C 14.14453125 10.0517711171662  13.986328125 9.41678019981835  13.669921875 8.95742506811989  C 13.353515625 8.49806993642143  12.859375 8.26839237057221  12.1875 8.26839237057221  C 11.6953125 8.26839237057221  11.283203125 8.40156675749319  10.951171875 8.66791553133515  C 10.619140625 8.93426430517711  10.37109375 9.26430517711172  10.20703125 9.65803814713897  C 10.12109375 9.88964577656676  10.078125 10.2023160762943  10.078125 10.5960490463215  L 10.078125 17  L 6.22265625 17  C 6.23828125 13.9196185286104  6.24609375 11.4221162579473  6.24609375 9.5074931880109  C 6.24609375 7.59287011807448  6.2421875 6.45027247956403  6.234375 6.07970027247956  L 6.22265625 5.52384196185286  L 10.078125 5.52384196185286  L 10.078125 7.19141689373297  L 10.0546875 7.19141689373297  C 10.2109375 6.94436875567666  10.37109375 6.72820163487738  10.53515625 6.54291553133515  C 10.69921875 6.35762942779292  10.919921875 6.15690281562216  11.197265625 5.94073569482289  C 11.474609375 5.72456857402361  11.814453125 5.55665304268846  12.216796875 5.43698910081744  C 12.619140625 5.31732515894641  13.06640625 5.2574931880109  13.55859375 5.2574931880109  C 14.89453125 5.2574931880109  15.96875 5.69561762034514  16.78125 6.57186648501362  Z " fill-rule="nonzero" fill="#f2f2f2" stroke="none" transform="matrix(1 0 0 1 160 9221 )" />
  </g>
</svg>