<?xml version="1.0" encoding="utf-8"?>
<svg version="1.1" xmlns:xlink="http://www.w3.org/1999/xlink" width="456px" height="47px" xmlns="http://www.w3.org/2000/svg">
  <defs>
    <filter x="460px" y="8407px" width="456px" height="47px" filterUnits="userSpaceOnUse" id="filter16">
      <feOffset dx="3" dy="3" in="SourceAlpha" result="shadowOffsetInner" />
      <feGaussianBlur stdDeviation="2.5" in="shadowOffsetInner" result="shadowGaussian" />
      <feComposite in2="shadowGaussian" operator="atop" in="SourceAlpha" result="shadowComposite" />
      <feColorMatrix type="matrix" values="0 0 0 0 0  0 0 0 0 0  0 0 0 0 0  0 0 0 0.211764705882353 0  " in="shadowComposite" />
    </filter>
    <g id="widget17">
      <path d="M 463 8414  A 4 4 0 0 1 467 8410 L 903 8410  A 4 4 0 0 1 907 8414 L 907 8441  A 4 4 0 0 1 903 8445 L 467 8445  A 4 4 0 0 1 463 8441 L 463 8414  Z " fill-rule="nonzero" fill="#ffffff" stroke="none" />
      <path d="M 462.5 8414  A 4.5 4.5 0 0 1 467 8409.5 L 903 8409.5  A 4.5 4.5 0 0 1 907.5 8414 L 907.5 8441  A 4.5 4.5 0 0 1 903 8445.5 L 467 8445.5  A 4.5 4.5 0 0 1 462.5 8441 L 462.5 8414  Z " stroke-width="1" stroke="#f2f2f2" fill="none" stroke-opacity="0.996078431372549" />
    </g>
  </defs>
  <g transform="matrix(1 0 0 1 -460 -8407 )">
    <use xlink:href="#widget17" filter="url(#filter16)" />
    <use xlink:href="#widget17" />
  </g>
</svg>