<?xml version="1.0" encoding="utf-8"?>
<svg version="1.1" xmlns:xlink="http://www.w3.org/1999/xlink" width="229px" height="47px" xmlns="http://www.w3.org/2000/svg">
  <defs>
    <filter x="460px" y="8454px" width="229px" height="47px" filterUnits="userSpaceOnUse" id="filter18">
      <feOffset dx="3" dy="3" in="SourceAlpha" result="shadowOffsetInner" />
      <feGaussianBlur stdDeviation="2.5" in="shadowOffsetInner" result="shadowGaussian" />
      <feComposite in2="shadowGaussian" operator="atop" in="SourceAlpha" result="shadowComposite" />
      <feColorMatrix type="matrix" values="0 0 0 0 0  0 0 0 0 0  0 0 0 0 0  0 0 0 0.211764705882353 0  " in="shadowComposite" />
    </filter>
    <g id="widget19">
      <path d="M 463 8461  A 4 4 0 0 1 467 8457 L 676 8457  A 4 4 0 0 1 680 8461 L 680 8488  A 4 4 0 0 1 676 8492 L 467 8492  A 4 4 0 0 1 463 8488 L 463 8461  Z " fill-rule="nonzero" fill="#ffffff" stroke="none" />
      <path d="M 462.5 8461  A 4.5 4.5 0 0 1 467 8456.5 L 676 8456.5  A 4.5 4.5 0 0 1 680.5 8461 L 680.5 8488  A 4.5 4.5 0 0 1 676 8492.5 L 467 8492.5  A 4.5 4.5 0 0 1 462.5 8488 L 462.5 8461  Z " stroke-width="1" stroke="#f2f2f2" fill="none" stroke-opacity="0.996078431372549" />
    </g>
  </defs>
  <g transform="matrix(1 0 0 1 -460 -8454 )">
    <use xlink:href="#widget19" filter="url(#filter18)" />
    <use xlink:href="#widget19" />
  </g>
</svg>