<?xml version="1.0" encoding="utf-8"?>
<svg version="1.1" xmlns:xlink="http://www.w3.org/1999/xlink" width="188px" height="44px" xmlns="http://www.w3.org/2000/svg">
  <defs>
    <filter x="593px" y="8672px" width="188px" height="44px" filterUnits="userSpaceOnUse" id="filter20">
      <feOffset dx="3" dy="3" in="SourceAlpha" result="shadowOffsetInner" />
      <feGaussianBlur stdDeviation="2.5" in="shadowOffsetInner" result="shadowGaussian" />
      <feComposite in2="shadowGaussian" operator="atop" in="SourceAlpha" result="shadowComposite" />
      <feColorMatrix type="matrix" values="0 0 0 0 0  0 0 0 0 0  0 0 0 0 0  0 0 0 0.211764705882353 0  " in="shadowComposite" />
    </filter>
    <g id="widget21">
      <path d="M 595.5 8679  A 4.5 4.5 0 0 1 600 8674.5 L 768 8674.5  A 4.5 4.5 0 0 1 772.5 8679 L 772.5 8703  A 4.5 4.5 0 0 1 768 8707.5 L 600 8707.5  A 4.5 4.5 0 0 1 595.5 8703 L 595.5 8679  Z " fill-rule="nonzero" fill="#fed318" stroke="none" fill-opacity="0" />
      <path d="M 595.5 8679  A 4.5 4.5 0 0 1 600 8674.5 L 768 8674.5  A 4.5 4.5 0 0 1 772.5 8679 L 772.5 8703  A 4.5 4.5 0 0 1 768 8707.5 L 600 8707.5  A 4.5 4.5 0 0 1 595.5 8703 L 595.5 8679  Z " stroke-width="1" stroke="#fbf6f6" fill="none" />
    </g>
  </defs>
  <g transform="matrix(1 0 0 1 -593 -8672 )">
    <use xlink:href="#widget21" filter="url(#filter20)" />
    <use xlink:href="#widget21" />
  </g>
</svg>