<!-- Generator: Adobe Illustrator 24.0.0, SVG Export Plug-In  -->
<svg version="1.1" xmlns="http://www.w3.org/2000/svg" xmlns:xlink="http://www.w3.org/1999/xlink" x="0px" y="0px" width="367.3px"
	 height="239.6px" viewBox="0 0 367.3 239.6" style="enable-background:new 0 0 367.3 239.6;" xml:space="preserve">
<style type="text/css">
	.st0{fill:#2881BB;}
</style>
<defs>
</defs>
<path class="st0" d="M0,224.5c0.9-4.1,1.6-8.2,2.7-12.2c9.4-33.5,40.7-55.2,75.3-52.3c2.7,0.2,5.4,0.8,8.7,1.3
	c-8.2,11.8-14.5,24-18.2,37.4c-3.6,13.3-6.1,26.7-3.6,40.8c-9.9,0-19.8,0-29.7,0c-8.1,0-16.2-0.2-24.4,0.1
	c-4.9,0.2-8.6-1.3-10.8-5.8C0,230.7,0,227.6,0,224.5z"/>
<path class="st0" d="M183.5,239.5c-31.1,0-62.2,0-93.2,0c-7.7,0-10.6-3-10.4-10.7c1.7-51.6,39.5-93.3,90.7-100.3
	c53.7-7.3,105.6,30.5,115,83.9c1,5.6,1.5,11.4,1.8,17.1c0.4,6.8-2.8,10-9.6,10C246.3,239.5,214.9,239.5,183.5,239.5z"/>
<path class="st0" d="M183.9,0c30.8,0.1,55.7,25.3,55.6,56.2c-0.1,30.7-25.4,55.8-56.2,55.6c-30.8-0.1-55.7-25.4-55.6-56.2
	C127.8,24.8,153-0.1,183.9,0z"/>
<path class="st0" d="M112.8,103.8c0,22.1-17.7,39.8-39.8,39.9c-22,0-40-17.8-40-39.8c0-21.9,18-39.9,39.9-40
	C95,63.8,112.8,81.7,112.8,103.8z"/>
<path class="st0" d="M335.3,103.9c-0.1,22.1-17.9,39.8-40,39.7c-22.1-0.1-39.9-18-39.8-40c0.1-21.9,18.1-39.9,40.1-39.8
	C317.5,63.9,335.4,81.9,335.3,103.9z"/>
<path class="st0" d="M302.8,239.5c2.3-28.9-5.9-54.3-22.1-78.1c2.8-0.5,5.3-1.1,7.8-1.4c40.9-4.7,78.7,29.1,78.8,70.2
	c0,5.5-2.8,9.2-7.8,9.2C340.4,239.6,321.4,239.5,302.8,239.5z"/>
</svg>
