<!-- Generator: Adobe Illustrator 24.0.0, SVG Export Plug-In  -->
<svg version="1.1" xmlns="http://www.w3.org/2000/svg" xmlns:xlink="http://www.w3.org/1999/xlink" x="0px" y="0px" width="383.1px"
	 height="374.7px" viewBox="0 0 383.1 374.7" style="enable-background:new 0 0 383.1 374.7;" xml:space="preserve">
<style type="text/css">
	.st0{fill:#030404;}
	.st1{fill:#2881BB;}
	.st2{fill:#655D65;}
	.st3{fill:#DCE7EC;}
	.st4{fill:#DDE8ED;}
	.st5{fill:#ADC8CD;}
	.st6{fill:#443F44;}
	.st7{fill:#B3CED3;}
	.st8{fill:#EFD844;}
	.st9{fill:#030503;}
	.st10{fill:#010101;}
</style>
<defs>
</defs>
<path class="st0" d="M383.1,323.6c0,7.2,0,14.5,0,21.7c-1.5,1-1.3,2.8-1.7,4.3c-5.1,15.5-18.8,25.1-36.3,25.1
	c-102.4,0-204.7,0-307.1,0c-1.1,0-2.2-0.1-3.4-0.1c-14.7-0.7-27.2-10-32.4-23.8c-2.3-6.2-2.3-12.7-2.2-19.2
	c0-11.1,0.2-11.5,11.3-11.2c3.8,0.1,4.4-1.1,4.4-4.6c-0.1-65.2-0.1-130.4-0.1-195.6c0-17.1,11.2-28.3,28.3-28.4c3.7,0,7.4,0,11.2,0
	C51.3,77.4,54.7,67.7,66,61.7c36-19.2,72-38.3,108.1-57.3c11.3-5.9,23-5.8,34.5-0.2c4.8,2.3,9.5,5,14.2,7.5c4.8,2.6,5.2,3.4,4.5,8.9
	c-2.9,3.2-6,3.3-9.6,1.1c-4.2-2.5-8.5-4.6-12.9-6.9c-9.1-4.7-18.1-4.4-27.2,0.4c-35.1,18.7-70.2,37.3-105.3,55.8
	c-4.6,2.4-7.7,5.7-7.7,10.9c0,5.4,3.1,8.7,7.9,11.2c35.2,18.5,70.3,37.2,105.4,55.8c8.3,4.4,16.8,5.3,25.4,1
	c8.6-4.3,17-8.9,25.5-13.3c3-1.5,0.9-2.7-0.1-3.9c-9.6-11-19.2-21.9-28.9-32.9c-4.1-4.7-8.3-9.3-12.3-14.1c-2.3-2.7-1.9-5.9,0.5-8
	c2.2-2,5.6-1.7,8.1,0.7c1.1,1,2,2.2,3,3.3c13.4,15.3,26.8,30.5,40.2,45.8c1.4,1.6,2.4,2.3,4.7,1.1c22.4-12,44.8-24,67.3-35.8
	c4.7-2.4,7.5-5.9,7.5-11.1c0-5.1-3-8.4-7.4-10.8c-23.5-12.4-46.9-24.8-70.4-37.3c-4.4-2.3-5.1-3.8-4.2-8.7c2.7-3.2,5.7-3.5,9.3-1.4
	c3.1,1.8,6.4,3.4,9.6,5.1C275.6,39.6,295.8,50.4,316,61c8.3,4.3,13.1,10.8,13.8,20.3c0.3,3.6-0.9,7-2,10.7c1.5,0,2.6,0,3.7,0
	c5.1,0.1,10.2-0.4,15.3,0.7c12.6,2.9,20.6,13.6,20.6,27.5c0,64.6,0,129.1,0,193.7c0,6.5,0,6.6,6.4,6.4
	C377.5,320.2,380.8,320.5,383.1,323.6z M268.6,135.1c0-2.1,0-4.1,0-6.7c-6.5,3.5-12.3,7-18.4,9.7c-3.9,1.8-5.6,4.1-4.5,8.2
	c0,13.6,0,27.1,0,41.2c11.3-5.9,18.3-14.5,21.5-26.1C269.6,152.8,268.5,143.9,268.6,135.1z M234.1,153.1c0-0.7,0.1-1.5,0.1-2.2
	c0-4.2,0-4.3-3.6-2.4c-6,3.1-11.9,6.2-17.8,9.6c-12.1,6.9-24.7,8.8-37.5,2.4c-14.4-7.2-28.4-15-42.6-22.5
	c-5.9-3.1-11.8-6.2-18.3-9.6c0.4,10.6-1,20.6,0.9,30.4c2.3,11.8,8.6,21.5,19.3,27.1c17.5,9.1,36.4,13,56.2,12.7
	c14,0.7,27.5-1.8,40.8-5.7c1.9-0.6,2.6-1.4,2.5-3.4C234.1,177.3,234.1,165.2,234.1,153.1z M50.2,363.2c1.6,0.1,3.2,0.3,4.8,0.3
	c96.5,0,193,0,289.5,0c2.6,0,5.3-0.1,7.8-0.6c12.7-2.9,19.7-13,19.7-27.9c0-2.4-0.3-3.4-3.1-3.4c-42.6,0.1-85.3,0.1-127.9,0
	c-2.2,0-3.2,0.6-3.8,2.8c-3.3,10.8-12.5,18.2-23.7,18.5c-14.6,0.4-29.2,0.4-43.7,0c-11-0.3-20.3-7.8-23.5-18.3
	c-0.8-2.7-2-3.1-4.4-3.1c-33.2,0.1-66.3,0-99.5,0.1c-1.1,0-2.2,0.1-3.3,0.2c-8.6-0.1-17.2-0.1-25.7-0.2c-1.1,0-1.8,0-2,1.5
	c-1.4,15.7,6.7,26.4,18.9,29.5C36.7,364.3,43.5,363.5,50.2,363.2z M27,312.4c-0.1,0.6-0.1,1.2-0.2,1.9c-0.1,6.1-0.1,6.1,6,6.1
	c105.3,0,210.7,0,316,0c7.9,0,7.9,0,7.3-8c0-0.6,0.1-1.2,0.1-1.9c0-63.7,0-127.4,0-191.1c0-0.5,0-1,0-1.5
	c-0.3-7.1-5.4-13.4-12.4-14.3c-9-1.2-18.2-0.3-27.3-0.4c-0.5,0-1,0.2-1.4,0.5c-8.6,4.6-17.3,9.1-26.1,13.8c1.4,1,2.7,0.6,3.8,0.6
	c13.2,0,26.4,0,39.6,0c7.5,0,8.8,1.3,8.8,8.6c0,56.6,0,113.2,0,169.8c0,7.7-1.3,8.9-8.9,8.9c-60,0-119.9,0-179.9,0
	c-17.1,0-34.2,0-51.2,0c-4.9,0-6.3-1.1-7.8-5.7c1.8-5.1,2.7-5.6,9.4-5.6c74.3,0,148.6,0,222.9,0.1c3.4,0,4.4-0.9,4.3-4.3
	c-0.2-13.1-0.1-26.2-0.1-39.3c0-39,0-78,0-117c0-2,0.7-4.2-2.9-4.2c-14.8,0.2-29.7,0.1-44.5,0c-2.4,0-2.9,0.9-2.8,3.1
	c0.1,5.2,0,10.5,0,15.7c0,23.7-10.5,40.7-32.1,50.8c-0.8,0.4-2.3,0.4-2.3,1.7c0.1,3.9-1.1,7.9,1.1,11.7c3.5,5.9,6.9,11.8,10.2,17.8
	c3.7,6.8,2.8,14.6-2.3,20.1c-3.8,4.1-8.7,5.3-14.2,5.5c-7.4,0.1-13.6-1.8-17.5-8.5c-3.9-6.7-2.7-13.1,1.2-19.4
	c3-4.8,5.5-9.8,8.5-14.5c1.9-3,1.9-5.9,1.4-9.2c-1.2,0.3-2.2,0.5-3.2,0.8c-32,8.6-63.4,7-94.1-5.4c-18.6-7.5-29.6-21.4-32.8-41.2
	c-1.4-8.4-0.5-16.9-0.6-25.4c0-2.5-0.7-3.4-3.3-3.4c-14.6,0.1-29.2,0.1-43.8,0c-2.3,0-3.2,0.5-3.2,3.1c0.1,52.9,0.1,105.7,0,158.6
	c0,2.5,0.9,3.1,3.2,3.1c6.5-0.1,13,0,19.4,0c3.9,0,6.4,1.6,7,5.7c-1.1,4.4-2.5,5.6-7,5.6c-8.7,0.1-17.5,0-26.2,0
	c-6,0-7.7-1.7-7.7-7.9c0-57.2,0-114.4,0-171.6c0-6.1,1.6-7.8,7.7-7.8c13.7,0,27.4,0,41.1,0c1,0,2.1,0.3,3.5-0.6
	c-2.9-1.5-5.6-2.6-8-4.3c-12.4-8.6-25.9-11.1-40.9-10.3c-10.7,0.5-18.6,6.6-18.5,18.8c0.3,62.2,0.1,124.4,0.2,186.6
	C26.9,309.6,26.9,311,27,312.4z M226.2,331.8c-23.2,0-46,0-68.8,0c2,5.6,6.4,9.6,12.1,9.8c14.8,0.5,29.6,0.6,44.4,0
	C219.7,341.3,223.6,337.5,226.2,331.8z M239.8,223c-2.6,4.5-5,8.5-7.2,12.6c-2.2,4.3,0.3,8.4,5,8.7c1.5,0.1,3,0.1,4.5,0
	c4.6-0.3,7.1-4.4,5-8.5C245,231.6,242.4,227.5,239.8,223z"/>
<path class="st1" d="M82.7,299.8c-0.5-4.1-3.1-5.7-7-5.7c-6.5,0-13-0.1-19.4,0c-2.4,0-3.2-0.6-3.2-3.1c0.1-52.9,0.1-105.7,0-158.6
	c0-2.5,0.9-3.1,3.2-3.1c14.6,0.1,29.2,0.1,43.8,0c2.7,0,3.3,0.8,3.3,3.4c0.1,8.5-0.8,17,0.6,25.4c3.2,19.8,14.2,33.8,32.8,41.2
	c30.7,12.3,62.2,14,94.1,5.4c1-0.3,1.9-0.5,3.2-0.8c0.5,3.3,0.5,6.2-1.4,9.2c-3,4.7-5.5,9.8-8.5,14.5c-3.9,6.3-5.1,12.7-1.2,19.4
	c3.9,6.7,10,8.7,17.5,8.5c5.5-0.1,10.4-1.3,14.2-5.5c5.1-5.5,6.1-13.3,2.3-20.1c-3.3-6-6.8-11.9-10.2-17.8
	c-2.2-3.8-0.9-7.8-1.1-11.7c0-1.2,1.4-1.3,2.3-1.7c21.5-10.1,32-27.1,32.1-50.8c0-5.2,0.1-10.5,0-15.7c0-2.1,0.4-3.1,2.8-3.1
	c14.8,0.1,29.7,0.1,44.5,0c3.6,0,2.9,2.1,2.9,4.2c0,39,0,78,0,117c0,13.1-0.1,26.2,0.1,39.3c0.1,3.4-0.9,4.3-4.3,4.3
	c-74.3-0.1-148.6-0.1-222.9-0.1c-6.7,0-7.6,0.5-9.4,5.6C89.9,299.7,86.3,299.8,82.7,299.8z M131.3,267.9c-17.1,0-34.1,0-51.2,0
	c-1.9,0-3.7,0-5.6,0.2c-2.9,0.3-4.5,2.2-4.8,5c-0.3,2.8,1.1,4.8,3.8,5.7c1.3,0.4,2.7,0.5,4,0.5c35.9,0,71.8,0,107.6,0
	c1.5,0,3-0.1,4.4-0.6c2.5-0.9,3.6-2.9,3.5-5.5c-0.2-2.5-1.5-4.2-3.9-4.8c-1.5-0.4-3.2-0.4-4.8-0.4
	C166.7,267.9,149,267.9,131.3,267.9z M113,255.5c12,0,23.9,0,35.9,0c4.7,0,7.1-2,7-5.8c-0.1-3.5-2.6-5.5-7-5.5c-24,0-48.1,0-72.1,0
	c-4.5,0-7.2,2.3-7.1,5.8c0.1,3.4,2.7,5.4,7.1,5.4C88.9,255.6,100.9,255.5,113,255.5z"/>
<path class="st2" d="M227.3,20.6c3.1,1.6,6.2,3.1,9.3,4.7c-0.9,4.8-0.2,6.3,4.2,8.7c23.4,12.4,46.9,24.9,70.4,37.3
	c4.4,2.3,7.4,5.7,7.4,10.8c0,5.2-2.8,8.7-7.5,11.1c-22.5,11.8-44.9,23.7-67.3,35.8c-2.3,1.2-3.3,0.4-4.7-1.1
	c-13.4-15.3-26.8-30.6-40.2-45.8c-1-1.1-1.9-2.3-3-3.3c-2.4-2.4-5.8-2.7-8.1-0.7c-2.4,2.1-2.7,5.3-0.5,8c4,4.8,8.2,9.4,12.3,14.1
	c9.6,11,19.3,21.9,28.9,32.9c1,1.1,3.1,2.3,0.1,3.9c-8.5,4.4-16.9,9-25.5,13.3c-8.6,4.3-17.1,3.5-25.4-1
	c-35.1-18.6-70.2-37.3-105.4-55.8c-4.8-2.5-7.8-5.9-7.9-11.2c0-5.3,3.2-8.5,7.7-10.9c35.1-18.5,70.3-37.2,105.3-55.8
	c9-4.8,18-5.1,27.2-0.4c4.3,2.2,8.7,4.4,12.9,6.9C221.3,23.9,224.4,23.8,227.3,20.6z"/>
<path class="st3" d="M82.7,299.8c3.6,0,7.3,0,10.9,0c1.4,4.6,2.8,5.7,7.8,5.7c17.1,0,34.2,0,51.2,0c60,0,119.9,0,179.9,0
	c7.6,0,8.9-1.3,8.9-8.9c0-56.6,0-113.2,0-169.8c0-7.3-1.3-8.6-8.8-8.6c-13.2,0-26.4,0-39.6,0c-1.2,0-2.4,0.4-3.8-0.6
	c8.8-4.7,17.5-9.3,26.1-13.8c0.4-0.2,0.9-0.5,1.4-0.5c9.1,0.1,18.2-0.8,27.3,0.4c7,0.9,12.1,7.2,12.4,14.3c0,0.5,0,1,0,1.5
	c0,63.7,0,127.4,0,191.1c0,0.6-0.1,1.2-0.1,1.9c-109.7,0-219.4,0-329.2,0c0-1.4-0.1-2.7-0.1-4.1c0-62.2,0.2-124.4-0.2-186.6
	c-0.1-12.3,7.8-18.3,18.5-18.8c15-0.7,28.5,1.7,40.9,10.3c2.4,1.7,5.1,2.8,8,4.3c-1.3,0.9-2.4,0.6-3.5,0.6c-13.7,0-27.4,0-41.1,0
	c-6.1,0-7.7,1.7-7.7,7.8c0,57.2,0,114.4,0,171.6c0,6.2,1.6,7.8,7.7,7.9c8.7,0,17.5,0,26.2,0C80.1,305.4,81.5,304.2,82.7,299.8z"/>
<path class="st4" d="M38.9,331.8c1.1-0.1,2.2-0.2,3.3-0.2c33.2,0,66.3,0,99.5-0.1c2.4,0,3.6,0.4,4.4,3.1c3.2,10.5,12.5,18,23.5,18.3
	c14.6,0.4,29.2,0.4,43.7,0c11.2-0.3,20.3-7.7,23.7-18.5c0.7-2.2,1.6-2.8,3.8-2.8c42.6,0.1,85.3,0.1,127.9,0c2.8,0,3.1,1,3.1,3.4
	c0,14.9-7,25-19.7,27.9c-2.5,0.6-5.2,0.6-7.8,0.6c-96.5,0-193,0-289.5,0c-1.6,0-3.2-0.2-4.8-0.3c-0.4-2.7-3-3.8-4.5-5.8
	C39.9,349.8,38.8,341,38.9,331.8z"/>
<path class="st5" d="M27,312.4c109.7,0,219.4,0,329.2,0c0.5,8,0.5,8-7.3,8c-105.3,0-210.7,0-316,0c-6.1,0-6.1,0-6-6.1
	C26.9,313.6,26.9,313,27,312.4z"/>
<path class="st6" d="M190.9,198.5c-19.8,0.4-38.7-3.6-56.2-12.7c-10.8-5.6-17-15.3-19.3-27.1c-2-9.8-0.5-19.8-0.9-30.4
	c6.4,3.4,12.4,6.5,18.3,9.6c14.2,7.5,28.3,15.3,42.6,22.5c12.8,6.4,25.3,4.5,37.5-2.4c5.9-3.3,11.8-6.4,17.8-9.6
	c3.6-1.9,3.7-1.9,3.6,2.4c0,0.7-0.1,1.5-0.1,2.2c-8.4,4.4-16.7,8.8-25.1,13.2c-11.2,5.9-22.4,6.7-33.8,0.3
	c-6.5-3.7-13.2-7-19.9-10.4c-0.7-0.4-1.6-1.2-2.3-0.4c-0.4,0.4-0.4,1.4-0.3,2.1c3.1,15.8,11.4,27.7,26.2,35
	C182.9,194.8,187.6,195.1,190.9,198.5z"/>
<path class="st2" d="M190.9,198.5c-3.3-3.3-8-3.6-11.9-5.6c-14.8-7.2-23.1-19.1-26.2-35c-0.1-0.7-0.1-1.7,0.3-2.1
	c0.8-0.8,1.6,0.1,2.3,0.4c6.6,3.4,13.4,6.7,19.9,10.4c11.4,6.5,22.6,5.6,33.8-0.3c8.4-4.4,16.7-8.8,25.1-13.2
	c0,12.1,0,24.2,0.1,36.3c0,2-0.7,2.8-2.5,3.4C218.4,196.7,204.9,199.2,190.9,198.5z"/>
<path class="st2" d="M268.6,135.1c-0.1,8.8,1,17.7-1.4,26.3c-3.2,11.6-10.2,20.2-21.5,26.1c0-14,0-27.6,0-41.2
	c1.9-0.9,3.8-1.8,5.7-2.6C257.2,141.1,262.4,137.1,268.6,135.1z"/>
<path class="st7" d="M226.2,331.8c-2.6,5.7-6.4,9.5-12.4,9.8c-14.8,0.6-29.6,0.5-44.4,0c-5.6-0.2-10.1-4.1-12.1-9.8
	C180.2,331.8,203,331.8,226.2,331.8z"/>
<path class="st8" d="M239.8,223c2.6,4.5,5.1,8.6,7.3,12.9c2.1,4.1-0.5,8.2-5,8.5c-1.5,0.1-3,0.1-4.5,0c-4.8-0.3-7.3-4.4-5-8.7
	C234.8,231.5,237.3,227.4,239.8,223z"/>
<path class="st6" d="M268.6,135.1c-6.2,2-11.3,6-17.2,8.6c-1.9,0.9-3.8,1.7-5.7,2.6c-1.1-4.1,0.6-6.5,4.5-8.2
	c6.2-2.8,12-6.3,18.4-9.7C268.6,131,268.6,133.1,268.6,135.1z"/>
<path class="st9" d="M131.3,267.9c17.7,0,35.4,0,53.1,0c1.6,0,3.3,0,4.8,0.4c2.4,0.6,3.8,2.3,3.9,4.8c0.2,2.7-0.9,4.7-3.5,5.5
	c-1.4,0.5-2.9,0.6-4.4,0.6c-35.9,0-71.8,0-107.6,0c-1.4,0-2.8-0.1-4-0.5c-2.7-0.8-4.1-2.9-3.8-5.7c0.3-2.7,1.9-4.6,4.8-5
	c1.9-0.2,3.7-0.2,5.6-0.2C97.2,267.9,114.2,267.9,131.3,267.9z"/>
<path class="st10" d="M113,255.5c-12.1,0-24.1,0-36.2,0c-4.4,0-7-2-7.1-5.4c-0.1-3.5,2.6-5.8,7.1-5.8c24,0,48.1,0,72.1,0
	c4.5,0,6.9,2,7,5.5c0.1,3.7-2.3,5.7-7,5.8C136.9,255.6,125,255.5,113,255.5z"/>
</svg>
