<!-- Generator: Adobe Illustrator 24.0.0, SVG Export Plug-In  -->
<svg version="1.1" xmlns="http://www.w3.org/2000/svg" xmlns:xlink="http://www.w3.org/1999/xlink" x="0px" y="0px" width="338.7px"
	 height="324.1px" viewBox="0 0 338.7 324.1" style="enable-background:new 0 0 338.7 324.1;" xml:space="preserve">
<style type="text/css">
	.st0{fill:#D59263;}
	.st1{fill:#2881BB;}
	.st2{fill:#FEAF11;}
	.st3{fill:#FD941A;}
	.st4{fill:#FEE0B7;}
	.st5{fill:#304C88;}
	.st6{fill:#FBD482;}
	.st7{fill:#B60A2C;}
	.st8{fill:#A00026;}
	.st9{fill:#03AF8E;}
	.st10{fill:#2A3E7C;}
	.st11{fill:#FEFEFE;}
	.st12{fill:#EBF2F8;}
	.st13{fill:#445D9F;}
	.st14{fill:#5FD782;}
</style>
<defs>
</defs>
<path class="st0" d="M318.1,236.5c5,0,10.1,0.2,15.1,0.1c2.2-0.1,4.1,0.4,5.5,2.1c0,5.3,0,10.6,0,15.9c-1.6,1.6-3.4,2.1-5.6,2
	c-10.7-0.1-21.4,0-32,0c-6.2,0-12.3,0-18.5,0c-13.2,0-26.4,0-39.7,0c-50,0-100.1,0-150.1,0c-13.2,0-26.4,0-39.7,0
	c-5.1,0-10.2,0-15.3,0c-10.9,0-21.8,0-32.7,0c-4,0-5-1-5-5.1c0-3.5,0.1-7,0-10.6c-0.1-3.1,1.4-4.5,4.4-4.5c5.9,0,11.9,0,17.8,0
	c1,0,2.2,0.6,3.1-0.6c0,0,0.2,0,0.2,0l0.2,0c3.3,1.5,6.7,0.5,10.1,0.6c16.1,0,32.2,0,48.3,0c3.5,0,7-0.1,10.5-0.1
	c16.1,0,32.2,0,48.2,0c2.4,0,4.8,0.1,7.2,0.1c14.2-0.1,28.3-0.1,42.5-0.2c16.7,0.1,33.4,0.1,50.1,0.2c12.6,0,25.2,0,37.8,0
	c3.3-0.1,6.6-0.1,9.9-0.2C299.6,236.5,308.8,236.5,318.1,236.5z"/>
<path class="st1" d="M63.5,39.3c24.2-20.7,52-33.7,83.6-37.8c48.4-6.2,91.5,6.6,128.7,38.4c13.7,11.7,24.9,25.5,33.8,41.1
	c-6,0.1-11.9,0.1-17.9,0.2c-3.8,0.3-7.9-1.5-11.3,1.6c-1.2-1-2.5-1.7-4.2-1.7c-9.8,0-19.6,0-29.4,0c-1.8,0-3.2,0.4-4.1,2.1
	c-1.1-1.7-2.8-2.2-4.8-2.2c-13.3,0-26.6,0-40-0.1c-2.2,0-4.1,0.5-5.4,2.4c-0.9-1.9-2.4-2.3-4.3-2.3c-13.6,0-27.2-0.1-40.8-0.1
	c-1.7,0-3.3,0.3-4.5,1.6c0-12.2-0.1-24.4-0.1-36.6c0-5.8-0.7-6.4-6.4-6.5c-13.5-0.2-27,0.4-40.5-0.3c-4,0.1-8.3-1.4-11.8,2
	c-1.3-1.5-2.9-1.7-4.8-1.7C74.1,39.5,68.8,39.4,63.5,39.3z"/>
<path class="st1" d="M92.7,256.6c50,0,100.1,0,150.1,0c1.5,10.3,2.9,20.6,4.6,30.9c0.8,4.9,0.7,10,2.6,14.7c-5.8,4.2-12.4,7-19,9.7
	c-14.1,5.9-28.9,9.8-44.1,11.3c-35.5,3.5-68.8-3.3-99.7-21.5c-0.2-0.1-0.4-0.2-0.6-0.3c0.6-4.4,1.1-8.9,1.7-13.3
	C89.8,277.6,91.8,267.1,92.7,256.6z"/>
<path class="st2" d="M63.5,39.3c5.3,0.1,10.5,0.2,15.8,0.2c1.8,0,3.5,0.2,4.8,1.7c0,25.8,0,51.6,0,77.4c0,39.3,0,78.7,0,118
	c-16.1,0-32.2,0-48.3,0c0-64.2,0-128.4-0.1-192.7c0-1.8,0.7-3.2,1.4-4.6C45.9,39.3,54.7,39.3,63.5,39.3z M51.7,56.2
	c-2.6,0-5.2,0-7.9-0.1c-2.3-0.1-3.2,1.1-3.2,3.2c0,3.2,0,6.3,0.1,9.5c0,7.1,0,14.3,0,21.4c0,8.4-0.1,16.7-0.1,25.1
	c0,11.6,0.1,23.1,0,34.7c0,3.1,1,4.5,4.2,4.3c2.3-0.2,4.6-0.1,6.9-0.2c4.4,0,8.8-0.1,13.2,0.1c3.1,0.2,4.3-0.9,4.2-4.1
	C69,130.1,69,110.2,69,90.3c0.6-7.3,0.6-14.5,0-21.8c0-3.1,0-6.1,0.1-9.2c0.1-2.4-0.9-3.4-3.3-3.3C61,56.2,56.4,56.1,51.7,56.2z
	 M59.6,199.7c-5.5-2.3-11.3-0.7-15,4c-3.5,4.4-3.4,11.2,0,15.6c3.7,4.7,9.4,6.3,15,4c5.4-2.1,8.1-6.2,8.1-11.9
	C67.7,205.9,64.9,201.9,59.6,199.7z"/>
<path class="st3" d="M37.1,39.3c-0.7,1.5-1.4,2.8-1.4,4.6c0.1,64.2,0.1,128.4,0.1,192.7c-3.4-0.2-6.8,0.9-10.1-0.6c0-49,0-98,0-147
	c0-0.5-0.1-1.1-0.2-1.6c0-13.9,0.1-27.9,0.1-41.8c0-5.5,0.7-6.3,6.2-6.3C33.6,39.1,35.4,39.2,37.1,39.3z"/>
<path class="st1" d="M25.6,87.3c0.1,0.5,0.2,1.1,0.2,1.6c0,49,0,98,0,147c0,0-0.2,0-0.2,0s-0.2,0-0.2,0
	c-9.9-19.2-15.6-39.6-17.3-61.2C5.5,143.9,11.5,114.8,25.6,87.3z"/>
<path class="st1" d="M318.2,98.4c5.1,10.6,8.2,21.8,10.3,33.2c5.9,31.6,2.8,62.4-9.4,92.2c-0.2,0.6-0.6,1.1-0.9,1.7
	c-0.1-0.3-0.1-0.7-0.2-1c0-3.7,0-7.4,0-11.1c0-35.1,0-70.1,0-105.2C318.1,105,318.1,101.7,318.2,98.4z"/>
<path class="st4" d="M250.1,302.2c-1.9-4.7-1.8-9.8-2.6-14.7c-1.7-10.3-3.1-20.6-4.6-30.9c13.2,0,26.4,0,39.7,0
	c-0.6,8.2-2.1,16.3-3.4,24.4c-5.8,6.3-12.7,11.1-19.7,15.8C256.5,298.8,253.7,301.2,250.1,302.2z M258,270.6c0,1.3,0,2.6,0,4
	c0.1,2.9,2.2,5.1,4.9,5.1c2.5,0,4.7-2,4.9-4.8c0.2-2.7,0.2-5.5,0-8.2c-0.2-2.8-2.4-4.8-5-4.8c-2.7,0-4.8,2.2-4.9,5.1
	C257.9,268.2,258,269.4,258,270.6z"/>
<path class="st4" d="M92.7,256.6c-0.9,10.6-2.9,21-4.3,31.6c-0.6,4.4-1.2,8.9-1.7,13.3c-11-6.7-21.7-14-30.4-23.7
	c-1.1-7-2.1-14.1-3.2-21.1C66.3,256.6,79.5,256.6,92.7,256.6z M68.2,270.5c0,1.4,0,2.9,0,4.3c0.1,2.9,1.9,4.5,4.5,4.8
	c2.8,0.3,4.8-1.3,5.2-4c0.4-3.1,0.4-6.4,0-9.5c-0.3-2.7-2.3-4.2-5.1-4.2c-2.6,0.1-4.5,2.2-4.6,5C68.1,268.1,68.2,269.3,68.2,270.5z"
	/>
<path class="st5" d="M291.7,81.2c6-0.1,11.9-0.1,17.9-0.2c7.6,0.4,8.6-1.5,8.4,9.2c0,2.3,0,4.6,0,6.8c-9.2,0-18.4-0.1-27.7-0.1
	c0-1.9-0.1-3.7,0-5.6C290.6,88,289.6,84.4,291.7,81.2z"/>
<path class="st6" d="M290.4,97c9.2,0,18.4,0.1,27.7,0.1c0,0.4,0.1,0.8,0.1,1.3c-0.1,3.3-0.1,6.6-0.2,9.9c-9.2,0.1-18.4,0.1-27.6,0.2
	c-3.3-0.1-6.7-0.1-10-0.2c0-3.7,0-7.4,0-11c0,0,0-0.2,0-0.2c0.2,0,0.5,0,0.7,0C284.2,97,287.3,97,290.4,97z"/>
<path class="st5" d="M318.1,224.5c0.1,0.3,0.1,0.7,0.2,1c-0.1,3.7-0.1,7.3-0.2,11c-9.2,0-18.4,0-27.7-0.1c0-3.9,0-7.9,0-11.8
	C299.6,224.6,308.8,224.6,318.1,224.5z"/>
<path class="st1" d="M279.2,281c1.2-8.1,2.8-16.2,3.4-24.4c6.2,0,12.3,0,18.5,0C294.6,265.5,287.5,273.8,279.2,281z"/>
<path class="st1" d="M53.1,256.6c1.1,7,2.1,14.1,3.2,21.1c-7.1-6.2-13-13.5-18.5-21.1C42.9,256.6,48,256.6,53.1,256.6z"/>
<path class="st7" d="M95.9,39.2c13.5,0.7,27,0.2,40.5,0.3c5.7,0.1,6.4,0.7,6.4,6.5c0,12.2,0.1,24.4,0.1,36.6c0,2-0.1,4-0.1,5.9
	c0,31.7,0.1,63.4,0.1,95.1c0,12.8,0,25.6,0,38.5c0,4.8-0.1,9.6-0.1,14.3c-16.1,0-32.2,0-48.2,0c0-63.7,0-127.3,0-191
	C94.6,43.3,94.7,41.1,95.9,39.2z M127.5,68.6c0-3.1,0-6.1,0.1-9.2c0-2.3-0.9-3.4-3.3-3.4c-4.8,0.1-9.6,0.1-14.4,0.1
	c-2.6,0-5.2-0.1-7.9-0.1c-1.9,0-2.8,0.8-2.8,2.8c0.1,3.3,0.1,6.6,0.1,9.9c0,7.1,0,14.3,0,21.4c0,2-0.1,4-0.1,5.9
	c0,18.1,0,36.3-0.1,54.4c0,2.9,0.9,4.1,3.8,3.9c2.3-0.2,4.6-0.1,6.9-0.2c4.8,0,9.7,0,14.5,0.1c2.5,0.1,3.3-1.1,3.3-3.4
	c-0.1-20.2-0.1-40.4-0.1-60.6C127.8,82.9,127.8,75.8,127.5,68.6z M117.8,223.5c5.4-2.3,8.7-6.8,8.4-12.1c-0.3-5.6-3-9.8-8.4-11.8
	c-5.2-2.7-12,0.4-14.6,4c-3.5,4.8-3.5,11.2,0,15.9C106,223.4,113,226.2,117.8,223.5z"/>
<path class="st8" d="M95.9,39.2c-1.3,1.9-1.3,4.1-1.3,6.3c0,63.7,0,127.3,0,191c-3.5,0-7,0.1-10.5,0.1c0-39.3,0-78.7,0-118
	c0-25.8,0-51.6,0-77.4C87.6,37.8,91.9,39.3,95.9,39.2z"/>
<path class="st9" d="M242.7,236.6c-16.7-0.1-33.4-0.1-50.1-0.2c0-4.7-0.1-9.5-0.1-14.2c0,0,0.2,0,0.2,0c16.7,0,33.3,0,50,0
	c0.1,0.7,0.2,1.3,0.2,2C242.9,228.3,242.8,232.5,242.7,236.6z"/>
<path class="st10" d="M192.5,222.2c0,4.7,0.1,9.5,0.1,14.2c-14.2,0.1-28.3,0.2-42.5,0.2c-2.4,0-4.8-0.1-7.2-0.1
	c0-4.8,0.1-9.6,0.1-14.3C159.4,222.2,176,222.2,192.5,222.2z"/>
<path class="st3" d="M242.7,236.6c0.1-4.1,0.1-8.3,0.2-12.4c12.5,0.2,24.9,0.7,37.4,0.1c0,0.1,0,0.3,0.1,0.4c0,4,0.1,7.9,0.1,11.9
	C267.9,236.6,255.3,236.6,242.7,236.6z"/>
<path class="st10" d="M280.5,236.6c0-4-0.1-7.9-0.1-11.9c3.4-0.4,6.7-0.3,10.1-0.1c0,3.9,0,7.9,0,11.8
	C287.1,236.5,283.8,236.6,280.5,236.6z"/>
<path class="st9" d="M192.6,83.4c1.3-1.9,3.2-2.4,5.4-2.4c13.3,0.1,26.6,0.1,40,0.1c2,0,3.7,0.4,4.8,2.2c0.1,4.6,0.1,9.2,0.2,13.8
	c0,3.7,0,7.3,0,11c0,1.4-0.1,2.8-0.1,4.3c0,23.6-0.1,47.2-0.1,70.8c-16.7,0-33.3,0-50,0c0-1-0.1-2-0.1-3
	C192.6,147.9,192.6,115.7,192.6,83.4z M223.7,122.3c0-4.8-0.1-9.7,0-14.5c0.1-3.1-1.4-4.4-4.4-4.5c-1.1,0-2.2,0-3.3,0
	c-2.8,0.1-4.2,1.5-4.2,4.3c0,9.7,0,19.4,0,29c0,2.8,1.3,4.3,4.2,4.2c1.1,0,2.2,0,3.3,0c3.1,0.1,4.4-1.4,4.3-4.4
	C223.6,131.8,223.7,127,223.7,122.3z M223.7,155.9c0-6.4-0.2-6.6-6.7-6.6c-0.3,0-0.7,0-1,0c-2.5-0.1-4.3,1.1-4.1,3.6
	c0.2,3.2-2,7.5,2.4,9.4C220.2,164.7,223.7,162.1,223.7,155.9z"/>
<path class="st10" d="M192.6,83.4c0,32.2,0,64.5,0,96.7c0,1,0.1,2,0.1,3c-0.1,0.2-0.2,0.4-0.2,0.6c-16.5,0-33,0-49.5,0
	c0-31.7-0.1-63.4-0.1-95.1c0-2,0.1-4,0.1-5.9c1.2-1.3,2.8-1.6,4.5-1.6c13.6,0.1,27.2,0.1,40.8,0.1C190.2,81.2,191.7,81.6,192.6,83.4
	z M173.6,122.3c0-4.9,0-9.9,0-14.8c0-2.7-1.3-4.1-4-4.2c-1.3-0.1-2.6-0.1-4,0c-2.5,0.1-3.9,1.4-3.9,4c0,9.9,0,19.8,0,29.7
	c0,2.7,1.4,4,4.2,3.9c1.1,0,2.2-0.1,3.3,0c3.1,0.2,4.4-1.4,4.4-4.4C173.5,131.8,173.6,127.1,173.6,122.3z M173.6,156.1
	c0-6.6-0.2-6.8-7-6.7c-0.1,0-0.2,0-0.3,0c-2.4-0.1-4.5,0.6-4.4,3.3c0.1,3.3-2,7.5,2.1,9.6C169.5,164.9,173.6,162.1,173.6,156.1z"/>
<path class="st3" d="M243,97.2c-0.1-4.6-0.1-9.2-0.2-13.8c0.9-1.7,2.3-2.1,4.1-2.1c9.8,0,19.6,0.1,29.4,0c1.7,0,3,0.7,4.2,1.7
	c0,4.5,0.1,9.1,0.1,13.6c-0.1,0.2-0.1,0.3-0.2,0.5c0,0,0,0.2,0,0.2C267.9,97.2,255.4,97.2,243,97.2z"/>
<path class="st10" d="M280.5,96.5c0-4.5-0.1-9.1-0.1-13.6c3.4-3.1,7.5-1.3,11.3-1.6c-2.2,3.2-1.1,6.8-1.3,10.2c-0.1,1.9,0,3.7,0,5.6
	c-3.1,0-6.2,0-9.3,0C280.9,96.8,280.7,96.7,280.5,96.5z"/>
<path class="st11" d="M69,90.3c0,19.9,0,39.8,0.1,59.7c0,3.2-1.1,4.3-4.2,4.1c-4.4-0.2-8.8-0.1-13.2-0.1c-1.4-3.8-0.4-7.8-0.7-11.7
	c2.4,0,4.8,0,7.2-0.1c3.2-0.1,3.5-2.3,3.5-4.8c0-2.6,0.2-5.3-3.5-5.5c-2.4-0.1-4.8-0.1-7.2-0.1c0-2.1,0-4.1,0-6.2
	c2.2,0,4.4,0,6.6-0.1c3.3-0.1,4.1-1,4.1-4.9c0-4.3-0.8-5.4-4.2-5.6c-2.2-0.1-4.4-0.1-6.6-0.1c0-8.2,0-16.4,0-24.5
	C57,90.5,63,90.4,69,90.3z"/>
<path class="st5" d="M69,90.3c-6,0.1-12,0.1-18,0.2c-3.5-0.1-6.9-0.3-10.4-0.4c0-7.1,0-14.3,0-21.4c3.5-0.1,6.9-0.2,10.4-0.3
	c6,0.1,12,0.1,18,0.2C69.6,75.8,69.6,83.1,69,90.3z"/>
<path class="st12" d="M40.6,90.1c3.5,0.1,6.9,0.3,10.4,0.4c0,8.2,0,16.4,0,24.5c-4.1,2.5-4.1,8.4,0,10.6c0,2.1,0,4.1,0,6.2
	c-2.7,0.8-2.9,2.9-2.9,5.2c0,2.3,0.1,4.5,2.9,5.2c0.3,3.9-0.7,7.9,0.7,11.7c-2.3,0.1-4.6,0-6.9,0.2c-3.2,0.3-4.3-1.2-4.2-4.3
	c0.1-11.6,0-23.1,0-34.7C40.5,106.9,40.6,98.5,40.6,90.1z"/>
<path class="st12" d="M59.6,223.4c-5.5,2.3-11.2,0.7-15-4c-3.5-4.4-3.5-11.2,0-15.6c3.7-4.7,9.5-6.3,15-4c-0.3,0.8-1.1,1-1.7,1.5
	c-4.9,3.6-6.6,9.3-4.6,14.8C54.4,219.3,57.1,221.3,59.6,223.4z"/>
<path class="st11" d="M59.6,223.4c-2.5-2.1-5.1-4.1-6.3-7.4c-2-5.5-0.3-11.2,4.6-14.8c0.6-0.5,1.4-0.7,1.7-1.5
	c5.3,2.2,8.1,6.2,8.1,11.9C67.7,217.2,64.9,221.3,59.6,223.4z"/>
<path class="st11" d="M69,68.5c-6-0.1-12-0.1-18-0.2c0.2-4.1-0.6-8.2,0.6-12.2c4.7,0,9.4,0,14.1-0.1c2.4-0.1,3.4,0.9,3.3,3.3
	C68.9,62.4,69,65.5,69,68.5z"/>
<path class="st12" d="M51.7,56.2c-1.2,4-0.5,8.1-0.6,12.2c-3.5,0.1-6.9,0.2-10.4,0.3c0-3.2-0.1-6.3-0.1-9.5c0-2.1,1-3.2,3.2-3.2
	C46.4,56.1,49,56.1,51.7,56.2z"/>
<path class="st5" d="M290.4,108.4c9.2-0.1,18.4-0.1,27.6-0.2c0,35.1,0,70.1,0,105.2c-9.2-0.1-18.4-0.1-27.6-0.2
	C290.4,178.3,290.4,143.4,290.4,108.4z M299.3,165.3c-6.5,0-7,0.4-7,6.5c0,7,0.3,7.4,6.4,7.4c7.2,0,7.5-0.3,7.5-6.7
	C306.2,165.7,305.8,165.3,299.3,165.3z M306.2,195.1c0-6.2-0.5-6.7-6.8-6.7c-6.8,0-7.2,0.3-7.2,6.6c0,7,0.3,7.3,6.8,7.3
	C305.7,202.2,306.2,201.7,306.2,195.1z"/>
<path class="st6" d="M290.4,213.2c9.2,0.1,18.4,0.1,27.6,0.2c0,3.7,0,7.4,0,11.1c-9.2,0-18.4,0.1-27.6,0.1
	c-3.4-0.2-6.7-0.3-10.1,0.1c-0.1-0.1-0.1-0.3-0.1-0.4c0.1-3.6,0.2-7.2,0.2-10.8C283.8,213.4,287.1,213.3,290.4,213.2z"/>
<path class="st0" d="M258,270.6c0-1.2,0-2.4,0-3.6c0.1-2.9,2.2-5.1,4.9-5.1c2.5,0,4.8,2,5,4.8c0.2,2.7,0.2,5.5,0,8.2
	c-0.2,2.8-2.4,4.8-4.9,4.8c-2.7,0-4.8-2.2-4.9-5.1C257.9,273.2,258,271.9,258,270.6z"/>
<path class="st0" d="M68.2,270.5c0-1.2,0-2.4,0-3.6c0.1-2.8,2-5,4.6-5c2.8-0.1,4.8,1.5,5.1,4.2c0.4,3.1,0.4,6.4,0,9.5
	c-0.3,2.7-2.4,4.3-5.2,4c-2.6-0.3-4.4-1.8-4.5-4.8C68.1,273.4,68.2,271.9,68.2,270.5z"/>
<path class="st10" d="M290.4,213.2c-3.3,0.1-6.6,0.2-9.9,0.3c0,0,0-0.1,0-0.1c-0.1-0.4-0.2-0.9-0.2-1.3c0-34.6,0-69.2,0.1-103.8
	l-0.1-0.1c3.3,0.1,6.7,0.1,10,0.2C290.4,143.4,290.4,178.3,290.4,213.2z"/>
<path class="st11" d="M243,97.2c12.5,0,25,0.1,37.5,0.1c0,3.7,0,7.4,0,11c0,0,0.1,0.1,0.1,0.1c-12.5-0.1-25-0.1-37.5-0.2
	C242.9,104.5,242.9,100.8,243,97.2z"/>
<path class="st5" d="M280.5,96.5c0.2,0.2,0.4,0.3,0.6,0.5c-0.2,0-0.5,0-0.7,0C280.4,96.8,280.5,96.7,280.5,96.5z"/>
<path class="st13" d="M142.9,183.7c16.5,0,33,0,49.5,0c0.1,12.8,0.1,25.6,0.2,38.4c0,0-0.2,0-0.2,0c-16.5,0-33,0-49.5-0.1
	C142.9,209.3,142.9,196.5,142.9,183.7z"/>
<path class="st11" d="M127.5,90.1c0,20.2,0.1,40.4,0.1,60.6c0,2.3-0.8,3.5-3.3,3.4c-4.8-0.1-9.7-0.1-14.5-0.1
	c-1.4-3.9-0.4-7.8-0.7-11.8c2.5,0,5,0.1,7.5-0.1c3.3-0.1,3.6-2.5,3.6-5.1c0-2.6-0.3-5-3.6-5.1c-2.5-0.1-5,0-7.5-0.1
	c0-1.4,0-2.8,0-4.3c2.3,0,4.6,0,6.9,0c3.2-0.1,4.1-1.3,4.2-5c0-4-0.9-5.3-4.1-5.4c-2.3-0.1-4.6,0-6.9,0c0-9,0-18-0.1-27.1
	c6-0.1,11.9-0.2,17.9-0.3C127.2,90.1,127.3,90.2,127.5,90.1z"/>
<path class="st12" d="M109.2,90.2c0,9,0,18,0.1,27.1c-3.9,2.5-4,7.9-0.1,10.4c0,1.4,0,2.8,0,4.3c-3.9,2.5-3.9,7.9,0,10.3
	c0.3,3.9-0.7,7.9,0.7,11.8c-2.3,0.1-4.6,0-6.9,0.2c-2.9,0.2-3.8-1-3.8-3.9c0.1-18.1,0-36.3,0.1-54.4c0-2,0.1-4,0.1-5.9
	C102.6,90.1,105.9,90.2,109.2,90.2z"/>
<path class="st5" d="M109.2,90.2c-3.3,0-6.6-0.1-9.9-0.1c0-7.1,0-14.3,0-21.4c3.3-0.1,6.6-0.1,9.9-0.2c5.9,0.1,11.9,0.2,17.8,0.3
	c0,7.1,0,14.1,0,21.2C121.1,90,115.2,90.1,109.2,90.2z"/>
<path class="st11" d="M117.8,199.6c5.5,2,8.1,6.2,8.4,11.8c0.3,5.4-3,9.8-8.4,12.1c-1-0.9-2-1.7-2.9-2.6c-4.3-4.3-5.3-9-3.3-14.3
	C112.8,203.5,115.7,201.9,117.8,199.6z"/>
<path class="st12" d="M117.8,199.6c-2.1,2.3-5,3.8-6.2,7c-2,5.3-1.1,10,3.3,14.3c0.9,0.9,1.9,1.7,2.9,2.6c-4.8,2.7-11.8-0.1-14.7-4
	c-3.5-4.7-3.5-11.1,0-15.9C105.8,200,112.6,196.9,117.8,199.6z"/>
<path class="st11" d="M127.1,68.7c-5.9-0.1-11.9-0.2-17.8-0.3c0.2-4.1-0.6-8.3,0.6-12.3c4.8,0,9.6,0,14.4-0.1
	c2.4-0.1,3.4,1.1,3.3,3.4c-0.1,3.1-0.1,6.1-0.1,9.2C127.3,68.6,127.2,68.6,127.1,68.7z"/>
<path class="st12" d="M109.9,56.2c-1.3,4.1-0.5,8.2-0.6,12.3c-3.3,0.1-6.6,0.1-9.9,0.2c0-3.3,0-6.6-0.1-9.9c-0.1-2,0.9-2.8,2.8-2.8
	C104.6,56.1,107.2,56.1,109.9,56.2z"/>
<path class="st13" d="M127.1,68.7c0.1-0.1,0.3-0.2,0.5-0.1c0.3,7.2,0.3,14.3,0,21.5c-0.2,0.1-0.3,0-0.5-0.2
	C127.1,82.9,127.1,75.8,127.1,68.7z"/>
<path class="st14" d="M192.7,222.2c-0.1-12.8-0.1-25.6-0.2-38.4c0.1-0.2,0.2-0.4,0.2-0.6c16.7,0,33.3,0,50,0
	c0.1,10.1,0.2,20.2,0.3,30.4c-0.1,2.9-0.2,5.8-0.3,8.6C226,222.2,209.4,222.2,192.7,222.2z"/>
<path class="st11" d="M242.7,222.2c0.1-2.9,0.2-5.8,0.3-8.6c12.5,0,25.1-0.1,37.6-0.1c0,0,0,0.1,0,0.1c-0.1,3.6-0.2,7.2-0.2,10.8
	c-12.5,0.5-24.9,0-37.4-0.1C242.9,223.5,242.8,222.9,242.7,222.2z"/>
<path class="st3" d="M280.6,213.4c-12.5,0-25.1,0.1-37.6,0.1c-0.1-10.1-0.2-20.3-0.3-30.4c0-23.6,0.1-47.2,0.1-70.8
	c0-1.4,0.1-2.8,0.1-4.3c12.5,0.1,25,0.1,37.5,0.2c0,34.6,0,69.2-0.1,103.8C280.4,212.5,280.5,213,280.6,213.4z M261.9,202.2
	c6,0,6.6-0.6,6.6-6.6c0-7.2-0.1-7.3-6.8-7.3c-6.9,0-7.1,0.2-7.1,7C254.7,201.9,255.1,202.2,261.9,202.2z M261.6,179.2
	c6.5,0,6.9-0.4,6.9-6.5c0-6.9-0.4-7.4-6.5-7.4c-7.1,0-7.4,0.3-7.4,6.7C254.7,178.9,255,179.2,261.6,179.2z"/>
<path class="st11" d="M223.7,122.3c0,4.7-0.1,9.5,0,14.2c0.1,3-1.2,4.5-4.3,4.4c-1.1,0-2.2,0-3.3,0c-2.9,0.1-4.2-1.4-4.2-4.2
	c0-9.7,0-19.4,0-29c0-2.8,1.4-4.3,4.2-4.3c1.1,0,2.2,0,3.3,0c2.9,0,4.4,1.4,4.4,4.5C223.6,112.6,223.7,117.5,223.7,122.3z"/>
<path class="st11" d="M223.7,155.9c0,6.2-3.5,8.7-9.3,6.3c-4.4-1.8-2.2-6.1-2.4-9.4c-0.2-2.5,1.6-3.7,4.1-3.6c0.3,0,0.7,0,1,0
	C223.4,149.3,223.7,149.5,223.7,155.9z"/>
<path class="st11" d="M173.6,122.3c0,4.7,0,9.5,0,14.2c0,3-1.3,4.5-4.4,4.4c-1.1-0.1-2.2,0-3.3,0c-2.7,0.1-4.1-1.2-4.2-3.9
	c0-9.9,0-19.8,0-29.7c0-2.5,1.4-3.8,3.9-4c1.3-0.1,2.6-0.1,4,0c2.7,0.1,4,1.4,4,4.2C173.5,112.4,173.6,117.4,173.6,122.3z"/>
<path class="st11" d="M173.6,156.1c0,6-4.1,8.8-9.5,6.1c-4.1-2.1-2-6.3-2.1-9.6c-0.1-2.7,2-3.4,4.4-3.3c0.1,0,0.2,0,0.3,0
	C173.3,149.3,173.6,149.5,173.6,156.1z"/>
<path class="st5" d="M51,125.7c-4.1-2.3-4.1-8.1,0-10.6c2.2,0,4.4,0,6.6,0.1c3.4,0.2,4.2,1.3,4.2,5.6c0,3.8-0.8,4.8-4.1,4.9
	C55.4,125.7,53.2,125.7,51,125.7z"/>
<path class="st5" d="M51,142.3c-2.8-0.7-2.9-2.9-2.9-5.2c0-2.3,0.1-4.5,2.9-5.2c2.4,0,4.8,0,7.2,0.1c3.7,0.2,3.5,2.9,3.5,5.5
	c0,2.5-0.3,4.7-3.5,4.8C55.8,142.3,53.4,142.3,51,142.3z"/>
<path class="st6" d="M299.3,165.3c6.5,0,7,0.5,7,7.3c0,6.3-0.4,6.7-7.5,6.7c-6.1,0-6.4-0.3-6.4-7.4
	C292.3,165.7,292.8,165.3,299.3,165.3z"/>
<path class="st6" d="M306.2,195.1c0,6.7-0.5,7.2-7.1,7.2c-6.5,0-6.8-0.3-6.8-7.3c0-6.3,0.3-6.6,7.2-6.6
	C305.7,188.3,306.2,188.8,306.2,195.1z"/>
<path class="st5" d="M109.2,127.7c-3.9-2.5-3.9-8,0.1-10.4c2.3,0,4.6-0.1,6.9,0c3.2,0.2,4.2,1.5,4.1,5.4c0,3.7-1,4.9-4.2,5
	C113.8,127.7,111.5,127.7,109.2,127.7z"/>
<path class="st5" d="M109.2,142.3c-3.9-2.5-3.9-7.9,0-10.3c2.5,0,5-0.1,7.5,0.1c3.3,0.2,3.6,2.5,3.6,5.1c0,2.6-0.3,5-3.6,5.1
	C114.2,142.3,111.7,142.3,109.2,142.3z"/>
<path class="st11" d="M261.9,202.2c-6.9,0-7.3-0.4-7.3-6.9c0-6.8,0.2-7,7.1-7c6.6,0,6.8,0.2,6.8,7.3
	C268.6,201.6,268,202.2,261.9,202.2z"/>
<path class="st11" d="M261.6,179.2c-6.7,0-7-0.3-6.9-7.2c0-6.5,0.3-6.7,7.4-6.7c6.1,0,6.5,0.4,6.5,7.4
	C268.6,178.8,268.2,179.2,261.6,179.2z"/>
</svg>
