<?xml version="1.0" encoding="utf-8"?>
<svg version="1.1" xmlns:xlink="http://www.w3.org/1999/xlink" width="57px" height="60px" xmlns="http://www.w3.org/2000/svg">
  <g transform="matrix(1 0 0 1 -248 -4369 )">
    <path d="M 17 43.1919642857143  L 17 54.6428571428571  L 27 48.2142857142857  L 27 37.7008928571429  L 17 43.1919642857143  Z M 4.50551470588235 33.6495535714286  L 15.0882352941176 39.4419642857143  L 25.6709558823529 33.6495535714286  L 15.0882352941176 27.8571428571429  L 4.50551470588235 33.6495535714286  Z M 43 43.1919642857143  L 43 54.6428571428571  L 53 48.2142857142857  L 53 37.7008928571429  L 43 43.1919642857143  Z M 31.3290441176471 33.6495535714286  L 41.9117647058824 39.4419642857143  L 52.4944852941176 33.6495535714286  L 41.9117647058824 27.8571428571429  L 31.3290441176471 33.6495535714286  Z M 30.1764705882353 20.6919642857143  L 30.1764705882353 29.6316964285714  L 40.2352941176471 24.1071428571429  L 40.2352941176471 15.2008928571429  L 30.1764705882353 20.6919642857143  Z M 16.9480698529412 10.6138392857143  L 28.5 16.9419642857143  L 40.0519301470588 10.6138392857143  L 28.5 4.28571428571428  L 16.9480698529412 10.6138392857143  Z M 56.4499080882353 31.9419642857143  C 56.8166360294118 32.65625  57 33.4375  57 34.2857142857143  L 57 48.2142857142857  C 57 49.0178571428571  56.8340992647059 49.765625  56.5022977941176 50.4575892857143  C 56.1704963235294 51.1495535714286  55.7164522058824 51.6741071428571  55.1401654411765 52.03125  L 43.4048713235294 59.53125  C 42.9682904411765 59.84375  42.4705882352941 60  41.9117647058824 60  C 41.3529411764706 60  40.8552389705882 59.84375  40.4186580882353 59.53125  L 28.6833639705882 52.03125  C 28.6135110294118 51.9866071428571  28.5523897058824 51.9419642857143  28.5 51.8973214285714  C 28.4650735294118 51.9419642857143  28.4039522058824 51.9866071428571  28.3166360294118 52.03125  L 16.5813419117647 59.53125  C 16.1447610294118 59.84375  15.6470588235294 60  15.0882352941176 60  C 14.5294117647059 60  14.0317095588235 59.84375  13.5951286764706 59.53125  L 1.85983455882353 52.03125  C 1.28354779411765 51.6741071428571  0.829503676470588 51.1495535714286  0.497702205882353 50.4575892857143  C 0.165900735294118 49.765625  0 49.0178571428571  0 48.2142857142857  L 0 34.2857142857143  C 0 33.4375  0.187729779411765 32.65625  0.563189338235294 31.9419642857143  C 0.938648897058824 31.2276785714286  1.43198529411765 30.6919642857143  2.04319852941176 30.3348214285714  L 14 24.1071428571429  L 14 10.7142857142857  C 13.4117647058824 9.86607142857142  13.5994944852941 9.08482142857143  13.9749540441176 8.37053571428572  C 14.3504136029412 7.65625  14.84375 7.12053571428571  15.4549632352941 6.76339285714286  L 27.1902573529412 0.334821428571426  C 27.5919117647059 0.111607142857151  28.0284926470588 0  28.5 0  C 28.9715073529412 0  29.4080882352941 0.111607142857151  29.8097426470588 0.334821428571426  L 41.5450367647059 6.76339285714286  C 42.15625 7.12053571428571  42.6495863970588 7.65625  43.0250459558824 8.37053571428572  C 43.4005055147059 9.08482142857143  43.5882352941176 9.86607142857142  43 10.7142857142857  L 43 24.1071428571429  L 54.9568014705882 30.3348214285714  C 55.5854779411765 30.6919642857143  56.0831801470588 31.2276785714286  56.4499080882353 31.9419642857143  Z " fill-rule="nonzero" fill="#2881bb" stroke="none" transform="matrix(1 0 0 1 248 4369 )" />
  </g>
</svg>