<?xml version="1.0" encoding="utf-8"?>
<svg version="1.1" xmlns:xlink="http://www.w3.org/1999/xlink" width="60px" height="56px" xmlns="http://www.w3.org/2000/svg">
  <g transform="matrix(1 0 0 1 -1044 -4371 )">
    <path d="M 25.65625 33.7399204997161  C 27.21875 32.1499148211244  28 30.231307968957  28 27.9840999432141  C 28 25.7368919174711  27.21875 23.8182850653038  25.65625 22.2282793867121  C 24.09375 20.6382737081204  22.2083333333333 19.8432708688245  20 19.8432708688245  C 17.7916666666667 19.8432708688245  15.90625 20.6382737081204  14.34375 22.2282793867121  C 12.78125 23.8182850653038  12 25.7368919174711  12 27.9840999432141  C 12 30.231307968957  12.78125 32.1499148211244  14.34375 33.7399204997161  C 15.90625 35.3299261783078  17.7916666666667 36.1249290176036  20 36.1249290176036  C 22.2083333333333 36.1249290176036  24.09375 35.3299261783078  25.65625 33.7399204997161  Z M 50.828125 47.1436683702442  C 51.609375 46.3486655309483  52 45.3893621048647  52 44.2657580919932  C 52 43.1633541548363  51.6041666666667 42.2093507476812  50.8125 41.4037478705281  C 50.0208333333333 40.598144993375  49.0833333333333 40.1953435547984  48 40.1953435547984  C 46.9166666666667 40.1953435547984  45.9791666666667 40.598144993375  45.1875 41.4037478705281  C 44.3958333333333 42.2093507476812  44 43.1633541548363  44 44.2657580919932  C 44 45.3893621048647  44.390625 46.3486655309483  45.171875 47.1436683702442  C 45.953125 47.93867120954  46.8958333333333 48.336172629188  48 48.336172629188  C 49.1041666666667 48.336172629188  50.046875 47.93867120954  50.828125 47.1436683702442  Z M 50.828125 14.580352072686  C 51.609375 13.7853492333901  52 12.8260458073065  52 11.702441794435  C 52 10.6000378572781  51.6041666666667 9.64603445012303  50.8125 8.84043157296991  C 50.0208333333333 8.03482869581677  49.0833333333333 7.6320272572402  48 7.6320272572402  C 46.9166666666667 7.6320272572402  45.9791666666667 8.03482869581677  45.1875 8.84043157296991  C 44.3958333333333 9.64603445012303  44 10.6000378572781  44 11.702441794435  C 44 12.8260458073065  44.390625 13.7853492333901  45.171875 14.580352072686  C 45.953125 15.3753549119818  46.8958333333333 15.7728563316298  48 15.7728563316298  C 49.1041666666667 15.7728563316298  50.046875 15.3753549119818  50.828125 14.580352072686  Z M 39.78125 24.4701873935264  C 39.9270833333333 24.6503880371001  40 24.8570887753171  40 25.0902896081772  L 40 30.9733106189665  C 40 31.1853113761121  39.9270833333333 31.392012114329  39.78125 31.5934128336173  C 39.6354166666667 31.7948135529055  39.46875 31.906113950407  39.28125 31.9273140261215  L 34.4375 32.6905167518455  C 34.2083333333333 33.432519401855  33.875 34.2381222790081  33.4375 35.1073253833049  C 34.1458333333333 36.1249290176036  35.0833333333333 37.3439333711906  36.25 38.7643384440659  C 36.3958333333333 38.997539276926  36.46875 39.2095400340716  36.46875 39.4003407155026  C 36.46875 39.6547416240772  36.3958333333333 39.8561423433655  36.25 40.0045428733674  C 35.7708333333333 40.6405451448041  34.9114583333333 41.5892485330305  33.671875 42.8506530380466  C 32.4322916666667 44.1120575430627  31.6145833333333 44.7427597955707  31.21875 44.7427597955707  C 30.9895833333333 44.7427597955707  30.7708333333333 44.6685595305698  30.5625 44.5201590005679  L 26.96875 41.6581487791028  C 26.1979166666667 42.0609502176793  25.3958333333333 42.389551391255  24.5625 42.6439522998296  C 24.3333333333333 44.9335604770017  24.09375 46.5765663448798  23.84375 47.5729699034639  C 23.6979166666667 48.0817717206133  23.3854166666667 48.336172629188  22.90625 48.336172629188  L 17.09375 48.336172629188  C 16.8645833333333 48.336172629188  16.65625 48.2566723452584  16.46875 48.0976717773992  C 16.28125 47.93867120954  16.1770833333333 47.7531705470377  16.15625 47.5411697898921  L 15.4375 42.6757524134015  C 14.7291666666667 42.4637516562559  13.9479166666667 42.1351504826803  13.09375 41.6899488926746  L 9.40625 44.5201590005679  C 9.26041666666667 44.6685595305698  9.05208333333333 44.7427597955707  8.78125 44.7427597955707  C 8.55208333333333 44.7427597955707  8.33333333333333 44.6579594927125  8.125 44.488358886996  C 5.125 41.6687488169601  3.625 39.9727427597956  3.625 39.4003407155026  C 3.625 39.2095400340716  3.69791666666667 39.0081393147833  3.84375 38.7961385576377  C 4.05208333333333 38.4993374976339  4.47916666666667 37.9375354911982  5.125 37.1107325383305  C 5.77083333333333 36.2839295854628  6.26041666666667 35.6373272761688  6.59375 35.1709256104486  C 6.11458333333333 34.2381222790081  5.75 33.3689191747113  5.5 32.5633162975582  L 0.75 31.8001135718342  C 0.541666666666667 31.7789134961196  0.364583333333333 31.6782131364755  0.21875 31.4980124929018  C 0.0729166666666667 31.317811849328  0 31.1111111111111  0 30.877910278251  L 0 24.9948892674617  C 0 24.7828885103161  0.0729166666666667 24.5761877720992  0.21875 24.3747870528109  C 0.364583333333333 24.1733863335226  0.53125 24.0620859360212  0.71875 24.0408858603066  L 5.5625 23.2776831345826  C 5.79166666666667 22.5356804845732  6.125 21.73007760742  6.5625 20.8608745031232  C 5.85416666666667 19.8432708688245  4.91666666666667 18.6242665152375  3.75 17.2038614423623  C 3.60416666666667 16.9706606095022  3.53125 16.7586598523566  3.53125 16.5678591709256  C 3.53125 16.3134582623509  3.60416666666667 16.1014575052054  3.75 15.9318568994889  C 4.20833333333333 15.2958546280522  5.0625 14.3524512587545  6.3125 13.1016467915957  C 7.5625 11.8508423244369  8.38541666666667 11.2254400908575  8.78125 11.2254400908575  C 9.01041666666667 11.2254400908575  9.22916666666667 11.2996403558584  9.4375 11.4480408858603  L 13.03125 14.3100511073254  C 13.7395833333333 13.9284497444634  14.5416666666667 13.5892485330305  15.4375 13.2924474730267  C 15.6666666666667 11.0028392958546  15.90625 9.3704334658338  16.15625 8.39522998296422  C 16.3020833333333 7.88642816581488  16.6145833333333 7.6320272572402  17.09375 7.6320272572402  L 22.90625 7.6320272572402  C 23.1354166666667 7.6320272572402  23.34375 7.71152754116979  23.53125 7.87052810902896  C 23.71875 8.02952867688813  23.8229166666667 8.21502933939049  23.84375 8.42703009653606  L 24.5625 13.2924474730267  C 25.2708333333333 13.5044482301722  26.0520833333333 13.8330494037479  26.90625 14.2782509937535  L 30.59375 11.4480408858603  C 30.7604166666667 11.2996403558584  30.96875 11.2254400908575  31.21875 11.2254400908575  C 31.4479166666667 11.2254400908575  31.6666666666667 11.3102403937157  31.875 11.4798409994321  C 34.875 14.2994510694681  36.375 15.9954571266326  36.375 16.5678591709256  C 36.375 16.7374597766421  36.3020833333333 16.9388604959303  36.15625 17.1720613287905  C 35.90625 17.5112625402233  35.46875 18.0836645845164  34.84375 18.8892674616695  C 34.21875 19.6948703388226  33.75 20.3308726102593  33.4375 20.7972742759796  C 33.9166666666667 21.8148779102782  34.2708333333333 22.684081014575  34.5 23.40488358887  L 39.25 24.1362862010221  C 39.4583333333333 24.1786863524513  39.6354166666667 24.2899867499527  39.78125 24.4701873935264  Z M 55.34375 41.0539466212379  C 58.4479166666667 41.3719477569563  60 41.7005489305319  60 42.0397501419648  L 60 46.4917660420216  C 60 46.8309672534545  58.4479166666667 47.1595684270301  55.34375 47.4775695627484  C 55.09375 48.0499716070415  54.78125 48.6011735756199  54.40625 49.1311754684838  C 55.46875 51.5267840242287  56 52.989589248533  56 53.5195911413969  C 56 53.6043914442552  55.9583333333333 53.6785917092561  55.875 53.7421919363998  C 53.3333333333333 55.2473973121333  52.0416666666667 56  52 56  C 51.8333333333333 56  51.3541666666667 55.5017982207079  50.5625 54.5053946621238  C 49.7708333333333 53.5089911035397  49.2291666666667 52.7881885292447  48.9375 52.3429869392391  C 48.5208333333333 52.3853870906682  48.2083333333333 52.4065871663827  48 52.4065871663827  C 47.7916666666667 52.4065871663827  47.4791666666667 52.3853870906682  47.0625 52.3429869392391  C 46.7708333333333 52.7881885292447  46.2291666666667 53.5089911035397  45.4375 54.5053946621238  C 44.6458333333333 55.5017982207079  44.1666666666667 56  44 56  C 43.9583333333333 56  42.6666666666667 55.2473973121333  40.125 53.7421919363998  C 40.0416666666667 53.6785917092561  40 53.6043914442552  40 53.5195911413969  C 40 52.989589248533  40.53125 51.5267840242287  41.59375 49.1311754684838  C 41.21875 48.6011735756199  40.90625 48.0499716070415  40.65625 47.4775695627484  C 37.5520833333333 47.1595684270301  36 46.8309672534545  36 46.4917660420216  L 36 42.0397501419648  C 36 41.7005489305319  37.5520833333333 41.3719477569563  40.65625 41.0539466212379  C 40.9270833333333 40.4391444255158  41.2395833333333 39.8879424569373  41.59375 39.4003407155026  C 40.53125 37.0047321597577  40 35.5419269354533  40 35.0119250425894  C 40 34.9271247397312  40.0416666666667 34.8529244747303  40.125 34.7893242475866  C 40.2083333333333 34.7469240961575  40.5729166666667 34.5349233390119  41.21875 34.1533219761499  C 41.8645833333333 33.7717206132879  42.4791666666667 33.4113193261404  43.0625 33.0721181147076  C 43.6458333333333 32.7329169032746  43.9583333333333 32.5633162975582  44 32.5633162975582  C 44.1666666666667 32.5633162975582  44.6458333333333 33.0562180579216  45.4375 34.0420215786485  C 46.2291666666667 35.0278250993754  46.7708333333333 35.7433276547416  47.0625 36.1885292447473  C 47.4791666666667 36.1461290933182  47.7916666666667 36.1249290176036  48 36.1249290176036  C 48.2083333333333 36.1249290176036  48.5208333333333 36.1461290933182  48.9375 36.1885292447473  C 50 34.6833238690138  50.9583333333333 33.4961196289987  51.8125 32.6269165247019  L 52 32.5633162975582  C 52.0833333333333 32.5633162975582  53.375 33.3053189475677  55.875 34.7893242475866  C 55.9583333333333 34.8529244747303  56 34.9271247397312  56 35.0119250425894  C 56 35.5419269354533  55.46875 37.0047321597577  54.40625 39.4003407155026  C 54.7604166666667 39.8879424569373  55.0729166666667 40.4391444255158  55.34375 41.0539466212379  Z M 55.34375 8.49063032367973  C 58.4479166666667 8.80863145939807  60 9.13723263297369  60 9.47643384440659  L 60 13.9284497444634  C 60 14.2676509558963  58.4479166666667 14.5962521294719  55.34375 14.9142532651902  C 55.09375 15.4866553094832  54.78125 16.0378572780617  54.40625 16.5678591709256  C 55.46875 18.9634677266705  56 20.4262729509748  56 20.9562748438387  C 56 21.0410751466969  55.9583333333333 21.1152754116979  55.875 21.1788756388416  C 53.3333333333333 22.684081014575  52.0416666666667 23.4366837024418  52 23.4366837024418  C 51.8333333333333 23.4366837024418  51.3541666666667 22.9384819231497  50.5625 21.9420783645656  C 49.7708333333333 20.9456748059814  49.2291666666667 20.2248722316865  48.9375 19.7796706416809  C 48.5208333333333 19.82207079311  48.2083333333333 19.8432708688245  48 19.8432708688245  C 47.7916666666667 19.8432708688245  47.4791666666667 19.82207079311  47.0625 19.7796706416809  C 46.7708333333333 20.2248722316865  46.2291666666667 20.9456748059814  45.4375 21.9420783645656  C 44.6458333333333 22.9384819231497  44.1666666666667 23.4366837024418  44 23.4366837024418  C 43.9583333333333 23.4366837024418  42.6666666666667 22.684081014575  40.125 21.1788756388416  C 40.0416666666667 21.1152754116979  40 21.0410751466969  40 20.9562748438387  C 40 20.4262729509748  40.53125 18.9634677266705  41.59375 16.5678591709256  C 41.21875 16.0378572780617  40.90625 15.4866553094832  40.65625 14.9142532651902  C 37.5520833333333 14.5962521294719  36 14.2676509558963  36 13.9284497444634  L 36 9.47643384440659  C 36 9.13723263297369  37.5520833333333 8.80863145939807  40.65625 8.49063032367973  C 40.9270833333333 7.8758281279576  41.2395833333333 7.32462615937914  41.59375 6.83702441794435  C 40.53125 4.4414158621995  40 2.97861063789513  40 2.44860874503123  C 40 2.36380844217301  40.0416666666667 2.28960817717206  40.125 2.22600795002839  C 40.2083333333333 2.18360779859927  40.5729166666667 1.97160704145372  41.21875 1.59000567859171  C 41.8645833333333 1.2084043157297  42.4791666666667 0.848003028582237  43.0625 0.508801817149347  C 43.6458333333333 0.169600605716445  43.9583333333333 0  44 0  C 44.1666666666667 0  44.6458333333333 0.492901760363427  45.4375 1.47870528109029  C 46.2291666666667 2.46450880181715  46.7708333333333 3.18001135718342  47.0625 3.6252129471891  C 47.4791666666667 3.58281279575998  47.7916666666667 3.56161272004543  48 3.56161272004543  C 48.2083333333333 3.56161272004543  48.5208333333333 3.58281279575998  48.9375 3.6252129471891  C 50 2.12000757145561  50.9583333333333 0.932803331440466  51.8125 0.0636002271436684  L 52 0  C 52.0833333333333 0  53.375 0.742002650009461  55.875 2.22600795002839  C 55.9583333333333 2.28960817717206  56 2.36380844217301  56 2.44860874503123  C 56 2.97861063789513  55.46875 4.4414158621995  54.40625 6.83702441794435  C 54.7604166666667 7.32462615937914  55.0729166666667 7.8758281279576  55.34375 8.49063032367973  Z " fill-rule="nonzero" fill="#2881bb" stroke="none" transform="matrix(1 0 0 1 1044 4371 )" />
  </g>
</svg>