<!-- Generator: Adobe Illustrator 24.0.0, SVG Export Plug-In  -->
<svg version="1.1" xmlns="http://www.w3.org/2000/svg" xmlns:xlink="http://www.w3.org/1999/xlink" x="0px" y="0px" width="337.9px"
	 height="383.8px" viewBox="0 0 337.9 383.8" style="enable-background:new 0 0 337.9 383.8;" xml:space="preserve">
<style type="text/css">
	.st0{fill:#040404;}
	.st1{fill:#D5E8FA;}
	.st2{fill:#2881BB;}
	.st3{fill:#D6EAFC;}
	.st4{fill:#BEDBF6;}
	.st5{fill:#72CBED;}
	.st6{fill:#D7EBFD;}
	.st7{fill:#060607;}
	.st8{fill:#FC636E;}
	.st9{fill:#F54553;}
	.st10{fill:#030400;}
	.st11{fill:#95D428;}
	.st12{fill:#88C326;}
</style>
<defs>
</defs>
<path class="st0" d="M62.7,383.8c-2.3-1.7-5.1-1.4-7.7-2.1c-31-7.7-52.6-33.9-54.9-66.8c-2.1-29.9,17.2-59.5,46.1-70.6
	c3.3-1.3,4.1-2.8,4.1-6.1c-0.1-63.4-0.1-126.9-0.1-190.3c0-1.7,0-3.5,0.3-5.2c0.7-4.2,3.8-7.2,8-7.6c1.6-0.2,3.2-0.1,4.9-0.1
	c50.4,0,100.7-0.1,151.1,0.1c3.8,0,4.9-1.3,5.3-4.6c0.4-3.5,1-6.9,1.7-10.3c1-5.6,4.1-8,9.7-7.4c5,0.5,9.9,1.2,14.8,2.1
	c2.2,0.4,3.7-0.2,5.3-1.7c4.6-4.5,8.8-9.4,14.2-13.1c1.7,0,3.5,0,5.2,0c4.5,4.2,9.1,8.3,13.4,12.7c2,2.1,3.9,2.5,6.6,2
	c4.6-0.9,9.3-1.5,14.1-2c5.4-0.5,8.4,1.9,9.4,7.3c0.9,4.9,1.9,9.8,2.6,14.7c0.3,1.9,1.1,3,2.8,3.9c4.3,2.2,8.6,4.5,12.8,6.8
	c5.4,3,6.7,6.6,4.1,12.1c-2.5,5.3-6.9,10.5-6.9,15.8c0,5.1,4.4,10.3,6.9,15.5c2.6,5.5,1.4,9.3-3.9,12.2c-4.1,2.3-8.2,4.7-12.5,6.6
	c-2.2,1-3.1,2.5-3.4,4.8c-0.7,4.7-1.6,9.3-2.4,14c-1.1,5.8-4.6,8.3-10.4,7.4c-0.4-0.1-0.7-0.1-1.1-0.2c-3.2-0.9-4.4-0.1-4.3,3.6
	c0.2,16.4,0.1,32.7,0.1,49.1c0,4.2,0.2,8.4-4.3,10.7c-4.4,2.3-7.9,0.2-11.1-2.9c-0.8,1.2-0.5,2.3-0.5,3.3c0,12.5,0,25,0,37.5
	c0,4.9-1.1,6.3-5.8,7.7c-4.1-0.9-5.6-3.5-5.5-7.6c0.2-8.6,0.1-17.2,0.1-25.8c0-7.5-0.1-15,0.1-22.4c0-2.2-1-3.5-2.6-4.6
	c-1.9-1.3-2.7,0.7-3.6,1.5c-4.5,3.6-8.9,7.2-13.2,11c-2.6,2.3-5.3,3.6-8.8,3.1c-0.3,0-0.6,0-1-0.1c-0.7-0.5-1.4-1-2.2-1.5
	c-2.2-2.3-3-5-2.9-8.2c0.1-2.6-0.2-5.3,0.1-7.9c0.3-3.2-0.6-4.1-4-4.1c-42.9,0.1-85.8,0.1-128.6,0.1c-3.2,0-6.5,0.1-9.7,0.1
	c-1-0.1-2-0.1-2.9-0.2c-3.3-0.3-5.4-2.3-5.4-5.3c0-3.4,1.9-5.2,5-5.8c1.1-0.2,2.2-0.2,3.3-0.2c1.4,0,2.7,0.1,4.1,0.1
	c42.6,0,85.3,0,127.9,0c3.3,0,8,1.5,9.6-0.6c1.7-2.2,0.5-6.7,0.7-10.1c0.1-2.1-0.8-2.5-2.6-2.4c-6.7,0.1-13.5,0-20.2,0
	c-3,0-6,0.1-9,0c-3.9-0.2-6.1-2.3-6.1-5.6c0-3.3,2.3-5.4,6.1-5.6c0.9,0,1.7,0,2.6,0c8.7,0,17.5,0,26.2,0c1,0,2.5,0.7,2.9-1.3
	c1.1-4.9,0-6.3-4.9-5.5c-4.7,0.8-8-0.3-9.5-3.8c-1.1-2.6-2.7-2.6-4.9-2.6c-21.4,0-42.9,0-64.3,0c-5.4,0-8-1.8-8.1-5.6
	c-0.1-3.8,2.5-5.7,7.9-5.7c12.6,0,25.2,0,37.8,0c8.6,0,17.2,0,25.8,0c0.9,0,2.7,0.8,2.5-1.1c-0.4-2.8,0-5.9-3.8-7.4
	c-3.6-1.4-6.8-3.5-10.2-5.3c-7.5-4-8-5.1-6.6-13.7c-1.4,0-2.8,0-4.1,0c-23.6,0-47.1,0-70.7,0c-1.1,0-2.3,0.1-3.4-0.1
	c-2.6-0.4-4.3-2-4.7-4.6c-0.4-2.8,0.8-4.8,3.4-6c1.6-0.7,3.2-0.5,4.8-0.5c25.8,0,51.6,0,77.4,0c4.6,0,6.1-2.4,4-6.7
	c-1.7-3.6-3.3-7.3-5.3-10.7c-2.5-4.6-3.7-9,1.1-13.6c-2,0-3.4,0-4.7,0c-32.5,0-65.1,0-97.6,0c-1.4,0-2.7,0.1-4.1,0.2
	c-9.7-0.1-19.4,0-29.1-0.3c-3.4-0.1-4.3,0.8-4.3,4.3c0.1,61.8,0.1,123.7,0.1,185.5c0,0.6,0.1,1.3,0,1.9c-0.2,1.9,0.6,2.4,2.4,2.2
	c10.5-1.3,20.8,0.1,31,2.9c5.3,2.7,10.7,3.9,16.8,3.9c42-0.2,84-0.1,126-0.1c1.2,0,2.5-0.1,3.7,0.1c3.1,0.6,4.9,2.5,4.8,5.7
	c-0.1,3.2-1.9,5-5.1,5.4c-1.1,0.1-2.2,0-3.4,0c-37.7,0-75.3,0-113,0c-1.3,0-2.6,0-4.5,0c4.2,4.1,7.6,7.7,10.4,11.9
	c0.9,1.4,2,1.6,3.5,1.5c5.6,0,11.2,0,16.8,0c4.5,0,6.9,1.9,7,5.5c0.1,3.6-2.5,5.7-7.2,5.8c-4.1,0-8.2,0-12.5,0
	c1.1,3.4,2.4,6.5,3.1,9.8c0.6,2.9,2,3.6,4.8,3.6c30.5-0.1,61.1-0.1,91.6-0.1c1.4,0,2.8,0,4.1,0.2c2.7,0.5,4.1,2.3,4.3,5
	c0.2,2.8-1.1,4.9-3.9,5.6c-1.5,0.4-3.2,0.4-4.8,0.4c-18.2,0-36.4,0-54.6,0c-12,0-23.9,0-35.9,0c-1.2,0-3-0.8-2.9,1.6
	c0.4,7.8-0.8,15.4-2.7,23c0.7,0.1,1.2,0.2,1.7,0.2c41.8,0,83.5,0,125.3,0.1c2.8,0,2.9-1.2,2.9-3.4c0-21.2,0-42.5-0.1-63.7
	c0-4.1,1.4-6.7,5.5-7.6c4.7,1.4,5.8,2.8,5.8,7.7c0,22.1,0,44.2,0,66.3c0,8.3-3.5,11.8-11.8,11.9c-43.2,0-86.5,0-129.7-0.1
	c-2.9,0-5,0.5-5.9,3.5c-0.4,1.2-1.2,2.2-1.9,3.2c-2.6,4.2-4.3,4.7-9,3.1c-2.9-3-2.4-6-0.3-9.4c9.6-15.9,11.7-32.9,6.1-50.7
	c-7.8-24.5-32-42.6-56-41.9c-3.7-0.8-7.5-0.2-11.1,0.4c-34.7,5.7-56.9,37.8-50.3,72.4C18,352.4,46,374.5,74,372.4
	c11.2-0.1,21.4-3.4,30.7-9.4c3.2-2.1,6.1-2.3,9.1,0.2c1.8,4.9,1.2,6.6-3,9.3c-9.1,5.7-19,9.5-29.7,10.6c-0.5,0.1-1,0.1-1.1,0.7
	C74.2,383.8,68.5,383.8,62.7,383.8z M266.3,146.5c-3.6-1-5.6-4-8.2-6.3c-3-2.8-6-5.7-9.4-8.9c0,17.7,0,34.4,0,51.6
	c1.9-1.5,3.3-2.8,4.7-3.9c4.3-3.2,7.7-7.5,12.8-9.6c3.3-0.3,6,1,8.4,3.2c3.9,3.4,8,6.7,12.2,10.2c0-17.3,0-34,0-50.8
	c-0.4-0.3-0.9-0.7-1.3-1c-3.6,4-7.1,8-10.7,12C272.6,145.6,269.8,146.9,266.3,146.5z M301.5,122.2c1.5,0.4,2.2-0.2,2.5-2
	c0.6-4.2,1.5-8.3,2.1-12.5c0.6-4.1,2.6-6.8,6.3-8.6c3.7-1.8,7.2-3.9,10.9-5.7c1.9-0.9,2.2-1.8,1.2-3.6c-1.9-3.5-3.4-7.2-5.3-10.7
	c-2.2-3.8-2.3-7.4-0.1-11.3c1.9-3.3,3.2-7,5.1-10.4c1.4-2.4,0.7-3.4-1.5-4.4c-3.8-1.8-7.5-3.9-11.2-5.9c-2.8-1.5-4.6-3.7-5.1-6.9
	c-0.7-4.6-1.7-9.1-2.4-13.6c-0.3-1.9-0.8-2.4-2.8-2.1c-4.6,0.8-9.4,1.3-14.1,1.9c-2.9,0.4-5.4-0.5-7.5-2.6c-3.3-3.2-6.7-6.3-9.9-9.7
	c-1.4-1.4-2.2-1.4-3.5,0c-2.8,2.9-5.8,5.5-8.5,8.4c-3,3.3-6.4,4.4-10.7,3.6c-4-0.7-8.2-1-12.2-1.8c-2-0.4-2.6,0.2-2.9,2.1
	c-0.6,4.3-1.5,8.6-2.2,12.9c-0.5,3.5-2.2,6-5.3,7.6c-3.9,2-7.6,4.2-11.6,6.1c-2.2,1-2.3,2.1-1.2,4c1.9,3.5,3.4,7.2,5.3,10.7
	c2.1,3.8,2,7.3-0.1,11c-1.9,3.5-3.4,7.2-5.3,10.7c-1.2,2.1-0.6,3,1.3,3.9c3.7,1.8,7.2,3.9,10.9,5.7c3.6,1.7,5.5,4.4,6,8.4
	c0.5,4.1,1.6,8.1,2.1,12.2c0.3,2.5,1.4,2.7,3.5,2.4c4.2-0.7,8.4-1.2,12.6-1.9c3.3-0.6,6.1,0.2,8.5,2.6c3.1,3.1,6.4,6,9.4,9.1
	c1.6,1.7,2.7,2,4.4,0.1c2.9-3.1,6.1-5.9,9.1-8.9c2.6-2.6,5.5-3.5,9.2-2.9C292.6,121.1,296.9,121.5,301.5,122.2z"/>
<path class="st1" d="M243.2,198c3.5,0.5,6.2-0.9,8.8-3.1c4.3-3.8,8.7-7.4,13.2-11c1-0.8,1.8-2.8,3.6-1.5c1.6,1.1,2.6,2.3,2.6,4.6
	c-0.2,7.5-0.1,15-0.1,22.4c0,8.6,0.1,17.2-0.1,25.8c-0.1,4.1,1.4,6.7,5.5,7.6c0,4.9,0,9.7,0,14.6c-4.1,0.9-5.5,3.5-5.5,7.6
	c0.1,21.2,0,42.5,0.1,63.7c0,2.1-0.1,3.4-2.9,3.4c-41.8-0.1-83.5-0.1-125.3-0.1c-0.5,0-1-0.1-1.7-0.2c1.9-7.6,3.1-15.2,2.7-23
	c-0.1-2.4,1.7-1.6,2.9-1.6c12,0,23.9,0,35.9,0c18.2,0,36.4,0,54.6,0c1.6,0,3.3,0,4.8-0.4c2.8-0.7,4-2.8,3.9-5.6
	c-0.2-2.6-1.6-4.5-4.3-5c-1.3-0.3-2.7-0.2-4.1-0.2c-30.5,0-61.1-0.1-91.6,0.1c-2.8,0-4.2-0.6-4.8-3.6c-0.7-3.2-2-6.4-3.1-9.8
	c4.3,0,8.4,0,12.5,0c4.6,0,7.2-2.2,7.2-5.8c-0.1-3.5-2.4-5.4-7-5.5c-5.6,0-11.2,0-16.8,0c-1.4,0-2.6-0.2-3.5-1.5
	c-2.8-4.2-6.2-7.7-10.4-11.9c1.9,0,3.2,0,4.5,0c37.7,0,75.3,0,113,0c1.1,0,2.3,0.1,3.4,0c3.2-0.4,5-2.2,5.1-5.4
	c0.1-3.2-1.8-5.1-4.8-5.7c-1.2-0.2-2.5-0.1-3.7-0.1c-42,0-84-0.1-126,0.1c-6,0-11.5-1.1-16.8-3.9c0-3.1,0-6.2,0-9.4
	c1.4,0,2.7-0.1,4.1-0.1c25.9,0,51.9,0,77.8,0c1.5,0,3,0,4.5-0.2c2.7-0.4,4.2-2.2,4.4-4.9c0.2-2.8-1-4.9-3.7-5.7
	c-1.4-0.4-2.9-0.4-4.4-0.4c-23.6,0-47.1,0-70.7,0c-4,0-8-0.1-11.9-0.2c0-4.3,0-8.5,0-12.8c1.5-0.1,3-0.2,4.5-0.2
	c46.5,0,93,0,139.5,0c3,0,5.9-0.4,7.1-3.6C247.2,202.3,245.8,199.8,243.2,198z M205.3,271.3c-11.3,0-22.7,0-34,0
	c-4.5,0-6.9,1.9-7,5.4c-0.1,3.6,2.5,5.8,7.1,5.9c22.7,0,45.4,0,68,0c4.6,0,7.2-2.2,7-5.9c-0.1-3.5-2.5-5.4-7.1-5.4
	C227.9,271.3,216.6,271.3,205.3,271.3z M218.7,233.4c7,0,14,0,20.9,0c4.4,0,6.8-2.2,6.7-5.8c-0.1-3.4-2.5-5.4-6.7-5.5
	c-13.7,0-27.4,0-41.1,0c-4.2,0-6.6,2.1-6.7,5.5c-0.1,3.5,2.3,5.7,6.7,5.8C205.3,233.5,212,233.4,218.7,233.4z"/>
<path class="st2" d="M74,251c23.9-0.7,48.2,17.4,56,41.9c5.6,17.8,3.5,34.7-6.1,50.7c-2.1,3.4-2.6,6.4,0.3,9.4
	c-3.1,3.8-6.4,7.5-10.4,10.3c-3-2.6-5.9-2.3-9.1-0.2c-9.3,6-19.6,9.3-30.7,9.4c-0.1-1.2-1.2-1.5-2-2c-7-4-13.2-9.1-18.6-15.1
	c-10.9-11.9-15.4-26.3-16.7-42c-0.1-1.1-0.5-2.6,1.3-3c1.4,3.2,3.8,4.6,7.2,3.7c3.3-0.9,4-3.7,4-6.8c0-3,0-5.9,0-8.9
	c0-6-1.9-7.8-7.9-7.4c-1.1-0.7-0.5-1.5-0.2-2.3c4-11.4,11-20.8,20.2-28.4C65.3,256.9,69.7,254,74,251z M72.3,343.8
	c11.1-0.1,20.4-9.1,20.7-20c0.1-3.5-1.8-6.1-4.9-6.5c-3-0.4-5.5,1.6-6.2,5.1c-0.3,1.3-0.4,2.7-0.8,4c-1.5,4.1-5.7,6.5-10.1,5.9
	c-4.4-0.6-7.6-3.8-8.2-8.4c-0.7-4.7-2.9-7.1-6.3-6.7c-3.5,0.4-5.2,3.2-4.9,7.9C52.3,335.4,61.8,343.9,72.3,343.8z M95.5,302.3
	c0,2.4-0.2,4.7,0,7.1c0.3,3,2.1,4.7,5.1,4.9c3,0.2,5.2-1.3,5.6-4.3c0.7-4.9,0.7-9.9,0-14.8c-0.4-3-2.6-4.5-5.6-4.3
	c-3,0.1-4.9,1.8-5.2,4.8C95.3,297.9,95.5,300.1,95.5,302.3z"/>
<path class="st3" d="M94.9,46.4c1.4-0.1,2.7-0.2,4.1-0.2c32.5,0,65.1,0,97.6,0c1.3,0,2.7,0,4.7,0c-4.7,4.6-3.6,9-1.1,13.6
	c1.9,3.5,3.5,7.1,5.3,10.7c2,4.3,0.6,6.7-4,6.7c-25.8,0-51.6,0-77.4,0c-1.6,0-3.2-0.2-4.8,0.5c-2.6,1.2-3.8,3.2-3.4,6
	c0.4,2.6,2,4.2,4.7,4.6c1.1,0.2,2.2,0.1,3.4,0.1c23.6,0,47.1,0,70.7,0c1.4,0,2.7,0,4.1,0c-1.5,8.6-1,9.7,6.6,13.7
	c3.4,1.8,6.7,4,10.2,5.3c3.8,1.4,3.4,4.6,3.8,7.4c0.2,1.9-1.6,1.1-2.5,1.1c-8.6,0.1-17.2,0-25.8,0c-12.6,0-25.2,0-37.8,0
	c-5.4,0-8,1.9-7.9,5.7c0.1,3.7,2.7,5.6,8.1,5.6c21.4,0,42.9,0,64.3,0c2.2,0,3.8,0,4.9,2.6c1.5,3.6,4.8,4.6,9.5,3.8
	c4.8-0.8,6,0.6,4.9,5.5c-0.5,2-1.9,1.3-2.9,1.3c-8.7,0.1-17.5,0-26.2,0c-0.9,0-1.7,0-2.6,0c-3.9,0.2-6.1,2.2-6.1,5.6
	c0,3.3,2.2,5.5,6.1,5.6c3,0.1,6,0,9,0c6.7,0,13.5,0.1,20.2,0c1.8,0,2.7,0.3,2.6,2.4c-0.2,3.5,1,7.9-0.7,10.1
	c-1.6,2.1-6.3,0.6-9.6,0.6c-42.6,0-85.3,0-127.9,0c-1.4,0-2.7-0.1-4.1-0.1c0-4.3,0-8.5,0-12.8c1.4-0.1,2.7-0.2,4.1-0.2
	c28.3,0,56.5,0,84.8,0c1.6,0,3.3,0,4.8-0.4c2.8-0.7,4-2.8,3.9-5.6c-0.2-2.6-1.6-4.5-4.2-5c-1.3-0.3-2.7-0.2-4.1-0.2
	c-28.4,0-56.8,0-85.2,0c-1.4,0-2.7-0.2-4.1-0.2c0-4.3,0-8.6,0-12.9c1.1,0,2.2-0.1,3.4-0.1c11.5,0,22.9,0,34.4,0c4.4,0,7-2.5,6.6-6.2
	c-0.3-3.3-2.5-5-6.6-5c-12.6-0.1-25.2-0.1-37.8-0.2C94.9,92.8,94.9,69.6,94.9,46.4z"/>
<path class="st4" d="M94.9,46.4c0,23.2,0,46.4,0,69.5c-1,0.1-2,0.1-2.9,0.2c-3.3,0.3-5.4,2.3-5.4,5.3c0,3.4,1.9,5.2,5,5.8
	c1.1,0.2,2.2,0.2,3.3,0.2c0,4.3,0,8.6,0,12.9c-1.1,0.1-2.2,0.2-3.3,0.3c-3.1,0.4-4.9,2.1-5,5.3c-0.1,3.2,1.6,5.1,4.7,5.6
	c1.2,0.2,2.4,0.3,3.6,0.4c0,4.3,0,8.5,0,12.8c-1.1,0.1-2.2,0-3.3,0.2c-3.2,0.6-5.1,2.4-5,5.8c0,3.1,2.1,5.1,5.4,5.3
	c1,0.1,2,0.1,2.9,0.2c0,7,0,14.1,0,21.1c-1,0.1-2,0.1-2.9,0.2c-3.4,0.3-5.4,2.2-5.4,5.3c0,3.4,1.9,5.2,5.1,5.8
	c1.1,0.2,2.2,0.2,3.3,0.3c0,4.3,0,8.5,0,12.8c-1,0.1-2,0.1-2.9,0.2c-3.5,0.4-5.6,2.6-5.4,5.8c0.2,3.4,2.1,5.1,5.4,5.4
	c1,0.1,2,0.1,2.9,0.2c0,3.1,0,6.2,0,9.4c-10.2-2.8-20.5-4.3-31-2.9c-1.8,0.2-2.6-0.3-2.4-2.2c0.1-0.6,0-1.2,0-1.9
	c0-61.8,0-123.7-0.1-185.5c0-3.5,0.9-4.4,4.3-4.3C75.5,46.4,85.2,46.4,94.9,46.4z"/>
<path class="st5" d="M301.5,122.2c-4.5-0.6-8.9-1.1-13.1-1.9c-3.6-0.7-6.6,0.3-9.2,2.9c-3,3-6.2,5.8-9.1,8.9
	c-1.7,1.9-2.8,1.6-4.4-0.1c-3-3.2-6.3-6.1-9.4-9.1c-2.4-2.4-5.2-3.2-8.5-2.6c-4.2,0.7-8.4,1.2-12.6,1.9c-2,0.3-3.2,0.1-3.5-2.4
	c-0.4-4.1-1.5-8.1-2.1-12.2c-0.5-4-2.4-6.6-6-8.4c-3.7-1.8-7.2-3.9-10.9-5.7c-1.9-0.9-2.5-1.8-1.3-3.9c2-3.5,3.4-7.2,5.3-10.7
	c2-3.7,2.1-7.2,0.1-11c-1.9-3.5-3.4-7.2-5.3-10.7c-1.1-1.9-1-3,1.2-4c3.9-1.9,7.7-4.1,11.6-6.1c3.1-1.6,4.8-4.1,5.3-7.6
	c0.6-4.3,1.6-8.6,2.2-12.9c0.3-2,0.9-2.5,2.9-2.1c4,0.7,8.1,1.1,12.2,1.8c4.3,0.7,7.8-0.4,10.7-3.6c2.7-3,5.8-5.5,8.5-8.4
	c1.3-1.4,2.2-1.4,3.5,0c3.2,3.3,6.6,6.4,9.9,9.7c2.1,2.1,4.6,2.9,7.5,2.6c4.7-0.6,9.4-1.1,14.1-1.9c2-0.4,2.6,0.2,2.8,2.1
	c0.7,4.6,1.7,9.1,2.4,13.6c0.5,3.2,2.3,5.4,5.1,6.9c3.8,1.9,7.4,4.1,11.2,5.9c2.2,1.1,2.9,2.1,1.5,4.4c-1.9,3.3-3.2,7-5.1,10.4
	c-2.2,3.9-2.1,7.5,0.1,11.3c1.9,3.5,3.4,7.2,5.3,10.7c1,1.9,0.6,2.7-1.2,3.6c-3.7,1.8-7.2,3.9-10.9,5.7c-3.7,1.8-5.7,4.6-6.3,8.6
	c-0.6,4.2-1.5,8.3-2.1,12.5C303.7,122,303,122.6,301.5,122.2z M300.6,66.3c4.4-2.5,5.2-4.6,3.2-9.1c-6.9-16.1-23.8-25.3-41.8-22.8
	c-17.9,2.5-32.3,18-33.2,35.7c-1.1,19.9,10.9,36.7,29.6,41.4c17.8,4.5,36.9-4.3,44.8-20.8c2.1-4.3,1.6-6.2-2.5-9.1
	C301.5,76.5,302.2,71.4,300.6,66.3z"/>
<path class="st6" d="M94.9,197.5c0-7,0-14.1,0-21.1c3.2,0,6.5-0.1,9.7-0.1c42.9,0,85.8,0,128.6-0.1c3.4,0,4.3,0.9,4,4.1
	c-0.3,2.6,0,5.2-0.1,7.9c-0.1,3.2,0.7,5.9,2.9,8.2c0,0.4,0,0.8,0,1.2c-0.9,0.1-1.7,0.2-2.6,0.2c-46.6,0-93.3,0-139.9,0
	C96.7,197.7,95.8,197.6,94.9,197.5z"/>
<path class="st5" d="M37.9,310.4c-1.8,0.4-1.4,1.9-1.3,3c1.3,15.7,5.8,30,16.7,42c5.5,6,11.6,11,18.6,15.1c0.8,0.5,1.9,0.7,2,2
	c-28,2.1-56-20-61.4-48.6c-6.6-34.7,15.6-66.7,50.3-72.4c3.6-0.6,7.4-1.3,11.1-0.4c-4.3,3.1-8.8,5.9-12.8,9.3
	c-9.3,7.6-16.2,17-20.2,28.4c-0.3,0.8-0.9,1.6,0.2,2.3c-2.5,1.6-3.5,3.9-3.4,6.9C37.9,302,37.9,306.2,37.9,310.4z"/>
<path class="st7" d="M94.9,197.5c0.9,0.1,1.7,0.2,2.6,0.2c46.6,0,93.3,0,139.9,0c0.9,0,1.7-0.1,2.6-0.2c0.7,0.1,1.5,0.2,2.2,0.3
	c0.3,0,0.6,0,1,0.1c2.6,1.9,3.9,4.3,2.7,7.4c-1.2,3.2-4.1,3.6-7.1,3.6c-46.5,0-93,0-139.5,0c-1.5,0-3,0.1-4.5,0.2
	c-1.1-0.1-2.2-0.1-3.3-0.3c-3.2-0.6-5.1-2.4-5.1-5.8c0-3.1,2.1-5,5.4-5.3C93,197.7,94,197.6,94.9,197.5z"/>
<path class="st8" d="M266.3,146.5c3.5,0.4,6.3-1,8.6-3.6c3.5-4,7.1-8,10.7-12c0.4,0.3,0.9,0.7,1.3,1c0,16.7,0,33.4,0,50.8
	c-4.2-3.5-8.2-6.8-12.2-10.2c-2.5-2.1-5.1-3.5-8.4-3.2C266.3,161.7,266.3,154.1,266.3,146.5z"/>
<path class="st9" d="M266.3,146.5c0,7.6,0,15.2,0,22.8c-5,2.2-8.5,6.4-12.8,9.6c-1.5,1.1-2.9,2.4-4.7,3.9c0-17.2,0-33.9,0-51.6
	c3.4,3.3,6.4,6.1,9.4,8.9C260.7,142.5,262.7,145.5,266.3,146.5z"/>
<path class="st4" d="M242.3,197.9c-0.7-0.1-1.5-0.2-2.2-0.3c0-0.4,0-0.8,0-1.2C240.8,196.9,241.5,197.4,242.3,197.9z"/>
<path class="st7" d="M94.9,233.6c-1-0.1-2-0.1-2.9-0.2c-3.3-0.3-5.2-2-5.4-5.4c-0.2-3.2,1.9-5.4,5.4-5.8c1-0.1,2-0.2,2.9-0.2
	c4,0.1,8,0.2,11.9,0.2c23.6,0,47.1,0,70.7,0c1.5,0,3,0,4.4,0.4c2.8,0.8,4,2.9,3.7,5.7c-0.2,2.7-1.7,4.4-4.4,4.9
	c-1.5,0.2-3,0.2-4.5,0.2c-25.9,0-51.9,0-77.8,0C97.7,233.4,96.3,233.5,94.9,233.6z"/>
<path class="st0" d="M205.3,271.3c11.3,0,22.7,0,34,0c4.6,0,6.9,1.8,7.1,5.4c0.1,3.6-2.5,5.9-7,5.9c-22.7,0-45.4,0-68,0
	c-4.6,0-7.2-2.2-7.1-5.9c0.1-3.5,2.5-5.4,7-5.4C182.6,271.3,193.9,271.3,205.3,271.3z"/>
<path class="st7" d="M218.7,233.4c-6.7,0-13.5,0-20.2,0c-4.4,0-6.8-2.2-6.7-5.8c0.1-3.4,2.5-5.4,6.7-5.5c13.7,0,27.4,0,41.1,0
	c4.2,0,6.6,2.1,6.7,5.5c0.1,3.6-2.3,5.7-6.7,5.8C232.7,233.5,225.7,233.4,218.7,233.4z"/>
<path class="st10" d="M72.3,343.8c-10.5,0.1-20-8.4-20.8-18.6c-0.4-4.7,1.3-7.5,4.9-7.9c3.4-0.4,5.7,2,6.3,6.7
	c0.7,4.6,3.8,7.8,8.2,8.4c4.4,0.6,8.6-1.8,10.1-5.9c0.5-1.3,0.6-2.7,0.8-4c0.7-3.5,3.2-5.5,6.2-5.1c3.1,0.4,5,2.9,4.9,6.5
	C92.7,334.7,83.4,343.7,72.3,343.8z"/>
<path class="st10" d="M95.5,302.3c0-2.2-0.2-4.5,0-6.7c0.3-3,2.2-4.7,5.2-4.8c3-0.1,5.2,1.4,5.6,4.3c0.7,4.9,0.7,9.9,0,14.8
	c-0.4,3-2.6,4.4-5.6,4.3c-3-0.2-4.9-1.8-5.1-4.9C95.3,307.1,95.5,304.7,95.5,302.3z"/>
<path class="st10" d="M37.9,310.4c0-4.2,0-8.4-0.1-12.6c-0.1-3,0.9-5.3,3.4-6.9c5.9-0.3,7.8,1.4,7.9,7.4c0,3,0,5.9,0,8.9
	c0,3.1-0.7,5.8-4,6.8C41.7,315,39.3,313.5,37.9,310.4z"/>
<path class="st7" d="M94.9,152.1c-1.2-0.1-2.4-0.2-3.6-0.4c-3.1-0.6-4.8-2.5-4.7-5.6c0.1-3.2,1.9-4.9,5-5.3c1.1-0.1,2.2-0.2,3.3-0.3
	c1.4,0.1,2.7,0.2,4.1,0.2c28.4,0,56.8,0,85.2,0c1.4,0,2.8,0,4.1,0.2c2.7,0.5,4.1,2.3,4.2,5c0.2,2.8-1.1,4.9-3.9,5.6
	c-1.5,0.4-3.2,0.4-4.8,0.4c-28.3,0-56.5,0-84.8,0C97.6,151.9,96.3,152,94.9,152.1z"/>
<path class="st0" d="M94.9,127.5c-1.1-0.1-2.2,0-3.3-0.2c-3.2-0.6-5.1-2.4-5-5.8c0-3.1,2.1-5.1,5.4-5.3c1-0.1,2-0.1,2.9-0.2
	c12.6,0,25.2,0.1,37.8,0.2c4.1,0,6.3,1.7,6.6,5c0.3,3.7-2.2,6.2-6.6,6.2c-11.5,0.1-22.9,0-34.4,0C97.2,127.4,96,127.5,94.9,127.5z"
	/>
<path class="st10" d="M300.7,81.6c4.1,2.9,4.6,4.8,2.5,9.1c-8,16.5-27,25.4-44.8,20.8c-18.7-4.7-30.7-21.6-29.6-41.4
	c1-17.7,15.4-33.2,33.2-35.7c17.9-2.5,34.8,6.7,41.8,22.8c2,4.6,1.2,6.7-3.2,9.1c-3.6,0.3-5.6-1.5-7.1-4.6
	c-4.4-9.2-11.5-15-21.9-16.1c-0.6-0.2-1.2-0.5-1.8-0.5c-11.3-0.3-20.2,4.1-26,13.9c-5.7,9.8-5.6,19.9,0.5,29.4
	c6.1,9.5,15,13.9,26.4,12.7c10.3-0.9,17.5-6.3,22.2-15.2C294.7,82.5,297,81,300.7,81.6z"/>
<path class="st11" d="M271.5,45.6c10.4,1.1,17.5,6.8,21.9,16.1c1.5,3.2,3.5,5,7.1,4.6c1.7,5.1,1,10.2,0.1,15.3
	c-3.7-0.6-5.9,0.9-7.7,4.3c-4.7,8.9-11.9,14.4-22.2,15.2c-0.7-2.8-3.6-3.9-5.1-6.1c-1.7-2.5-4.7-4.3-4-8c2.8,1.9,5.6,2.2,8.1-0.3
	c5.8-5.7,11.5-11.4,17.1-17.2c2.5-2.5,2.3-5.8,0-8c-2.2-2.2-5.4-2.2-8,0.2c-2.3,2.1-4.4,4.4-6.6,6.6c-7,7-7,7-13.7-0.7
	c-0.1-4,1.6-7.4,3.4-10.8C264.5,52.5,268,49,271.5,45.6z"/>
<path class="st12" d="M271.5,45.6c-3.5,3.4-7,6.8-9.4,11.2c-1.8,3.4-3.5,6.8-3.4,10.8c-0.3-0.2-0.6-0.4-0.9-0.7
	c-3.5-3.2-6.7-3.6-9.1-1.2c-2.7,2.7-2.2,5.7,1.3,9.3c3.9,4,7.8,7.9,11.7,11.9c-0.7,3.7,2.3,5.5,4,8c1.5,2.2,4.3,3.3,5.1,6.1
	c-11.4,1.2-20.4-3.2-26.4-12.7c-6.1-9.5-6.3-19.7-0.5-29.4c5.7-9.8,14.7-14.1,26-13.9C270.4,45.2,270.9,45.5,271.5,45.6z"/>
<path class="st10" d="M261.7,87c-3.9-4-7.8-7.9-11.7-11.9c-3.6-3.6-4-6.6-1.3-9.3c2.4-2.4,5.6-2,9.1,1.2c0.3,0.2,0.6,0.4,0.9,0.7
	c6.7,7.7,6.7,7.7,13.7,0.7c2.2-2.2,4.3-4.5,6.6-6.6c2.6-2.4,5.8-2.4,8-0.2c2.3,2.2,2.4,5.5,0,8c-5.6,5.8-11.4,11.5-17.1,17.2
	C267.3,89.2,264.5,88.9,261.7,87z"/>
</svg>
