<!-- Generator: Adobe Illustrator 24.0.0, SVG Export Plug-In  -->
<svg version="1.1" xmlns="http://www.w3.org/2000/svg" xmlns:xlink="http://www.w3.org/1999/xlink" x="0px" y="0px" width="383.2px"
	 height="383.2px" viewBox="0 0 383.2 383.2" style="enable-background:new 0 0 383.2 383.2;" xml:space="preserve">
<style type="text/css">
	.st0{fill:#FFFFFF;}
</style>
<defs>
</defs>
<g>
	<g>
		<path class="st0" d="M156.4,383.2c-5.8-4-6.1-7.7-1.1-12.7c2.3-2.2,4.6-4.4,6.9-6.7c-10.4-1.8-20.4-3-30.1-5.3
			C89.7,348.4,56,325.2,31,289.7c-17.8-25.3-27.9-53.5-30.3-84.4c-0.1-1.1-0.4-2.2-0.6-3.2c0-4.2,0-8.5,0-12.7
			c1.9-2.5,4-4.9,7.6-4.3c3.7,0.6,5.6,3.3,5.7,8.4c0.1,14.2,1.9,28.1,6.1,41.6c18.3,58,56.9,94.9,115.6,110.5
			c8.4,2.2,17.1,3.1,25.6,4.6c0.2-0.4,0.3-0.8,0.5-1.2c-2.1-2.2-4.2-4.3-6.3-6.5c-3.5-3.6-3.8-7.3-0.9-10.2
			c2.8-2.8,6.8-2.5,10.2,0.9c6,6,12,11.9,18,18c3.8,3.8,3.8,7.2,0,11c-7,7-14.2,14-21.3,20.9C159.4,383.2,157.9,383.2,156.4,383.2z"
			/>
		<path class="st0" d="M99.1,191.5c0.1-51.1,41.8-92.7,92.7-92.5c51.1,0.2,92.3,41.5,92.4,92.4c0.1,50.9-41.5,92.6-92.5,92.7
			C140.7,284.2,99,242.4,99.1,191.5z M171.7,209.4c-2.9-3.2-5.2-6-7.7-8.5c-3.3-3.3-7.1-3.5-9.9-0.7c-2.9,2.8-2.7,6.6,0.5,9.9
			c3.6,3.7,7.2,7.2,10.8,10.9c5,5,7.8,5,12.9-0.1c16.4-16.4,32.8-32.8,49.2-49.2c0.8-0.8,1.6-1.6,2.3-2.5c2.1-2.9,1.8-6.4-0.8-8.8
			c-2.4-2.2-5.8-2.4-8.5-0.2c-0.9,0.7-1.6,1.5-2.4,2.3c-12.7,12.7-25.4,25.4-38.1,38.1C177.3,203.2,174.9,206,171.7,209.4z"/>
		<path class="st0" d="M56.3,102c-16.2,7-25.9,19-29.4,36.4c-9-10.1-14.8-21.2-17.9-33.7c-11.3-46.8,20.2-92,68.1-97.9
			c43.5-5.3,84,27.7,87.7,71.4c0.3,3.5,1.4,7.7-0.1,10.2c-1.3,2.2-5.9,2.3-8.9,3.8c-8.9,4.6-17.8,9.3-26.6,14.3
			c-1.8,1-3,1.6-4.9,0.2c-2.6-1.8-5.6-3.2-8.8-5c13-12,18.9-26.7,15.7-44.5c-2.1-11.6-8.1-21.1-17.5-28.2C95.2,15,68.9,17,52.8,33.8
			c-9.3,9.7-13.6,21.3-13,34.7C40.2,79.4,43.5,86,56.3,102z"/>
		<path class="st0" d="M221.1,18.9c13,2.6,25.7,4,37.7,7.7c64.5,20.2,104.7,63.6,120.4,129.3c2.6,10.9,2.9,22.4,3.9,33.7
			c0.5,5.2-2.2,8.3-6.2,8.5c-4.1,0.2-6.9-3-7-8.4c-0.3-24.5-5.5-47.8-17-69.4c-26-49.2-66.7-78.1-122-86.1c-2.8-0.4-5.7-0.6-9.7-1
			c2.9,3,5,5.1,7.1,7.3c3.5,3.6,3.8,7.3,0.9,10.2c-2.8,2.8-6.8,2.5-10.2-0.9c-6-6-12-11.9-18-18c-3.8-3.9-3.8-7.2,0-11
			c6-6,12-12,18-18c3.5-3.5,7.3-3.8,10.2-0.9c2.9,2.9,2.6,6.7-0.9,10.2C226,14.5,223.4,16.8,221.1,18.9z"/>
		<path class="st0" d="M326.7,313.3c17.9-16.1,20.3-37.8,12.8-54.7c-8.4-18.9-25.4-28.2-49.8-27c1.3-4.2,2.4-8.4,4-12.3
			c0.4-0.9,2.7-1.4,4.1-1.3c21.2,0.4,39.6,7.8,55,22.5c29.1,28,31.9,75.2,6.3,106.4c-0.7,0.9-1.5,1.6-2.6,2.9
			C352.8,332.3,343.1,320.2,326.7,313.3z"/>
		<path class="st0" d="M330.3,369.7c0-4.8,0.1-8.5,0-12.2c-0.1-4.5-2.5-7.1-6.4-7.2c-4-0.1-6.6,2.7-6.7,7.3c-0.1,4.5-0.2,9,0,13.5
			c0.1,2.4-0.9,3.3-3,3.7c-12.1,2.5-24.2,2.5-36.7-0.9c0-5.3,0.3-10.7-0.1-15.9c-0.2-2.3-1.5-5.2-3.2-6.6c-4-3.1-9.6,0.1-9.9,5.4
			c-0.2,4,0,8,0,12.9c-4.5-2.7-8.4-5-12.2-7.5c-0.6-0.4-0.9-1.7-1-2.6c-1.3-18.9,12.6-34.8,31.5-35.6c10.1-0.4,20.2-0.4,30.3,0
			c18.4,0.9,32.4,17.6,30.6,36c-0.1,0.9-0.7,2.2-1.5,2.7C338.5,364.9,334.8,367,330.3,369.7z"/>
		<path class="st0" d="M85.8,99c-18.4-0.1-33-14.8-32.8-33.2c0.1-18.3,15-33,33.2-32.8C104.2,33.1,119,48,119,66
			C119,84.3,104.1,99,85.8,99z"/>
		<path class="st0" d="M330.3,279.6c-0.4,11.1-6.3,21.4-18.5,27.4c-12.3,6-24.4,4.7-35-3.9c-10.6-8.4-14.3-19.8-11.6-33
			c0.4-2.2,1.9-4.2,3.3-6.1c2.5-3.4,5.9-6.2,8-9.8c3.6-6.2,9.4-8.3,15.7-9.4C312.2,241.7,330.2,257,330.3,279.6z"/>
		<path class="st0" d="M116.1,116.5c-5.2,7.1-10.6,13.2-14.4,20c-4.5,8-7.8,16.6-11.2,25.1c-1.1,2.7-2.2,3.9-5,3.5
			c-5.4-0.7-10.8-1.4-16.3-1.9c-2.5-0.3-3.3-1.4-3.2-3.9c0.2-4.5,0.1-9,0-13.5c-0.1-4.3-2.7-7.2-6.4-7.2c-3.7-0.1-6.5,2.8-6.6,7.1
			c-0.1,3.7,0,7.5,0,12.5c-4.7-2.9-8.8-5.3-12.7-7.9c-0.4-0.3-0.5-1.3-0.5-2c-1.3-19.7,13.4-35.8,33.1-36
			c10.8-0.1,21.7,0.1,32.5,0.8C108.9,113.3,112.5,115.3,116.1,116.5z"/>
		<path class="st0" d="M237.4,349.7c-3.5-5.4-7.3-10.5-10.3-16.1c-6.1-11.2-8.8-23.4-9-36.2c-0.1-2.4,0.7-3.5,3.1-4.5
			c9.2-3.8,18.1-8,27.2-12.1c0.9-0.4,1.7-0.9,2.9-1.5c0.9,13.8,6.4,25,17,34.1c-16.2,6.9-26.1,18.8-29.6,35.9
			C238.1,349.3,237.7,349.5,237.4,349.7z"/>
	</g>
</g>
</svg>
