<!-- Generator: Adobe Illustrator 24.0.0, SVG Export Plug-In  -->
<svg version="1.1" xmlns="http://www.w3.org/2000/svg" xmlns:xlink="http://www.w3.org/1999/xlink" x="0px" y="0px" width="362px"
	 height="364.6px" viewBox="0 0 362 364.6" style="enable-background:new 0 0 362 364.6;" xml:space="preserve">
<style type="text/css">
	.st0{fill:#FFFFFF;}
</style>
<defs>
</defs>
<path class="st0" d="M276.9,136c0,9.9-0.1,19.8,0.1,29.7c0,0.8,1.6,1.9,2.7,2.2c23,5.9,40.2,19.1,50.5,40.6
	c11.3,23.7,10.3,47.4-2.7,70.4c-1.8,3.1-1.3,4.9,0.7,7.4c9.3,11.5,18.4,23,27.5,34.6c8.5,10.9,8.5,24.6,0.3,34.6
	c-10.5,12.8-30.4,12.2-40.6-1.4c-8.9-11.9-17.5-24-26-36.2c-2.3-3.3-4.5-5.5-8.6-3.2c-1,0.6-2.4,0.6-3,0.8
	c-1.2,4.7-1.8,9.3-3.6,13.3c-6.1,13.8-17,21.1-32,21.1c-69,0.2-138,0.2-207,0c-20.4,0-34.9-15.3-34.9-36.1C0,269.9,0,226.2,0,182.4
	C0,135,0,87.6,0,40.2C0,20.1,12.3,4.7,31.2,0.9c3.2-0.6,6.4-0.7,9.7-0.7c86.8,0,173.7,0.1,260.5-0.1c23.6-0.1,37.1,15.6,40.2,29.8
	c0.8,3.4,1.1,6.9,1.1,10.4c0.1,23.8,0.1,47.5,0,71.3c0,14.6-9.5,24.1-24.2,24.1c-13.5,0.1-26.9,0-40.4,0.1
	C277.9,135.7,277.7,135.8,276.9,136z M276.7,11.4c-2,0-3,0-4,0c-77.4,0-154.7,0-232.1,0c-17.7,0-29.3,11.6-29.3,29.4
	c0,91,0,182.1,0,273.1c0,2.8,0.3,5.8,1,8.5C15.3,333.1,24,339,36.5,339c67.9,0,135.7,0,203.6,0c1.6,0,3.2,0,4.9-0.2
	c11-1,21-11.9,20.1-22.1c-40,1.8-75.6-30.2-77.9-71c-1-17.8,3.7-34.2,14.3-48.6c15.8-21.5,37.5-31.7,64.1-31.8c0-1.9,0-3.4,0-4.9
	c0-39.9,0-79.8,0-119.7c0-2.6,0.1-5.3,0.4-7.8C267.1,25,270.7,18.1,276.7,11.4z M326,241.7c0.1-37.4-26.5-64.1-64.1-64.3
	c-34.7-0.2-63.1,28.2-63.3,63.4c-0.3,35,28.8,64.2,63.9,64.3C299.5,305.3,325.8,279,326,241.7z"/>
<path class="st0" d="M138.7,69c-27.3,0-54.6,0-81.9,0C47.8,69,44,65.2,44,56.2c0-3.6-0.1-7.3,0-10.9c0.2-5.8,4.1-9.8,9.9-10.2
	c1.1-0.1,2.2,0,3.4,0c54.3,0,108.5,0,162.8,0c10.1,0,13.4,3.4,13.4,13.5c0,2.9,0,5.7,0,8.6c0,7.9-3.8,11.7-11.7,11.7
	C194.1,69,166.4,69,138.7,69z"/>
<path class="st0" d="M64.4,233.4c-5.4,0-10.7,0.1-16.1,0c-8.9-0.2-13.8-5.3-13.9-14.2c-0.1-9.6-0.1-19.3,0-28.9
	c0.1-8.7,5-13.9,13.6-14c10.9-0.2,21.7-0.2,32.6,0c8.1,0.1,13.5,5.8,13.6,13.9c0.1,9.9,0.1,19.8,0,29.6c0,8-4.9,13.1-13,13.5
	C75.6,233.6,70,233.4,64.4,233.4C64.4,233.4,64.4,233.4,64.4,233.4z M58.8,206.8c-1.3-1.9-2-3.5-3.2-4.6c-2.1-2.2-4.8-2.4-7-0.3
	c-2.2,2.2-1.7,4.8,0.3,7c2,2.1,4,4.1,6.1,6.1c3,2.9,5.4,3,8.4,0.1c4.4-4.3,8.7-8.6,12.9-12.9c2.5-2.6,2.9-5.6,1-7.6
	c-2-2.1-5.1-1.8-7.8,1C66.2,198.9,63,202.3,58.8,206.8z"/>
<path class="st0" d="M64.3,153.7c-5.6,0-11.2,0.1-16.8,0c-7.5-0.2-12.8-5.1-13-12.7c-0.2-10.5-0.2-21,0-31.5
	c0.1-7.5,5.4-12.7,12.9-12.8c11.3-0.2,22.7-0.2,34,0c7.5,0.1,12.8,5.8,12.8,13.3c0.1,10.1,0.1,20.2,0,30.3
	c-0.1,7.9-5.2,13.1-13.1,13.2C75.5,153.8,69.9,153.7,64.3,153.7z M58.8,126.9c-1-1.5-1.7-2.8-2.6-3.8c-2.5-2.6-5.6-2.9-7.6-1
	c-2,2-1.8,5,0.7,7.6c1.8,1.9,3.7,3.7,5.5,5.6c3.1,3,5.6,3,8.7,0c4.3-4.2,8.5-8.4,12.6-12.7c2.7-2.7,3-5.9,0.9-7.9
	c-2-1.8-5.1-1.5-7.6,1.1C66.2,119.1,63,122.6,58.8,126.9z"/>
<path class="st0" d="M64.3,313.6c-5.4,0-10.7,0.1-16.1,0c-8.8-0.2-13.7-5.3-13.8-14.2c0-9.6-0.1-19.2,0-28.9c0.1-8.8,5.2-13.9,14-14
	c10.6-0.1,21.2-0.1,31.8,0c8.6,0.1,13.9,5.5,14,14.1c0,9.7,0,19.5,0,29.2c0,8.3-4.9,13.4-13.1,13.7
	C75.5,313.8,69.9,313.6,64.3,313.6C64.3,313.6,64.3,313.6,64.3,313.6z M58.9,286.8c-1.3-1.7-2.1-3.2-3.2-4.3c-2.2-2.2-4.8-2.4-7-0.3
	c-2.2,2.1-1.8,4.8,0.2,7c1.9,2.1,4,4.1,6.1,6.1c3.1,3,5.5,3,8.7-0.1c4.3-4.2,8.5-8.4,12.7-12.7c2.5-2.6,2.9-5.6,1-7.6
	c-2-2.1-5.2-1.8-7.8,0.9C66.2,279.1,63,282.5,58.9,286.8z"/>
<path class="st0" d="M181.5,104.7c18,0,35.9,0,53.9,0c4.7,0,7.8,2.3,7.7,5.7c-0.1,3.3-3.1,5.5-7.6,5.5c-36.2,0-72.3,0-108.5,0
	c-4.7,0-7.4-2.1-7.4-5.6c0-3.5,2.8-5.7,7.3-5.7C145.1,104.7,163.3,104.7,181.5,104.7z"/>
<path class="st0" d="M164.2,134.6c12.2,0,24.4,0,36.6,0c1.2,0,2.9-0.4,3.7,0.2c1.8,1.5,3.9,3.2,4.5,5.2c0.7,2.6-1.2,4.7-4,5.5
	c-1.3,0.4-2.7,0.3-4.1,0.3c-24.4,0-48.9,0-73.3,0c-1,0-2,0.1-3-0.1c-3.1-0.5-5-2.2-5-5.5c-0.1-3.1,2.1-5.4,5.3-5.7
	c1.5-0.1,3-0.1,4.5-0.1C141,134.6,152.6,134.6,164.2,134.6z"/>
<path class="st0" d="M153.7,184.9c8.8,0,17.7,0,26.5,0c4.5,0,6.9,2,6.8,5.6c0,3.5-2.5,5.6-6.9,5.7c-17.8,0-35.6,0-53.5,0
	c-4.3,0-6.5-1.9-6.5-5.5c-0.1-3.9,2-5.7,6.6-5.8C135.8,184.8,144.8,184.9,153.7,184.9z"/>
<path class="st0" d="M154.1,264.5c8.6,0,17.2,0,25.8,0c4.5,0,7.3,2.3,7.2,5.7c-0.1,3.3-2.8,5.6-7,5.6c-17.7,0-35.4,0-53.1,0
	c-4.3,0-6.8-2.2-6.8-5.7c0-3.6,2.5-5.5,6.9-5.5C136.2,264.5,145.1,264.5,154.1,264.5z"/>
<path class="st0" d="M145.1,294.5c6.5,0,12.9,0,19.4,0c4,0,6.3,2.2,6.3,5.8c-0.1,3.4-2.2,5.4-6.2,5.4c-12.8,0.1-25.6,0-38.5,0
	c-4.2,0-6.5-2.1-6.5-5.6c0-3.5,2.4-5.6,6.4-5.7C132.4,294.5,138.7,294.5,145.1,294.5z"/>
<path class="st0" d="M145.4,214.8c6.2,0,12.5,0,18.7,0c4.4,0,6.7,2.1,6.7,5.8c-0.1,3.5-2.3,5.5-6.6,5.5c-12.6,0.1-25.2,0.1-37.8,0
	c-4.1,0-6.9-2.5-6.8-5.9c0.1-3.3,2.5-5.4,6.7-5.4C132.7,214.8,139.1,214.8,145.4,214.8z"/>
<path class="st0" d="M209.9,240.9c0.2-29.2,24.3-52.9,53.5-52.8c28.7,0.1,52,24.5,51.7,54c-0.3,29.3-23.6,52-53.1,51.8
	C233.4,293.6,209.7,269.5,209.9,240.9z M260.5,206.4c-5.4,0-10.4,1.1-15,4c-2.1,1.4-4,2.9-2.5,5.7c1.5,2.6,3.5,2.1,6.1,1.4
	c4.9-1.2,9.9-2.2,14.9-2.3c4.1-0.2,7.5,2,8.9,6.2c1.3,4.2,0.2,7.8-3.2,10.7c-2.7,2.3-5.7,4.3-7.6,7.1c-2.3,3.5-4,7.6-5.3,11.6
	c-0.9,2.6,1,4.3,3.6,4.5c2.5,0.2,4-1.1,4-3.8c0.1-4.2,2.3-7.3,5.4-9.8c1.9-1.6,4-3,5.8-4.7c5.3-4.8,6.7-10.9,5.1-17.7
	c-1.6-6.7-6.2-10.3-12.6-11.9C265.7,206.9,263.1,206.7,260.5,206.4z M265.6,267.4c0-3.1-2.2-5.6-5.2-5.7c-3-0.1-5.4,2.5-5.4,5.8
	c0,3.2,2,5.3,4.9,5.4C263.2,273,265.6,270.6,265.6,267.4z"/>
</svg>
