<!-- Generator: Adobe Illustrator 24.0.0, SVG Export Plug-In  -->
<svg version="1.1" xmlns="http://www.w3.org/2000/svg" xmlns:xlink="http://www.w3.org/1999/xlink" x="0px" y="0px" width="370.9px"
	 height="370.9px" viewBox="0 0 370.9 370.9" style="enable-background:new 0 0 370.9 370.9;" xml:space="preserve">
<style type="text/css">
	.st0{fill:#FFFFFF;}
</style>
<defs>
</defs>
<g>
	<path class="st0" d="M227.4,275.1c0,16.3,0,32.1,0,47.7c5.5,0.7,10.9,0.8,16,2.1c18.1,4.3,31,20.4,31.6,38.9
		c0.2,4.7-2.3,7.1-7.5,7.1c-16.7,0-33.4,0-50.1,0c-37.5,0-75.1,0-112.6,0c-7.6,0-9.7-2.4-8.6-9.8c3.4-23.1,20-37.6,43.2-37.7
		c1.2,0,2.5,0,4,0c0-16.1,0-31.9,0-48.3c-1.6,0-3.2,0-4.7,0c-43.3,0-86.6,0-129.8,0c-7.1,0-8.8-1.7-8.8-8.8C0,180.4,0,94.6,0,8.8
		C0,1.7,1.7,0,8.8,0c117.7,0,235.5,0,353.2,0c7.1,0,8.8,1.7,8.8,8.8c0,85.8,0,171.6,0,257.4c0,7.1-1.7,8.8-8.9,8.8
		c-43.2,0-86.3,0-129.5,0C230.9,275.1,229.3,275.1,227.4,275.1z M11.8,227.3c116,0,231.6,0,347.2,0c0-72,0-143.8,0-215.5
		c-115.9,0-231.5,0-347.2,0C11.8,83.7,11.8,155.4,11.8,227.3z M359,239.6c-115.9,0-231.4,0-347,0c0,8,0,15.7,0,23.6
		c115.8,0,231.3,0,347,0C359,255.2,359,247.5,359,239.6z M262.5,358.9c-0.2-1.1-0.3-1.8-0.5-2.5c-3.5-12.3-15.1-21.3-28.1-21.3
		c-32.4-0.1-64.8-0.1-97.2,0c-2.2,0-4.5,0.4-6.6,0.9c-11.1,2.7-20.7,12.9-21.6,23C159.8,358.9,210.9,358.9,262.5,358.9z
		 M155.5,323.1c20.2,0,40,0,59.8,0c0-16.1,0-32,0-47.8c-20.1,0-39.9,0-59.8,0C155.5,291.3,155.5,307.1,155.5,323.1z"/>
	<path class="st0" d="M131.7,57.2c0-8.8,0-16.9,0-25c0-6.3,1.9-8.2,8.3-8.2c12.3,0,24.7,0,37,0c6.3,0,8.2,1.9,8.2,8.3
		c0,5.3,0,10.7,0,15.6c9.3,0,18.4,0.1,27.4,0c4.7,0,9.1,0.8,13.1,3.5c0.8,0.5,2.4,0.5,3.2,0c3.9-2.6,8.1-3.5,12.8-3.5
		c6.7,0.1,13.5-0.3,20.2,0.2c3.8,0.3,7.7,1.7,11.3,3.2c1.7,0.7,2.6,0.6,4.3-0.1c3.5-1.4,7.2-2.9,10.9-3.1c7.3-0.5,14.7-0.2,22.1-0.1
		c10.8,0.1,18.5,7.7,18.5,18.4c0.1,43.5,0.1,87.1,0,130.6c0,10.5-7.7,18.1-18.3,18.2c-7.6,0.1-15.2,0.3-22.8-0.1
		c-3.5-0.2-7-1.6-10.2-3c-1.8-0.8-2.7-1-4.6-0.1c-3.4,1.5-7.2,2.9-10.9,3.1c-7,0.5-14,0.5-20.9,0c-4.1-0.3-8-2.2-12-3.2
		c-1.1-0.3-2.4-0.3-3.6,0c-4.2,1-8.2,2.9-12.4,3.2c-6.6,0.6-13.2,0.4-19.8,0.1c-5.5-0.3-10.8-0.5-16.4-0.1
		c-12.4,0.7-24.9,0.2-37.4,0.2c-5.8,0-7.9-2-7.9-7.9c0-29.9,0-59.9,0-89.8c0-1.5,0-3,0-4.4c-0.2-0.1-0.5-0.1-0.7-0.2
		c-0.5,1.2-1,2.3-1.5,3.5c-10.1,27.8-20.3,55.6-30.3,83.5c-2.9,8-7.6,13.8-16.4,14.9c-3.2,0.4-6.7-0.1-9.8-1.2
		c-6.2-2.1-12.3-4.7-18.4-7.3c-10.3-4.4-15.1-14.6-11.3-25.1C57.8,141,72.3,100.9,87,60.8c3.9-10.7,14.6-15.3,25.3-11.3
		C118.6,51.8,124.7,54.4,131.7,57.2z M269.5,131.7c0-21.6,0-43.1,0-64.7c0-5.4-2.1-7.5-7.4-7.5c-7.2,0-14.5,0-21.7,0
		c-5.1,0-7.2,2.2-7.2,7.3c0,43.1,0,86.3,0,129.4c0,5.3,2.2,7.3,7.6,7.4c6.9,0,13.7,0,20.6,0c6.3,0,8.2-1.9,8.2-8.3
		C269.5,174.1,269.5,152.9,269.5,131.7z M221.6,131.8c0-21.4,0-42.9,0-64.3c0-6-2-8-8.1-8c-7.1,0-14.2,0-21.3,0
		c-4.6,0-6.9,2.3-6.9,6.9c0,43.4,0,86.8,0,130.1c0,4.8,2.3,7,7.1,7.1c7,0,14,0,20.9,0c6.3,0,8.2-1.9,8.2-8.2
		C221.6,174.2,221.6,153,221.6,131.8z M173.5,59.7c-10.2,0-20,0-29.9,0c0,40.1,0,79.9,0,119.7c10.1,0,19.9,0,29.9,0
		C173.5,139.4,173.5,99.7,173.5,59.7z M92.8,78.2c-11,30.3-21.9,60.3-33,90.6c11.3,4.7,22.1,9.2,33.2,13.9c0.6-1.5,1.2-2.7,1.7-4
		c9.7-26.7,19.4-53.3,29.1-80c2.4-6.6,2.4-6.6-4.1-9.3C110.9,85.7,102,82,92.8,78.2z M317.1,179.5c0-32.2,0-63.9,0-95.7
		c-12.1,0-24,0-35.9,0c0,32.1,0,63.8,0,95.7C293.3,179.5,305.1,179.5,317.1,179.5z M89.3,193.5c-11.3-4.7-22.2-9.2-33.4-13.9
		c-0.9,2.4-1.8,4.2-2.2,6.1c-1,3.9,0.5,7.8,4.2,9.4c6.6,2.9,13.3,5.6,20.1,8c3.6,1.3,7.3-0.5,9.1-4
		C87.9,197.6,88.4,195.8,89.3,193.5z M317.4,71.6c0-2.2,0.1-4.2,0-6.1c-0.2-3.7-2.5-6-6.2-6c-8-0.1-15.9-0.1-23.9,0
		c-3.5,0-5.6,1.9-6.1,5.3c-0.3,2.2-0.1,4.4-0.1,6.8C293.2,71.6,305,71.6,317.4,71.6z M281,191.4c0,1.9,0,3.5,0,5.1
		c0.1,4.8,2.3,7,7.1,7.1c7.6,0,15.2,0.1,22.7,0c4.1,0,6.3-2.4,6.5-6.5c0.1-1.8,0-3.6,0-5.6C305.1,191.4,293.4,191.4,281,191.4z
		 M129.6,81.1c3.7-6.4,2.3-11.5-3.8-14c-5.7-2.4-11.5-4.7-17.3-6.9c-6-2.3-10.5,0.7-11.2,7.4C107.9,72.1,118.7,76.6,129.6,81.1z
		 M173.4,47.7c0-4.3,0-8.1,0-11.8c-10.2,0-20,0-29.8,0c0,4.1,0,7.9,0,11.8C153.6,47.7,163.4,47.7,173.4,47.7z M173.5,191.5
		c-10.2,0-20,0-29.9,0c0,4.1,0,8,0,11.9c10.1,0,19.9,0,29.9,0C173.5,199.3,173.5,195.5,173.5,191.5z"/>
	<path class="st0" d="M245.8,72c3.8,0,7.3,0,11.1,0c0,21.7,0,43.2,0,65c-3.6,0-7.2,0-11.1,0C245.8,115.5,245.8,94,245.8,72z"/>
	<path class="st0" d="M256.9,191c-3.8,0-7.4,0-11.1,0c0-9.7,0-19.2,0-29.1c3.6,0,7.3,0,11.1,0C256.9,171.6,256.9,181.1,256.9,191z"
		/>
	<path class="st0" d="M209,191c-3.8,0-7.3,0-11.1,0c0-25.6,0-51.1,0-77c3.6,0,7.2,0,11.1,0C209,139.6,209,165.1,209,191z"/>
	<path class="st0" d="M197.8,72c3.8,0,7.3,0,11.1,0c0,9.7,0,19.2,0,29.1c-3.6,0-7.2,0-11.1,0C197.8,91.5,197.8,82,197.8,72z"/>
</g>
</svg>
